<svg width="31" height="32" viewBox="0 0 31 32" fill="none" xmlns="http://www.w3.org/2000/svg">
<path d="M13.0655 16.8602C13.0655 17.7455 12.3529 18.4632 11.4738 18.4632C10.5947 18.4632 9.88217 17.7455 9.88217 16.8602C9.88217 15.9748 10.5948 15.2571 11.4738 15.2571C12.3529 15.2571 13.0655 15.9748 13.0655 16.8602ZM19.5263 15.2571C18.6472 15.2571 17.9345 15.9748 17.9345 16.8602C17.9345 17.7455 18.6473 18.4632 19.5263 18.4632C20.4054 18.4632 21.1179 17.7455 21.1179 16.8602C21.1179 15.9748 20.4053 15.2571 19.5263 15.2571ZM26.3253 21.7828V21.6002C26.1428 22.1334 25.9238 22.6399 25.6881 23.1324C25.7318 23.4342 25.8127 23.8556 25.9487 24.3372C26.6029 25.3562 28.4489 26.6544 29.7145 26.9888C29.0321 27.2808 28.2101 27.401 27.4106 27.2777C28.1429 28.2059 29.1751 29.0486 30.6313 29.5501C27.2274 32.6401 21.6186 32.7088 17.6982 30.3091C16.9384 30.5341 16.196 30.6521 15.5001 30.6521C14.8041 30.6521 14.0616 30.5341 13.3019 30.3091C9.38145 32.7089 3.7728 32.6401 0.368808 29.5501C1.85427 29.0387 2.89605 28.1715 3.63092 27.2213C2.98094 27.2463 2.33594 27.1272 1.7833 26.8908C2.71061 26.6458 3.949 25.8826 4.80343 25.0914C5.10241 24.2953 5.24674 23.5837 5.312 23.1323C5.07635 22.6399 4.85727 22.1334 4.67489 21.6001V21.7828H2.74991C1.23118 21.7828 0 20.5427 0 19.0132V15.9666C0 14.914 0.583063 13.9986 1.44164 13.53C1.47046 9.20459 2.72219 5.82645 5.16736 3.49098C7.59275 1.17464 11.0692 0 15.5 0C19.9309 0 23.4073 1.17464 25.8326 3.49108C28.2779 5.8265 29.5295 9.20459 29.5584 13.5301C30.4169 13.9987 31 14.914 31 15.9666V19.0132C31 20.5428 29.7688 21.7828 28.2501 21.7828H26.3253ZM25.1799 16.8704C25.1799 16.1577 25.1437 15.4881 25.0901 14.8392C23.8494 13.6961 21.5797 12.8339 18.7177 12.5298C19.1717 12.9398 19.5616 13.4865 19.7702 14.2671C18.106 13.042 14.6183 12.6626 13.4598 11.3498L13.4609 11.3497C11.6169 10.1204 11.133 8.35947 11.1174 9.0883C11.0427 12.5836 8.58298 15.3085 5.85155 15.6929C5.83427 16.0773 5.82009 16.4653 5.82009 16.8704C5.82009 18.3478 6.05963 19.6942 6.46686 20.9077C8.00111 22.7716 10.5349 23.298 12.7776 23.4376C13.1939 22.7704 14.128 22.3048 15.2159 22.3048C16.6907 22.3048 17.8863 23.1595 17.8863 24.2139C17.8863 25.2684 16.6907 26.1232 15.2159 26.1232C14.0814 26.1232 13.1146 25.6166 12.7276 24.9032C11.1602 24.8114 9.4372 24.5424 7.90154 23.812C10.0613 27.018 13.4091 28.7134 15.4998 28.7134C18.7854 28.7133 25.1799 24.5331 25.1799 16.8704ZM26.8448 13.1971H27.9029C27.7279 5.64909 23.4501 1.6618 15.5 1.6618C7.54987 1.6618 3.27223 5.64909 3.09723 13.1971H4.15521C4.54204 10.6531 5.35965 8.56072 6.60101 6.95204C8.57919 4.38854 11.5733 3.08862 15.5 3.08862C19.4267 3.08862 22.4208 4.38844 24.3991 6.95199C25.6404 8.56072 26.458 10.653 26.8448 13.1971Z" fill="#03A3A2"/>
</svg>
