<svg width="38" height="30" viewBox="0 0 38 30" fill="none" xmlns="http://www.w3.org/2000/svg">
<path d="M22.425 20.2618C24.722 19.2934 26.5353 17.9753 27.8641 16.3069C29.1927 14.6389 29.857 12.8224 29.857 10.8573C29.857 8.89219 29.1927 7.07555 27.8635 5.40745C26.5349 3.73935 24.7219 2.42108 22.4247 1.45248C20.1274 0.484038 17.6288 0 14.9284 0C12.2283 0 9.7297 0.484335 7.43228 1.45248C5.13509 2.42101 3.32201 3.73928 1.99334 5.40745C0.664521 7.07585 0 8.89219 0 10.8574C0 12.5395 0.502606 14.1235 1.50626 15.6079C2.50984 17.0919 3.88827 18.3433 5.64111 19.361C5.49985 19.7006 5.35494 20.0112 5.20647 20.2943C5.05792 20.577 4.88138 20.8489 4.67623 21.1106C4.47124 21.3724 4.31237 21.5773 4.19918 21.7252C4.08606 21.8736 3.90231 22.0826 3.6477 22.3508C3.39317 22.6194 3.23051 22.7961 3.15995 22.8807C3.15995 22.8665 3.13165 22.8985 3.07505 22.9763C3.01838 23.0541 2.98659 23.0892 2.97961 23.0826C2.97248 23.0749 2.94418 23.1103 2.89472 23.1881C2.84525 23.2659 2.82045 23.3047 2.82045 23.3047L2.76734 23.4104C2.7464 23.4531 2.73199 23.4949 2.725 23.5376C2.71787 23.5797 2.71431 23.626 2.71431 23.6753C2.71431 23.7246 2.72129 23.7704 2.7357 23.813C2.764 23.9965 2.84525 24.1447 2.97954 24.2583C3.11375 24.3712 3.25851 24.4276 3.41418 24.4276H3.47784C4.18455 24.3287 4.79254 24.2156 5.30139 24.0882C7.47848 23.523 9.44367 22.6179 11.1966 21.3739C12.4688 21.6002 13.7129 21.7132 14.9286 21.7132C17.6289 21.7142 20.1279 21.2303 22.425 20.2618Z" fill="#03A3A2"/>
<path d="M36.4943 21.0461C37.4983 19.5689 37.9999 17.9826 37.9999 16.286C37.9999 14.5469 37.4692 12.9202 36.4093 11.4077C35.3489 9.89538 33.9067 8.63697 32.0833 7.63324C32.4081 8.69341 32.5707 9.76777 32.5707 10.8565C32.5707 12.7507 32.0978 14.5461 31.15 16.2428C30.2028 17.9389 28.8456 19.4372 27.0786 20.7381C25.4387 21.9255 23.5725 22.8371 21.4801 23.4735C19.3883 24.1094 17.204 24.4277 14.9279 24.4277C14.5039 24.4277 13.8818 24.3997 13.062 24.3433C15.9034 26.2089 19.2398 27.1423 23.0708 27.1423C24.2867 27.1423 25.5306 27.0289 26.803 26.8027C28.5559 28.0472 30.5212 28.9515 32.6981 29.5174C33.207 29.645 33.8149 29.7578 34.5218 29.8566C34.6914 29.8708 34.8472 29.8213 34.9885 29.7082C35.1298 29.5951 35.2218 29.44 35.264 29.2423C35.2574 29.1574 35.264 29.1109 35.2853 29.1041C35.3062 29.0974 35.3026 29.0512 35.2746 28.9665C35.2467 28.8816 35.2324 28.8392 35.2324 28.8392L35.1796 28.7334C35.1649 28.7055 35.1409 28.6663 35.1054 28.617C35.07 28.568 35.0419 28.5321 35.0205 28.511C34.9997 28.4899 34.9681 28.4544 34.9254 28.4053C34.8832 28.3562 34.8548 28.3242 34.8405 28.31C34.7699 28.2251 34.6074 28.0485 34.353 27.7797C34.0983 27.5114 33.9148 27.3029 33.8017 27.1545C33.6886 27.006 33.5295 26.8012 33.3246 26.5394C33.1198 26.2781 32.9428 26.0059 32.7944 25.723C32.646 25.4404 32.5011 25.1292 32.3597 24.7902C34.1127 23.7714 35.4908 22.5239 36.4943 21.0461Z" fill="#03A3A2"/>
</svg>
