<svg width="32" height="32" viewBox="0 0 32 32" fill="none" xmlns="http://www.w3.org/2000/svg">
<path d="M29.4323 21.0043C27.4731 21.0043 25.5494 20.6979 23.7265 20.0954C22.8333 19.7908 21.7352 20.0703 21.19 20.6302L17.592 23.3464C13.4192 21.1189 10.8489 18.5495 8.65189 14.408L11.2881 10.9037C11.9731 10.2197 12.2187 9.22056 11.9244 8.28306C11.3194 6.45057 11.0121 4.52782 11.0121 2.56783C11.0121 1.15191 9.86022 0 8.44439 0H2.56774C1.15191 0 0 1.15191 0 2.56774C0 18.7969 13.2031 31.9999 29.4323 31.9999C30.8481 31.9999 32 30.848 32 29.4322V23.5719C31.9999 22.1562 30.848 21.0043 29.4323 21.0043Z" fill="#03A3A2"/>
</svg>
