<svg width="212" height="64" viewBox="0 0 212 64" fill="none" xmlns="http://www.w3.org/2000/svg">
<path d="M130.157 50.6885C129.801 50.0496 129.303 49.6236 128.663 49.3396C128.022 49.0557 127.168 48.9137 126.243 48.9137H120.621C120.479 48.9137 120.408 48.9137 120.266 48.9847C120.194 49.0557 120.052 49.1267 120.052 49.1977C119.981 49.2687 119.981 49.4106 119.981 49.5526V58.7106C119.981 58.8526 119.981 58.9236 120.052 59.0656C120.123 59.1366 120.194 59.2786 120.337 59.3496C120.408 59.4205 120.55 59.4205 120.693 59.4205H122.116C122.258 59.4205 122.329 59.4205 122.472 59.3496C122.543 59.2786 122.685 59.2076 122.685 59.0656C122.756 58.9946 122.756 58.8526 122.756 58.7106V57.0778H126.314C127.24 57.0778 128.022 56.9358 128.734 56.6519C129.374 56.3679 129.873 55.9419 130.228 55.303C130.584 54.6641 130.727 53.9541 130.727 52.9603C130.727 52.0374 130.513 51.2564 130.157 50.6885ZM127.738 54.0251C127.595 54.3091 127.453 54.5221 127.24 54.6641C127.026 54.8061 126.741 54.877 126.457 54.948C126.172 55.019 125.816 55.019 125.46 55.019H122.756V50.9725H125.46C125.816 50.9725 126.172 50.9725 126.457 51.0435C126.741 51.1145 127.026 51.1854 127.24 51.3274C127.453 51.4694 127.667 51.6824 127.738 51.9664C127.88 52.2503 127.951 52.6053 127.951 53.0312C127.88 53.3862 127.88 53.7412 127.738 54.0251Z" fill="#8FD6C2"/>
<path d="M108.666 48.9137C108.524 48.9137 108.381 48.9137 108.31 48.9847C108.239 49.0557 108.097 49.1267 108.097 49.1977C108.025 49.2687 108.025 49.4106 108.025 49.5526V50.2626C108.025 50.4045 108.025 50.5465 108.097 50.6175C108.168 50.6885 108.239 50.8305 108.31 50.8305C108.381 50.9015 108.524 50.9015 108.666 50.9015H111.939V58.7106C111.939 58.8526 111.939 58.9236 112.01 59.0656C112.082 59.1366 112.153 59.2786 112.295 59.2786C112.366 59.3496 112.509 59.3496 112.651 59.3496H114.074C114.217 59.3496 114.288 59.3496 114.43 59.2786C114.501 59.2076 114.644 59.1366 114.715 59.0656C114.786 58.9946 114.786 58.8526 114.786 58.7106V50.9015H118.059C118.202 50.9015 118.344 50.9015 118.415 50.8305C118.486 50.7595 118.629 50.6885 118.629 50.6175C118.7 50.5465 118.7 50.4045 118.7 50.2626V49.5526C118.7 49.4106 118.7 49.2687 118.629 49.1977C118.557 49.1267 118.486 48.9847 118.415 48.9847C118.344 48.9137 118.202 48.9137 118.059 48.9137H108.666Z" fill="#8FD6C2"/>
<path d="M103.969 58.7816C103.969 58.9236 103.969 58.9945 104.04 59.1365C104.111 59.2075 104.183 59.3495 104.325 59.3495C104.396 59.4205 104.538 59.4205 104.681 59.4205H106.033C106.175 59.4205 106.317 59.4205 106.389 59.3495C106.46 59.2785 106.602 59.2075 106.673 59.0655C106.744 58.9945 106.744 58.8526 106.744 58.7106V49.5526C106.744 49.4106 106.744 49.2686 106.673 49.1976C106.602 49.1266 106.531 48.9846 106.389 48.9136C106.246 48.8427 106.175 48.8427 106.033 48.8427H104.681C104.538 48.8427 104.467 48.8427 104.325 48.9136C104.254 48.9846 104.111 49.0556 104.04 49.1976C103.969 49.2686 103.969 49.4106 103.969 49.5526V52.8892H98.9165V49.5526C98.9165 49.4106 98.9165 49.2686 98.8453 49.1976C98.7741 49.1266 98.703 48.9846 98.5606 48.9136C98.4895 48.8427 98.3472 48.8427 98.2048 48.8427H96.8527C96.7104 48.8427 96.5681 48.8427 96.4969 48.9136C96.3546 48.9846 96.2834 49.0556 96.2123 49.1976C96.1411 49.2686 96.1411 49.4106 96.1411 49.5526V58.7106C96.1411 58.8526 96.1411 58.9235 96.2123 59.0655C96.2834 59.1365 96.3546 59.2785 96.4969 59.3495C96.5681 59.4205 96.7104 59.4205 96.8527 59.4205H98.2048C98.3472 59.4205 98.4183 59.4205 98.5606 59.3495C98.6318 59.2785 98.7741 59.2075 98.8453 59.1365C98.9165 59.0655 98.9165 58.9236 98.9165 58.7816V55.019H103.969V58.7816Z" fill="#8FD6C2"/>
<path d="M94.0778 48.9137H85.5383C85.396 48.9137 85.3248 48.9137 85.1825 48.9847C85.1113 49.0557 84.969 49.1267 84.8978 49.1977C84.8267 49.2687 84.8267 49.4106 84.8267 49.5526V58.7106C84.8267 58.8526 84.8267 58.9946 84.8978 59.0656C84.969 59.2076 85.0401 59.2786 85.1113 59.3496C85.1825 59.4205 85.3248 59.4205 85.4671 59.4205H93.9355C94.0778 59.4205 94.2202 59.4205 94.2913 59.3496C94.3625 59.2786 94.5048 59.2076 94.5048 59.0656C94.576 58.9946 94.576 58.8526 94.576 58.7106V58.0007C94.576 57.8587 94.576 57.7877 94.5048 57.6457C94.4336 57.5747 94.3625 57.4328 94.2913 57.4328C94.2202 57.3618 94.0778 57.3618 93.9355 57.3618H87.5308V55.161H93.0815C93.2239 55.161 93.295 55.161 93.4374 55.09C93.5085 55.019 93.6508 54.948 93.722 54.8061C93.7932 54.7351 93.7932 54.5931 93.7932 54.4511V53.7412C93.7932 53.5992 93.7932 53.5282 93.722 53.3862C93.6508 53.3152 93.5797 53.1732 93.4374 53.1022C93.3662 53.0312 93.2239 53.0312 93.0815 53.0312H87.5308V50.9015H93.9355C94.0778 50.9015 94.149 50.9015 94.2913 50.8305C94.3625 50.7595 94.5048 50.6885 94.576 50.6175C94.6471 50.5465 94.6471 50.4045 94.6471 50.2626V49.5526C94.6471 49.4106 94.6471 49.2687 94.576 49.1977C94.5048 49.1267 94.4336 48.9847 94.2913 48.9847C94.2913 48.9137 94.2201 48.9137 94.0778 48.9137Z" fill="#8FD6C2"/>
<path d="M83.1183 59.4199C83.2607 59.4199 83.3318 59.4199 83.4742 59.3489C83.5453 59.278 83.6876 59.207 83.7588 59.065C83.83 58.994 83.83 58.852 83.83 58.71V58.0001C83.83 57.8581 83.83 57.7161 83.7588 57.6451C83.6876 57.5741 83.6165 57.4322 83.4742 57.4322C83.403 57.3612 83.2607 57.3612 83.1183 57.3612H82.3356V49.552C82.3356 49.41 82.3356 49.268 82.2644 49.1971C82.1932 49.1261 82.1221 48.9841 81.9797 48.9841C81.9086 48.9131 81.7662 48.9131 81.6239 48.9131H80.2007C80.0583 48.9131 79.9872 48.9131 79.8449 48.9841C79.7737 49.0551 79.6314 49.1261 79.5602 49.1971C79.489 49.268 79.489 49.41 79.489 49.552V57.3612H74.5076V49.552C74.5076 49.41 74.5076 49.268 74.4365 49.1971C74.3653 49.1261 74.2942 48.9841 74.1518 48.9841C74.0807 48.9131 73.9383 48.9131 73.796 48.9131H72.3728C72.2304 48.9131 72.1593 48.9131 72.0169 48.9841C71.9458 49.0551 71.8035 49.1261 71.7323 49.1971C71.6611 49.268 71.6611 49.41 71.6611 49.552V58.71C71.6611 58.852 71.6611 58.923 71.7323 59.065C71.8035 59.136 71.8746 59.278 72.0169 59.3489C72.0881 59.4199 72.2304 59.4199 72.3728 59.4199H83.1183Z" fill="#8FD6C2"/>
<path d="M210.714 44.7251C210.856 44.7251 210.927 44.7251 211.069 44.6541C211.141 44.5831 211.283 44.5121 211.354 44.3702C211.425 44.2992 211.425 44.1572 211.425 44.0152V34.8572C211.425 34.7152 211.425 34.6442 211.354 34.5022C211.283 34.4312 211.212 34.2893 211.141 34.2183C211.069 34.1473 210.927 34.1473 210.785 34.1473H208.508C208.365 34.1473 208.294 34.1473 208.152 34.2183C208.009 34.2893 207.867 34.3603 207.796 34.5022C207.654 34.5732 207.582 34.7152 207.511 34.8572L203.313 42.2404V34.8572C203.313 34.7152 203.313 34.6442 203.242 34.5022C203.17 34.4312 203.099 34.2893 202.957 34.2893C202.886 34.2183 202.743 34.2183 202.601 34.2183H201.32C201.178 34.2183 201.035 34.2183 200.964 34.2893C200.893 34.3603 200.751 34.4312 200.751 34.5022C200.68 34.5732 200.68 34.7152 200.68 34.8572V44.0152C200.68 44.1572 200.68 44.2282 200.751 44.3702C200.822 44.4412 200.893 44.5831 200.964 44.6541C201.035 44.7251 201.178 44.7251 201.32 44.7251H203.74C203.882 44.7251 204.024 44.7251 204.167 44.6541C204.309 44.5831 204.451 44.5121 204.522 44.3702C204.665 44.2992 204.736 44.1572 204.807 44.0152L208.65 37.1999V44.0152C208.65 44.1572 208.65 44.2282 208.721 44.3702C208.792 44.4412 208.863 44.5831 209.006 44.6541C209.077 44.7251 209.219 44.7251 209.362 44.7251H210.714Z" fill="#8FD6C2"/>
<path d="M206.017 31.7335C205.732 31.7335 205.59 31.6625 205.376 31.5915C205.234 31.5205 205.091 31.3785 205.02 31.2366C204.949 31.0946 204.878 31.0236 204.807 30.9526C204.736 30.8816 204.593 30.8816 204.522 30.8816H203.953C203.811 30.8816 203.739 30.8816 203.668 30.9526C203.597 31.0236 203.526 31.0946 203.526 31.2366C203.526 31.6625 203.668 32.0885 203.811 32.3724C204.024 32.7274 204.309 32.9404 204.664 33.1533C205.02 33.2953 205.447 33.4373 205.945 33.4373C206.444 33.4373 206.871 33.3663 207.226 33.1533C207.582 33.0114 207.867 32.7274 208.08 32.3724C208.294 32.0175 208.365 31.6625 208.365 31.2366C208.365 31.0946 208.365 31.0236 208.223 30.9526C208.151 30.8816 208.08 30.8816 207.938 30.8816H207.369C207.226 30.8816 207.155 30.8816 207.084 30.9526C207.013 31.0236 206.942 31.0946 206.871 31.2366C206.799 31.3785 206.657 31.5205 206.515 31.5915C206.444 31.6625 206.23 31.7335 206.017 31.7335Z" fill="#8FD6C2"/>
<path d="M197.833 44.7251C197.975 44.7251 198.046 44.7251 198.189 44.6541C198.26 44.5831 198.402 44.5121 198.473 44.3702C198.545 44.2992 198.545 44.1572 198.545 44.0152V34.8572C198.545 34.7152 198.545 34.6442 198.473 34.5022C198.402 34.4312 198.331 34.2893 198.26 34.2183C198.189 34.1473 198.046 34.1473 197.904 34.1473H195.698C195.556 34.1473 195.485 34.1473 195.342 34.2183C195.2 34.2893 195.058 34.3603 194.986 34.5022C194.844 34.5732 194.773 34.7152 194.702 34.8572L190.503 42.2404V34.8572C190.503 34.7152 190.503 34.6442 190.432 34.5022C190.361 34.4312 190.29 34.2893 190.147 34.2893C190.076 34.2183 189.934 34.2183 189.792 34.2183H188.511C188.368 34.2183 188.226 34.2183 188.155 34.2893C188.084 34.3603 187.941 34.4312 187.941 34.5022C187.87 34.5732 187.87 34.7152 187.87 34.8572V44.0152C187.87 44.1572 187.87 44.2282 187.941 44.3702C188.012 44.4412 188.084 44.5831 188.155 44.6541C188.226 44.7251 188.368 44.7251 188.511 44.7251H190.93C191.072 44.7251 191.215 44.7251 191.357 44.6541C191.499 44.5831 191.642 44.5121 191.713 44.3702C191.855 44.2992 191.926 44.1572 191.998 44.0152L195.84 37.1999V44.0152C195.84 44.1572 195.84 44.2282 195.912 44.3702C195.983 44.4412 196.054 44.5831 196.196 44.6541C196.267 44.7251 196.41 44.7251 196.552 44.7251H197.833Z" fill="#8FD6C2"/>
<path d="M177.836 44.7251C177.978 44.7251 178.05 44.7251 178.192 44.6541C178.263 44.5831 178.405 44.5121 178.477 44.4412C178.548 44.3702 178.548 44.2282 178.548 44.0862V40.5366H180.113C180.398 40.5366 180.683 40.6076 180.967 40.7496C181.181 40.8915 181.394 41.0335 181.608 41.2465C181.821 41.4595 181.964 41.7435 182.177 42.0274L183.458 44.0862C183.529 44.2282 183.671 44.3702 183.743 44.4412C183.885 44.5121 184.027 44.6541 184.17 44.6541C184.312 44.7251 184.454 44.7251 184.597 44.7251H186.304C186.447 44.7251 186.518 44.7251 186.589 44.6541C186.66 44.5831 186.66 44.5121 186.66 44.4412C186.66 44.3702 186.589 44.2282 186.518 44.0862L184.668 41.1755C184.597 41.0335 184.454 40.8205 184.312 40.6786C184.17 40.4656 184.027 40.3236 183.814 40.1816C183.671 40.0396 183.458 39.8977 183.316 39.7557C183.102 39.6137 182.96 39.5427 182.746 39.5427C183.102 39.4717 183.387 39.3297 183.6 39.1877C183.814 39.0457 184.027 38.8328 184.17 38.6198C184.312 38.4068 184.454 38.1938 184.597 37.9809L186.233 35.0702C186.376 34.8572 186.376 34.7152 186.376 34.5732C186.304 34.4312 186.233 34.3603 186.02 34.3603H184.312C184.098 34.3603 183.956 34.4312 183.743 34.5022C183.529 34.6442 183.387 34.7862 183.244 35.0702L182.177 36.916C181.964 37.2709 181.75 37.5549 181.537 37.7679C181.323 37.9809 181.11 38.1228 180.896 38.2648C180.683 38.3358 180.398 38.4068 180.113 38.4068H178.548V34.8572C178.548 34.7152 178.548 34.5732 178.477 34.5022C178.405 34.4312 178.334 34.2893 178.192 34.2183C178.121 34.1473 177.978 34.1473 177.836 34.1473H176.413C176.27 34.1473 176.199 34.1473 176.057 34.2183C175.986 34.2893 175.844 34.3603 175.772 34.5022C175.701 34.6442 175.701 34.7152 175.701 34.8572V44.0152C175.701 44.1572 175.701 44.2992 175.772 44.3702C175.844 44.5121 175.915 44.5831 176.057 44.6541C176.128 44.7251 176.27 44.7251 176.413 44.7251H177.836Z" fill="#8FD6C2"/>
<path d="M162.821 39.4716C162.821 40.6785 163.034 41.6724 163.461 42.4533C163.888 43.2342 164.458 43.8022 165.311 44.2281C166.094 44.5831 167.162 44.7961 168.3 44.7961H170.079C170.506 44.7961 170.933 44.7251 171.289 44.6541C171.716 44.5831 172.072 44.4411 172.428 44.2281C172.784 44.0861 173.139 43.8732 173.424 43.5892C173.709 43.3052 173.922 43.0213 174.065 42.6663C174.207 42.3113 174.278 41.9564 174.278 41.5304C174.278 41.3884 174.278 41.2465 174.207 41.1045C174.136 41.0335 174.065 40.8915 173.993 40.8915C173.922 40.8205 173.851 40.8205 173.709 40.7495C173.638 40.7495 173.566 40.7495 173.495 40.7495H172.641C172.499 40.7495 172.357 40.7495 172.214 40.8205C172.072 40.8915 172.001 40.9625 171.858 41.1045C171.716 41.2465 171.645 41.3884 171.574 41.6014C171.432 41.9564 171.147 42.2403 170.862 42.4533C170.578 42.6663 170.222 42.7373 169.724 42.7373H168.229C167.66 42.7373 167.233 42.6663 166.877 42.5953C166.521 42.4533 166.237 42.3113 166.023 42.0274C165.81 41.7434 165.667 41.4594 165.596 41.0335C165.525 40.6075 165.454 40.1106 165.454 39.4716C165.454 38.8327 165.525 38.3358 165.596 37.9098C165.667 37.4839 165.81 37.1289 166.023 36.9159C166.237 36.632 166.521 36.49 166.877 36.348C167.233 36.206 167.66 36.206 168.229 36.206H169.51C169.937 36.206 170.364 36.348 170.649 36.49C170.933 36.7029 171.147 36.9869 171.36 37.3419C171.431 37.5549 171.574 37.6968 171.645 37.8388C171.787 37.9808 171.858 38.0518 172.001 38.1228C172.143 38.1938 172.285 38.1938 172.428 38.1938H173.282C173.353 38.1938 173.424 38.1938 173.495 38.1938C173.566 38.1938 173.638 38.1228 173.78 38.0518C173.851 37.9808 173.922 37.9098 173.993 37.7678C174.065 37.6968 174.065 37.5549 174.065 37.3419C174.065 36.9159 173.993 36.561 173.851 36.206C173.709 35.851 173.495 35.5671 173.211 35.2831C172.926 34.9991 172.641 34.7862 172.214 34.6442C171.858 34.5022 171.503 34.3602 171.076 34.2182C170.649 34.1472 170.293 34.0762 169.866 34.0762H168.229C167.019 34.0762 166.023 34.2892 165.24 34.6442C164.458 34.9991 163.817 35.6381 163.39 36.419C163.034 37.2709 162.821 38.2648 162.821 39.4716Z" fill="#8FD6C2"/>
<path d="M158.48 44.0862C158.48 44.2282 158.48 44.2992 158.551 44.4412C158.622 44.5121 158.693 44.6541 158.836 44.6541C158.907 44.7251 159.049 44.7251 159.191 44.7251H160.543C160.686 44.7251 160.828 44.7251 160.899 44.6541C160.97 44.5831 161.113 44.5121 161.184 44.3702C161.255 44.2992 161.255 44.1572 161.255 44.0152V34.8572C161.255 34.7152 161.255 34.5732 161.184 34.5022C161.113 34.4312 161.042 34.2893 160.899 34.2183C160.757 34.1473 160.686 34.1473 160.543 34.1473H159.191C159.049 34.1473 158.978 34.1473 158.836 34.2183C158.764 34.2893 158.622 34.3603 158.551 34.5022C158.48 34.5732 158.48 34.7152 158.48 34.8572V38.1938H153.427V34.8572C153.427 34.7152 153.427 34.5732 153.356 34.5022C153.285 34.4312 153.214 34.2893 153.071 34.2183C153 34.1473 152.858 34.1473 152.716 34.1473H151.363C151.221 34.1473 151.079 34.1473 151.008 34.2183C150.865 34.2893 150.794 34.3603 150.723 34.5022C150.652 34.5732 150.652 34.7152 150.652 34.8572V44.0152C150.652 44.1572 150.652 44.2282 150.723 44.3702C150.794 44.4412 150.865 44.5831 151.008 44.6541C151.079 44.7251 151.221 44.7251 151.363 44.7251H152.716C152.858 44.7251 152.929 44.7251 153.071 44.6541C153.143 44.5831 153.285 44.5121 153.356 44.4412C153.427 44.3702 153.427 44.2282 153.427 44.0862V40.3236H158.48V44.0862Z" fill="#8FD6C2"/>
<path d="M147.877 44.7251C148.019 44.7251 148.09 44.7251 148.233 44.6541C148.304 44.5831 148.446 44.5121 148.517 44.3702C148.588 44.2992 148.588 44.1572 148.588 44.0152V34.8572C148.588 34.7152 148.588 34.6442 148.517 34.5022C148.446 34.4312 148.375 34.2893 148.304 34.2183C148.233 34.1473 148.09 34.1473 147.948 34.1473H145.742C145.6 34.1473 145.528 34.1473 145.386 34.2183C145.244 34.2893 145.102 34.3603 145.03 34.5022C144.888 34.5732 144.817 34.7152 144.746 34.8572L140.547 42.2404V34.8572C140.547 34.7152 140.547 34.6442 140.476 34.5022C140.405 34.4312 140.334 34.2893 140.191 34.2893C140.12 34.2183 139.978 34.2183 139.835 34.2183H138.555C138.412 34.2183 138.27 34.2183 138.199 34.2893C138.128 34.3603 137.985 34.4312 137.985 34.5022C137.914 34.5732 137.914 34.7152 137.914 34.8572V44.0152C137.914 44.1572 137.914 44.2282 137.985 44.3702C138.056 44.4412 138.128 44.5831 138.199 44.6541C138.27 44.7251 138.412 44.7251 138.555 44.7251H140.974C141.116 44.7251 141.259 44.7251 141.401 44.6541C141.543 44.5831 141.686 44.5121 141.757 44.3702C141.899 44.2992 141.97 44.1572 142.042 44.0152L145.884 37.1999V44.0152C145.884 44.1572 145.884 44.2282 145.955 44.3702C146.027 44.4412 146.098 44.5831 146.24 44.6541C146.311 44.7251 146.454 44.7251 146.596 44.7251H147.877Z" fill="#8FD6C2"/>
<path d="M136.064 44.7251C136.206 44.7251 136.277 44.7251 136.419 44.6541C136.491 44.5831 136.633 44.5121 136.704 44.3702C136.775 44.2992 136.775 44.1572 136.775 44.0152V43.3053C136.775 43.1633 136.775 43.0213 136.704 42.9503C136.633 42.8793 136.562 42.7373 136.419 42.7373C136.348 42.6663 136.206 42.6663 136.064 42.6663H135.21V34.8572C135.21 34.7152 135.21 34.5732 135.138 34.5022C135.067 34.4312 134.996 34.2893 134.854 34.2893C134.783 34.2183 134.64 34.2183 134.498 34.2183H133.075C132.932 34.2183 132.861 34.2183 132.719 34.2893C132.648 34.3602 132.505 34.4312 132.434 34.5022C132.363 34.5732 132.363 34.7152 132.363 34.8572V42.6663H127.382V34.8572C127.382 34.7152 127.382 34.5732 127.311 34.5022C127.239 34.4312 127.168 34.2893 127.026 34.2893C126.955 34.2183 126.812 34.2183 126.67 34.2183H125.247C125.104 34.2183 125.033 34.2183 124.891 34.2893C124.82 34.3602 124.677 34.4312 124.606 34.5022C124.535 34.5732 124.535 34.7152 124.535 34.8572V44.0152C124.535 44.1572 124.535 44.2282 124.606 44.3702C124.677 44.4411 124.749 44.5831 124.891 44.6541C124.962 44.7251 125.104 44.7251 125.247 44.7251H136.064Z" fill="#8FD6C2"/>
<path d="M121.902 44.7251C122.045 44.7251 122.116 44.7251 122.258 44.6541C122.329 44.5831 122.472 44.5121 122.543 44.3702C122.614 44.2992 122.614 44.1572 122.614 44.0152V34.8572C122.614 34.7152 122.614 34.6442 122.543 34.5022C122.472 34.4312 122.4 34.2893 122.329 34.2183C122.258 34.1473 122.116 34.1473 121.973 34.1473H119.767C119.625 34.1473 119.554 34.1473 119.412 34.2183C119.269 34.2893 119.127 34.3603 119.056 34.5022C118.913 34.5732 118.842 34.7152 118.771 34.8572L114.572 42.2404V34.8572C114.572 34.7152 114.572 34.6442 114.501 34.5022C114.43 34.4312 114.359 34.2893 114.217 34.2893C114.145 34.2183 114.003 34.2183 113.861 34.2183H112.58C112.438 34.2183 112.295 34.2183 112.224 34.2893C112.153 34.3603 112.011 34.4312 112.011 34.5022C111.939 34.5732 111.939 34.7152 111.939 34.8572V44.0152C111.939 44.1572 111.939 44.2282 112.011 44.3702C112.082 44.4412 112.153 44.5831 112.224 44.6541C112.295 44.7251 112.438 44.7251 112.58 44.7251H114.999C115.142 44.7251 115.284 44.7251 115.426 44.6541C115.569 44.5831 115.711 44.5121 115.782 44.3702C115.925 44.2992 115.996 44.1572 116.067 44.0152L119.91 37.1999V44.0152C119.91 44.1572 119.91 44.2282 119.981 44.3702C120.052 44.4412 120.123 44.5831 120.265 44.6541C120.337 44.7251 120.479 44.7251 120.621 44.7251H121.902Z" fill="#8FD6C2"/>
<path d="M109.662 34.5022C109.591 34.4312 109.52 34.2893 109.377 34.2893C109.306 34.2183 109.164 34.2183 109.022 34.2183H105.037C104.467 34.2183 103.969 34.2893 103.471 34.3602C102.973 34.4312 102.475 34.5732 102.048 34.7862C101.621 34.9992 101.265 35.2831 100.909 35.6381C100.624 35.9931 100.34 36.49 100.197 37.058L98.8454 42.6663H98.2761C98.1338 42.6663 98.0626 42.6663 97.9203 42.7373C97.8491 42.8083 97.7068 42.8793 97.6356 42.9503C97.5644 43.0213 97.5645 43.1633 97.5645 43.3053V44.0152C97.5645 44.1572 97.5644 44.2282 97.6356 44.3702C97.7068 44.4411 97.7779 44.5831 97.9203 44.6541C97.9914 44.7251 98.1338 44.7251 98.2761 44.7251H109.022C109.164 44.7251 109.235 44.7251 109.377 44.6541C109.449 44.5831 109.591 44.5121 109.662 44.4411C109.733 44.3702 109.733 44.2282 109.733 44.0862V34.8572C109.733 34.7152 109.662 34.6442 109.662 34.5022ZM106.958 42.6663H101.763L102.973 37.6969C103.044 37.4129 103.186 37.1289 103.329 36.916C103.471 36.703 103.684 36.561 103.898 36.419C104.111 36.277 104.396 36.206 104.752 36.206H106.958V42.6663Z" fill="#8FD6C2"/>
<path d="M96.6393 34.1473H88.0998C87.9575 34.1473 87.8863 34.1473 87.744 34.2183C87.6728 34.2893 87.5305 34.3603 87.4593 34.4312C87.3882 34.5022 87.3882 34.6442 87.3882 34.7862V44.0152C87.3882 44.1572 87.3882 44.2992 87.4593 44.3702C87.5305 44.5121 87.6017 44.5831 87.6728 44.6541C87.744 44.7251 87.8863 44.7251 88.0286 44.7251H96.497C96.6393 44.7251 96.7817 44.7251 96.8528 44.6541C96.924 44.5831 97.0663 44.5121 97.0663 44.3702C97.1375 44.2992 97.1375 44.1572 97.1375 44.0152V43.3053C97.1375 43.1633 97.1375 43.0923 97.0663 42.9503C96.9952 42.8793 96.924 42.7373 96.8528 42.7373C96.7817 42.6663 96.6393 42.6663 96.497 42.6663H90.0924V40.4656H95.6431C95.7854 40.4656 95.8566 40.4656 95.9989 40.3946C96.07 40.3236 96.2124 40.2526 96.2835 40.1106C96.3547 40.0396 96.3547 39.8977 96.3547 39.7557V39.0457C96.3547 38.9038 96.3547 38.8328 96.2835 38.6908C96.2124 38.6198 96.1412 38.4778 95.9989 38.4068C95.9277 38.3358 95.7854 38.3358 95.6431 38.3358H90.0924V36.2061H96.497C96.6393 36.2061 96.7105 36.2061 96.8528 36.1351C96.924 36.0641 97.0663 35.9931 97.1375 35.9221C97.2086 35.8511 97.2087 35.7091 97.2087 35.5671V34.8572C97.2087 34.7152 97.2086 34.5732 97.1375 34.5022C97.0663 34.4312 96.9952 34.2893 96.8528 34.2893C96.8528 34.2183 96.7105 34.1473 96.6393 34.1473Z" fill="#8FD6C2"/>
<path d="M79.062 44.7251C79.2043 44.7251 79.3466 44.7251 79.4178 44.6541C79.5601 44.5831 79.6313 44.5121 79.7736 44.4412C79.8447 44.3702 79.9159 44.2282 79.9871 44.0862L82.6201 36.845V44.0152C82.6201 44.1572 82.6201 44.2992 82.6913 44.3702C82.7624 44.5121 82.8336 44.5831 82.9047 44.6541C82.9759 44.7251 83.1182 44.7251 83.2606 44.7251H84.6127C84.755 44.7251 84.8973 44.7251 84.9685 44.6541C85.0396 44.5831 85.182 44.5121 85.182 44.3702C85.2531 44.2992 85.2531 44.1572 85.2531 44.0152V34.8572C85.2531 34.7152 85.2531 34.5732 85.182 34.5022C85.1108 34.3603 85.0396 34.2893 84.9685 34.2183C84.8973 34.1473 84.755 34.1473 84.6127 34.1473H81.6238C81.4815 34.1473 81.3392 34.1473 81.268 34.2183C81.1257 34.2893 81.0545 34.3603 80.9834 34.5022C80.9122 34.5732 80.841 34.7152 80.7699 34.8572L78.5638 41.1755L76.3578 34.8572C76.2866 34.7152 76.2154 34.6442 76.1443 34.5022C76.0731 34.4312 75.9308 34.2893 75.8596 34.2183C75.7173 34.1473 75.6461 34.1473 75.5038 34.1473H72.515C72.3727 34.1473 72.3015 34.1473 72.1592 34.2183C72.088 34.2893 71.9457 34.3603 71.9457 34.5022C71.8745 34.5732 71.8745 34.7152 71.8745 34.8572V44.0152C71.8745 44.1572 71.8745 44.2992 71.9457 44.3702C72.0168 44.5121 72.088 44.5831 72.1592 44.6541C72.2303 44.7251 72.3727 44.7251 72.515 44.7251H73.8671C74.0094 44.7251 74.1517 44.7251 74.2229 44.6541C74.294 44.5831 74.4364 44.5121 74.4364 44.3702C74.5075 44.2992 74.5075 44.1572 74.5075 44.0152V36.845L77.1406 44.0862C77.2117 44.2282 77.2829 44.2992 77.354 44.4412C77.4252 44.5121 77.5675 44.6541 77.7099 44.6541C77.8522 44.7251 77.9233 44.7251 78.0657 44.7251H79.062Z" fill="#8FD6C2"/>
<path d="M210.286 28.6809C210.428 28.6809 210.499 28.6809 210.642 28.6099C210.713 28.5389 210.855 28.4679 210.926 28.3259C210.997 28.2549 210.997 28.113 210.997 27.971V18.813C210.997 18.671 210.997 18.6 210.926 18.458C210.855 18.387 210.784 18.245 210.713 18.174C210.642 18.103 210.499 18.103 210.357 18.103H208.151C208.009 18.103 207.938 18.103 207.795 18.174C207.653 18.245 207.582 18.316 207.439 18.458C207.297 18.529 207.226 18.671 207.155 18.813L202.956 26.1252V18.813C202.956 18.671 202.956 18.6 202.885 18.458C202.814 18.387 202.743 18.245 202.6 18.245C202.529 18.174 202.387 18.174 202.244 18.174H200.964C200.821 18.174 200.75 18.174 200.608 18.245C200.537 18.316 200.394 18.387 200.394 18.458C200.323 18.529 200.323 18.671 200.323 18.813V27.971C200.323 28.113 200.323 28.1839 200.394 28.3259C200.465 28.3969 200.537 28.5389 200.608 28.6099C200.679 28.6809 200.821 28.6809 200.964 28.6809H203.383C203.525 28.6809 203.668 28.6809 203.81 28.6099C203.952 28.5389 204.095 28.4679 204.166 28.3259C204.308 28.2549 204.379 28.113 204.451 27.971L208.293 21.1557V27.971C208.293 28.113 208.293 28.1839 208.364 28.3259C208.436 28.3969 208.507 28.5389 208.649 28.6099C208.72 28.6809 208.863 28.6809 209.005 28.6809H210.286ZM205.66 15.6893C205.376 15.6893 205.233 15.6183 205.02 15.5473C204.878 15.4763 204.735 15.3343 204.664 15.1924C204.593 15.0504 204.522 14.9794 204.451 14.9084C204.379 14.8374 204.237 14.8374 204.166 14.8374H203.597C203.454 14.8374 203.383 14.8374 203.312 14.9084C203.241 14.9794 203.17 15.0504 203.17 15.1924C203.17 15.6183 203.312 16.0443 203.454 16.3282C203.668 16.6832 203.952 16.8962 204.308 17.1092C204.664 17.2511 205.091 17.3931 205.589 17.3931C206.087 17.3931 206.514 17.3221 206.87 17.1092C207.226 16.9672 207.511 16.6832 207.724 16.3282C207.938 15.9733 208.009 15.6183 208.009 15.1924C208.009 15.0504 208.009 14.9794 207.866 14.9084C207.795 14.8374 207.724 14.8374 207.582 14.8374H207.084C206.941 14.8374 206.87 14.8374 206.799 14.9084C206.728 14.9794 206.657 15.0504 206.585 15.1924C206.514 15.3343 206.372 15.4763 206.23 15.5473C206.087 15.6183 205.874 15.6893 205.66 15.6893ZM196.907 28.6809C197.05 28.6809 197.121 28.6809 197.263 28.6099C197.334 28.5389 197.477 28.4679 197.548 28.3259C197.619 28.2549 197.619 28.113 197.619 27.971V18.813C197.619 18.671 197.619 18.6 197.548 18.458C197.477 18.387 197.405 18.245 197.334 18.174C197.263 18.103 197.121 18.103 196.978 18.103H194.772C194.63 18.103 194.559 18.103 194.417 18.174C194.274 18.245 194.203 18.316 194.061 18.458C193.918 18.529 193.847 18.671 193.776 18.813L189.577 26.1962V18.813C189.577 18.671 189.577 18.6 189.506 18.458C189.435 18.387 189.364 18.245 189.222 18.245C189.151 18.174 189.008 18.174 188.866 18.174H187.585C187.443 18.174 187.371 18.174 187.229 18.245C187.158 18.316 187.016 18.387 187.016 18.458C186.944 18.529 186.944 18.671 186.944 18.813V27.971C186.944 28.113 186.944 28.1839 187.016 28.3259C187.087 28.3969 187.158 28.5389 187.229 28.6099C187.3 28.6809 187.443 28.6809 187.585 28.6809H190.004C190.147 28.6809 190.289 28.6809 190.431 28.6099C190.574 28.5389 190.716 28.4679 190.787 28.3259C190.93 28.2549 191.001 28.113 191.072 27.971L194.915 21.1557V27.971C194.915 28.113 194.915 28.1839 194.986 28.3259C195.057 28.3969 195.128 28.5389 195.271 28.6099C195.342 28.6809 195.484 28.6809 195.626 28.6809H196.907ZM176.412 28.6809C176.555 28.6809 176.626 28.6809 176.768 28.6099C176.839 28.5389 176.982 28.4679 177.053 28.3969C177.124 28.3259 177.124 28.1839 177.124 28.042V24.4924H178.69C178.974 24.4924 179.259 24.5633 179.544 24.7053C179.757 24.8473 179.971 24.9893 180.184 25.2023C180.397 25.4152 180.54 25.6992 180.753 25.9832L182.034 28.042C182.105 28.1839 182.248 28.2549 182.319 28.3969C182.461 28.4679 182.604 28.6099 182.746 28.6099C182.888 28.6809 183.031 28.6809 183.173 28.6809H184.881C185.023 28.6809 185.094 28.6809 185.165 28.6099C185.237 28.5389 185.237 28.4679 185.237 28.3969C185.237 28.3259 185.165 28.1839 185.094 28.042L183.244 25.1313C183.173 24.9893 183.031 24.7763 182.888 24.6343C182.746 24.4214 182.604 24.2794 182.39 24.1374C182.248 23.9954 182.034 23.8534 181.892 23.7114C181.678 23.5695 181.536 23.4985 181.323 23.4985C181.678 23.4275 181.963 23.2855 182.177 23.1435C182.39 23.0015 182.604 22.7885 182.746 22.5756C182.888 22.3626 183.031 22.1496 183.173 21.9366L184.738 19.0259C184.881 18.813 184.881 18.671 184.881 18.529C184.81 18.387 184.738 18.316 184.525 18.316H182.817C182.604 18.316 182.461 18.387 182.248 18.458C182.034 18.6 181.892 18.742 181.75 19.0259L180.611 21.0847C180.398 21.4397 180.184 21.7237 179.971 21.9366C179.757 22.1496 179.544 22.2916 179.33 22.4336C179.117 22.5046 178.832 22.5756 178.547 22.5756H176.982V19.0259C176.982 18.884 176.982 18.742 176.911 18.671C176.839 18.6 176.768 18.458 176.626 18.387C176.555 18.316 176.412 18.316 176.27 18.316H174.918C174.776 18.316 174.704 18.316 174.562 18.387C174.491 18.458 174.349 18.529 174.277 18.671C174.206 18.813 174.206 18.884 174.206 19.0259V28.1839C174.206 28.3259 174.206 28.4679 174.277 28.5389C174.349 28.6809 174.42 28.7519 174.562 28.8229C174.633 28.8939 174.776 28.8939 174.918 28.8939H176.412V28.6809ZM160.828 23.4275C160.828 24.6343 161.041 25.6282 161.468 26.4091C161.895 27.1901 162.464 27.758 163.318 28.1839C164.101 28.5389 165.169 28.7519 166.307 28.7519H168.086C168.513 28.7519 168.94 28.6809 169.296 28.6099C169.723 28.5389 170.079 28.3969 170.435 28.1839C170.791 28.042 171.146 27.829 171.36 27.545C171.644 27.261 171.858 26.9771 172 26.6221C172.143 26.2672 172.214 25.9122 172.214 25.4862C172.214 25.3443 172.214 25.2023 172.143 25.0603C172.071 24.9893 172 24.8473 171.929 24.8473C171.858 24.7763 171.787 24.7763 171.716 24.7053C171.644 24.7053 171.573 24.7053 171.502 24.7053H170.648C170.506 24.7053 170.364 24.7053 170.221 24.7763C170.079 24.8473 170.008 24.9183 169.865 25.0603C169.723 25.2023 169.652 25.3443 169.581 25.5572C169.438 25.9122 169.154 26.1962 168.869 26.4091C168.584 26.6221 168.229 26.6931 167.731 26.6931H166.236C165.667 26.6931 165.24 26.6221 164.884 26.5511C164.528 26.4091 164.244 26.2672 164.03 25.9832C163.817 25.6992 163.674 25.4152 163.603 24.9893C163.532 24.5633 163.461 24.0664 163.461 23.4275C163.461 22.7885 163.532 22.2916 163.603 21.8656C163.674 21.4397 163.817 21.0847 164.03 20.8717C164.244 20.5878 164.528 20.4458 164.884 20.3038C165.24 20.1618 165.667 20.1618 166.236 20.1618H167.517C167.944 20.1618 168.371 20.3038 168.656 20.4458C168.94 20.6588 169.154 20.9427 169.367 21.2977C169.438 21.5107 169.581 21.6527 169.652 21.7946C169.794 21.9366 169.865 22.0076 170.008 22.0786C170.15 22.1496 170.292 22.1496 170.435 22.1496H171.289C171.36 22.1496 171.431 22.1496 171.502 22.1496C171.573 22.1496 171.644 22.0786 171.716 22.0076C171.787 21.9366 171.858 21.8656 171.929 21.7946C172 21.7237 172 21.5817 172 21.3687C172 20.9427 171.929 20.5878 171.787 20.2328C171.644 19.8779 171.431 19.5939 171.146 19.3099C170.862 19.0259 170.577 18.813 170.221 18.671C169.865 18.529 169.51 18.387 169.083 18.245C168.656 18.174 168.3 18.103 167.873 18.103H166.236C165.026 18.103 164.03 18.316 163.247 18.671C162.464 19.0259 161.824 19.6649 161.397 20.4458C161.041 21.2267 160.828 22.2206 160.828 23.4275ZM158.835 18.103H150.367C150.224 18.103 150.153 18.103 150.011 18.174C149.94 18.245 149.798 18.316 149.726 18.387C149.655 18.458 149.655 18.6 149.655 18.742V27.9C149.655 28.042 149.655 28.1839 149.726 28.2549C149.798 28.3969 149.869 28.4679 149.94 28.5389C150.011 28.6099 150.153 28.6099 150.296 28.6099H158.764C158.906 28.6099 158.978 28.6099 159.12 28.5389C159.191 28.4679 159.333 28.3969 159.333 28.2549C159.404 28.1839 159.404 28.042 159.404 27.9V27.1901C159.404 27.0481 159.404 26.9771 159.333 26.8351C159.262 26.7641 159.191 26.6221 159.12 26.6221C159.049 26.5511 158.906 26.5511 158.764 26.5511H152.359V24.3504H157.91C158.052 24.3504 158.124 24.3504 158.266 24.2794C158.337 24.2084 158.479 24.1374 158.551 23.9954C158.622 23.9244 158.622 23.7824 158.622 23.6404V22.9305C158.622 22.7885 158.622 22.7175 158.551 22.5756C158.479 22.5046 158.408 22.3626 158.266 22.2916C158.195 22.2206 158.052 22.2206 157.91 22.2206H152.359V20.0908H158.764C158.906 20.0908 158.978 20.0908 159.12 20.0198C159.191 19.9488 159.333 19.8779 159.404 19.8069C159.476 19.7359 159.476 19.5939 159.476 19.4519V18.742C159.476 18.6 159.476 18.458 159.404 18.387C159.333 18.316 159.262 18.174 159.12 18.174C159.12 18.174 158.978 18.103 158.835 18.103ZM136.846 21.2977C136.846 21.9366 136.988 22.5756 137.202 23.0725C137.415 23.5695 137.771 23.9954 138.127 24.2794C138.554 24.5633 138.981 24.8473 139.55 24.9893C140.119 25.1313 140.689 25.2023 141.4 25.2023H144.247V28.042C144.247 28.1839 144.247 28.2549 144.318 28.3969C144.389 28.4679 144.46 28.6099 144.603 28.6099C144.674 28.6809 144.816 28.6809 144.958 28.6809H146.311C146.453 28.6809 146.595 28.6809 146.666 28.6099C146.738 28.5389 146.88 28.4679 146.951 28.3259C147.022 28.2549 147.022 28.113 147.022 27.971V18.813C147.022 18.671 147.022 18.529 146.951 18.458C146.88 18.387 146.809 18.245 146.666 18.245C146.524 18.174 146.453 18.174 146.311 18.174H144.958C144.816 18.174 144.745 18.174 144.603 18.245C144.531 18.316 144.389 18.387 144.318 18.458C144.247 18.529 144.247 18.671 144.247 18.813V23.0725H141.4C140.831 23.0725 140.404 22.9305 140.048 22.6466C139.764 22.3626 139.621 21.9366 139.621 21.2977V18.813C139.621 18.671 139.621 18.529 139.55 18.458C139.479 18.387 139.408 18.245 139.265 18.245C139.194 18.174 139.052 18.174 138.91 18.174H137.558C137.415 18.174 137.273 18.174 137.202 18.245C137.059 18.316 136.988 18.387 136.917 18.529C136.846 18.6 136.846 18.742 136.846 18.884V21.2977ZM133.928 28.6809C134.071 28.6809 134.142 28.6809 134.284 28.6099C134.355 28.5389 134.498 28.4679 134.569 28.3259C134.64 28.2549 134.64 28.113 134.64 27.971V18.813C134.64 18.671 134.64 18.6 134.569 18.458C134.498 18.387 134.426 18.245 134.355 18.174C134.284 18.103 134.142 18.103 133.999 18.103H131.793C131.651 18.103 131.58 18.103 131.438 18.174C131.295 18.245 131.224 18.316 131.082 18.458C130.939 18.529 130.868 18.671 130.797 18.813L126.598 26.1962V18.813C126.598 18.671 126.598 18.6 126.527 18.458C126.456 18.387 126.385 18.245 126.243 18.245C126.171 18.174 126.029 18.174 125.887 18.174H124.535C124.392 18.174 124.321 18.174 124.179 18.245C124.108 18.316 123.965 18.387 123.965 18.458C123.894 18.529 123.894 18.671 123.894 18.813V27.971C123.894 28.113 123.894 28.1839 123.965 28.3259C124.037 28.3969 124.108 28.5389 124.179 28.6099C124.25 28.6809 124.392 28.6809 124.535 28.6809H126.954C127.097 28.6809 127.239 28.6809 127.381 28.6099C127.524 28.5389 127.666 28.4679 127.737 28.3259C127.879 28.2549 127.951 28.113 128.022 27.971L131.864 21.1557V27.971C131.864 28.113 131.864 28.1839 131.936 28.3259C132.007 28.3969 132.078 28.5389 132.22 28.6099C132.291 28.6809 132.434 28.6809 132.576 28.6809H133.928ZM118.415 28.042C118.415 28.1839 118.415 28.2549 118.486 28.3969C118.557 28.4679 118.628 28.6099 118.771 28.6099C118.842 28.6809 118.984 28.6809 119.126 28.6809H120.478C120.621 28.6809 120.763 28.6809 120.834 28.6099C120.905 28.5389 121.048 28.4679 121.119 28.3259C121.19 28.2549 121.19 28.113 121.19 27.971V18.813C121.19 18.671 121.19 18.529 121.119 18.458C121.048 18.387 120.977 18.245 120.834 18.245C120.692 18.174 120.621 18.174 120.478 18.174H119.126C118.984 18.174 118.913 18.174 118.771 18.245C118.699 18.316 118.557 18.387 118.486 18.458C118.415 18.529 118.415 18.671 118.415 18.813V22.1496H113.362V18.813C113.362 18.671 113.362 18.529 113.291 18.458C113.22 18.387 113.149 18.245 113.006 18.245C112.935 18.174 112.793 18.174 112.651 18.174H111.298C111.156 18.174 111.014 18.174 110.943 18.245C110.8 18.316 110.729 18.387 110.658 18.458C110.587 18.529 110.587 18.671 110.587 18.813V27.971C110.587 28.113 110.587 28.1839 110.658 28.3259C110.729 28.3969 110.8 28.5389 110.943 28.6099C111.014 28.6809 111.156 28.6809 111.298 28.6809H112.651C112.793 28.6809 112.864 28.6809 113.006 28.6099C113.078 28.5389 113.22 28.4679 113.291 28.3969C113.362 28.3259 113.362 28.1839 113.362 28.042V24.2794H118.415V28.042ZM107.242 28.6809C107.384 28.6809 107.456 28.6809 107.598 28.6099C107.669 28.5389 107.811 28.4679 107.883 28.3259C107.954 28.2549 107.954 28.113 107.954 27.971V18.813C107.954 18.671 107.954 18.6 107.883 18.458C107.811 18.387 107.74 18.245 107.669 18.174C107.598 18.103 107.456 18.103 107.313 18.103H105.107C104.965 18.103 104.894 18.103 104.751 18.174C104.609 18.245 104.538 18.316 104.396 18.458C104.253 18.529 104.182 18.671 104.111 18.813L99.9124 26.1962V18.813C99.9124 18.671 99.9124 18.6 99.8412 18.458C99.7701 18.387 99.6989 18.245 99.5566 18.245C99.4854 18.174 99.3431 18.174 99.2008 18.174H97.9198C97.7775 18.174 97.7064 18.174 97.564 18.245C97.4929 18.316 97.3505 18.387 97.3505 18.458C97.2794 18.529 97.2794 18.671 97.2794 18.813V27.971C97.2794 28.113 97.2794 28.1839 97.3505 28.3259C97.4217 28.3969 97.4929 28.5389 97.564 28.6099C97.6352 28.6809 97.7775 28.6809 97.9198 28.6809H100.339C100.482 28.6809 100.624 28.6809 100.766 28.6099C100.909 28.5389 101.051 28.4679 101.122 28.3259C101.264 28.2549 101.336 28.113 101.407 27.971L105.25 21.1557V27.971C105.25 28.113 105.25 28.1839 105.321 28.3259C105.392 28.3969 105.463 28.5389 105.605 28.6099C105.677 28.6809 105.819 28.6809 105.961 28.6809H107.242ZM94.504 27.971V18.813C94.504 18.671 94.504 18.6 94.4329 18.458C94.3617 18.387 94.2905 18.245 94.2194 18.174C94.1482 18.103 94.0059 18.103 93.9347 18.103H90.2343C89.665 18.103 89.1668 18.103 88.6687 18.245C88.1705 18.316 87.6724 18.458 87.2454 18.671C86.8184 18.884 86.3915 19.1679 86.1068 19.5229C85.751 19.8779 85.5375 20.3748 85.3952 20.9427L83.545 28.042C83.545 28.1839 83.545 28.2549 83.545 28.3259C83.545 28.3969 83.6161 28.4679 83.7584 28.5389C83.8296 28.6099 83.9719 28.6099 84.0431 28.6099H85.5375C85.6798 28.6099 85.8222 28.6099 85.8933 28.5389C86.0356 28.4679 86.1068 28.3969 86.178 28.3259C86.2491 28.2549 86.3203 28.113 86.3915 27.971L88.0994 21.6527C88.1705 21.3687 88.3129 21.0847 88.5264 20.8717C88.7398 20.6588 88.9533 20.4458 89.1668 20.3748C89.4515 20.2328 89.7361 20.1618 90.0208 20.1618H91.7998V27.971C91.7998 28.113 91.7998 28.2549 91.871 28.3259C91.9422 28.3969 92.0133 28.5389 92.1557 28.5389C92.2268 28.6099 92.3691 28.6099 92.5115 28.6099H93.9347C94.077 28.6099 94.1482 28.6099 94.2905 28.5389C94.3617 28.4679 94.504 28.3969 94.504 28.3259C94.504 28.2549 94.504 28.113 94.504 27.971ZM73.8668 28.6809C74.0091 28.6809 74.0803 28.6809 74.2226 28.6099C74.2938 28.5389 74.4361 28.4679 74.5073 28.3969C74.5784 28.3259 74.5784 28.1839 74.5784 28.042V24.4924H76.144C76.4287 24.4924 76.7133 24.5633 76.998 24.7053C77.2115 24.8473 77.425 24.9893 77.6384 25.2023C77.8519 25.4152 77.9943 25.6992 78.2077 25.9832L79.4887 28.042C79.5598 28.1839 79.7022 28.2549 79.7733 28.3969C79.9157 28.4679 80.058 28.6099 80.2003 28.6099C80.3426 28.6809 80.485 28.6809 80.6273 28.6809H82.3352C82.4775 28.6809 82.5487 28.6809 82.6198 28.6099C82.691 28.5389 82.691 28.4679 82.691 28.3969C82.691 28.3259 82.6198 28.1839 82.5487 28.042L80.6984 25.1313C80.6273 24.9893 80.485 24.7763 80.3426 24.6343C80.2003 24.4214 80.058 24.2794 79.8445 24.1374C79.7022 23.9954 79.4887 23.8534 79.3463 23.7114C79.1329 23.5695 78.9905 23.4985 78.777 23.4985C79.1329 23.4275 79.4175 23.2855 79.631 23.1435C79.8445 23.0015 80.058 22.7885 80.2003 22.5756C80.3426 22.3626 80.485 22.1496 80.6273 21.9366L82.1929 19.0259C82.3352 18.813 82.3352 18.671 82.3352 18.529C82.264 18.387 82.1929 18.316 81.9794 18.316H80.4138C80.2003 18.316 80.058 18.387 79.8445 18.458C79.631 18.6 79.4887 18.742 79.3463 19.0259L78.2077 21.0847C77.9943 21.4397 77.7808 21.7237 77.5673 21.9366C77.3538 22.1496 77.1403 22.2916 76.9268 22.4336C76.7133 22.5046 76.4287 22.5756 76.144 22.5756H74.5784V19.0259C74.5784 18.884 74.5784 18.742 74.5073 18.671C74.4361 18.6 74.365 18.458 74.2226 18.387C74.1515 18.316 74.0091 18.316 73.8668 18.316H72.4436C72.3012 18.316 72.2301 18.316 72.0877 18.387C72.0166 18.458 71.8743 18.529 71.8031 18.671C71.7319 18.813 71.7319 18.884 71.7319 19.0259V28.1839C71.7319 28.3259 71.7319 28.4679 71.8031 28.5389C71.8743 28.6809 71.9454 28.7519 72.0877 28.8229C72.1589 28.8939 72.3012 28.8939 72.4436 28.8939H73.8668V28.6809Z" fill="#477A6A"/>
<path d="M147.022 13.9145C147.165 13.9145 147.236 13.9145 147.378 13.8435C147.449 13.7725 147.592 13.7015 147.663 13.5595C147.734 13.4885 147.734 13.3465 147.734 13.2046V4.11755C147.734 3.97557 147.734 3.90457 147.663 3.76259C147.592 3.6916 147.52 3.54961 147.449 3.47862C147.378 3.40763 147.236 3.40763 147.093 3.40763H144.887C144.745 3.40763 144.674 3.40763 144.532 3.47862C144.389 3.54961 144.247 3.62061 144.176 3.76259C144.033 3.83358 143.962 3.97557 143.891 4.11755L139.693 11.5007V4.04656C139.693 3.90457 139.693 3.83358 139.621 3.6916C139.55 3.6206 139.479 3.47862 139.337 3.47862C139.266 3.40763 139.123 3.40763 138.981 3.40763H137.7C137.558 3.40763 137.415 3.40763 137.344 3.47862C137.273 3.54961 137.131 3.6206 137.131 3.6916C137.059 3.76259 137.06 3.90457 137.06 4.04656V13.2046C137.06 13.3465 137.059 13.4175 137.131 13.5595C137.202 13.6305 137.273 13.7725 137.344 13.8435C137.415 13.9145 137.558 13.9145 137.7 13.9145H140.119C140.262 13.9145 140.404 13.9145 140.546 13.8435C140.689 13.7725 140.831 13.7015 140.902 13.5595C141.045 13.4885 141.116 13.3465 141.187 13.2046L145.03 6.3893V13.2046C145.03 13.3465 145.03 13.4175 145.101 13.5595C145.172 13.6305 145.243 13.7725 145.386 13.8435C145.457 13.9145 145.599 13.9145 145.741 13.9145H147.022ZM142.326 0.922899C142.041 0.922899 141.899 0.851907 141.685 0.780915C141.543 0.709923 141.4 0.567938 141.329 0.425954C141.258 0.283969 141.187 0.212977 141.116 0.141985C141.116 0 140.973 0 140.831 0H140.262C140.119 0 140.048 0 139.977 0.0709923C139.906 0.141985 139.835 0.212977 139.835 0.354961C139.835 0.780915 139.977 1.20687 140.119 1.49084C140.333 1.8458 140.618 2.05878 140.973 2.27175C141.329 2.41374 141.756 2.55572 142.254 2.55572C142.753 2.55572 143.179 2.48473 143.535 2.27175C143.891 2.12977 144.176 1.8458 144.389 1.49084C144.603 1.13588 144.674 0.780915 144.674 0.354961C144.674 0.212977 144.674 0.141985 144.532 0.0709923C144.603 0 144.532 0 144.389 0H143.82C143.678 0 143.606 0 143.535 0.0709923C143.464 0.141985 143.393 0.212977 143.322 0.354961C143.251 0.496946 143.108 0.63893 142.966 0.709923C142.824 0.851907 142.61 0.922899 142.326 0.922899ZM132.007 13.2756C132.007 13.4175 132.007 13.4885 132.078 13.6305C132.149 13.7015 132.22 13.8435 132.363 13.8435C132.434 13.9145 132.576 13.9145 132.719 13.9145H134.142C134.284 13.9145 134.426 13.9145 134.498 13.8435C134.569 13.7725 134.711 13.7015 134.782 13.5595C134.853 13.4885 134.853 13.3465 134.853 13.2046V4.04656C134.853 3.90457 134.853 3.76259 134.782 3.6916C134.711 3.6206 134.64 3.47862 134.498 3.40763C134.355 3.33664 134.284 3.33664 134.142 3.33664H132.719C132.576 3.33664 132.505 3.33664 132.363 3.40763C132.292 3.47862 132.149 3.54961 132.078 3.6916C132.007 3.76259 132.007 3.90457 132.007 4.04656V13.2756ZM123.467 6.95724V4.04656C123.467 3.90457 123.467 3.76259 123.396 3.6916C123.325 3.6206 123.254 3.47862 123.112 3.40763C123.04 3.33664 122.898 3.33664 122.756 3.33664H121.333C121.19 3.33664 121.048 3.33664 120.977 3.40763C120.906 3.47862 120.763 3.54961 120.763 3.6916C120.692 3.76259 120.692 3.90457 120.692 4.04656V13.2046C120.692 13.3465 120.692 13.4175 120.763 13.5595C120.834 13.6305 120.906 13.7725 120.977 13.8435C121.048 13.9145 121.19 13.9145 121.333 13.9145H126.456C127.026 13.9145 127.524 13.8435 128.022 13.7015C128.52 13.5595 128.947 13.3465 129.303 13.0626C129.659 12.7786 129.943 12.4236 130.157 11.9977C130.37 11.5717 130.441 11.0748 130.441 10.5069C130.441 9.93892 130.299 9.44197 130.157 9.01602C129.943 8.59006 129.659 8.2351 129.303 7.95113C128.947 7.66716 128.52 7.45419 128.022 7.3122C127.524 7.17022 127.026 7.09923 126.456 7.09923H123.467V6.95724ZM126.527 9.08701C126.954 9.08701 127.239 9.22899 127.453 9.44197C127.666 9.65495 127.737 10.0099 127.737 10.5069C127.737 10.9328 127.666 11.2878 127.453 11.5717C127.239 11.7847 126.954 11.9267 126.527 11.9267H123.467V9.158H126.527V9.08701ZM115.213 9.44197C115.497 9.44197 115.711 9.51296 115.853 9.58395C115.995 9.65495 116.138 9.86792 116.28 10.0099C116.351 10.2229 116.422 10.4359 116.422 10.6488C116.422 10.8618 116.351 11.1458 116.28 11.2878C116.209 11.5007 116.066 11.6427 115.853 11.7137C115.711 11.7847 115.426 11.8557 115.213 11.8557H111.014V9.29999H115.213V9.44197ZM114.999 5.39541C115.284 5.39541 115.568 5.4664 115.711 5.67938C115.924 5.89236 115.995 6.10533 115.995 6.4603C115.995 6.81526 115.924 7.09923 115.711 7.24121C115.497 7.45419 115.284 7.52518 114.999 7.52518H111.014V5.39541H114.999ZM108.239 13.2756C108.239 13.4175 108.239 13.4885 108.31 13.6305C108.381 13.7015 108.452 13.8435 108.523 13.9145C108.594 13.9855 108.737 13.9855 108.879 13.9855H115.213C115.639 13.9855 115.995 13.9145 116.422 13.8435C116.778 13.7725 117.134 13.6305 117.49 13.4885C117.846 13.3465 118.13 13.1336 118.344 12.8496C118.557 12.5656 118.771 12.2817 118.913 11.9977C119.055 11.6427 119.126 11.2878 119.126 10.8618C119.126 10.5069 119.055 10.2229 118.984 9.93892C118.913 9.65495 118.699 9.37098 118.486 9.08701C118.273 8.80304 117.988 8.59006 117.703 8.44808C117.917 8.2351 118.13 8.02213 118.273 7.80915C118.415 7.59617 118.557 7.38319 118.557 7.17022C118.628 6.95724 118.628 6.74426 118.628 6.4603C118.628 6.03434 118.557 5.60839 118.415 5.32442C118.273 4.96946 118.059 4.68549 117.846 4.47251C117.561 4.25954 117.276 4.04656 116.992 3.90457C116.636 3.76259 116.351 3.6206 115.924 3.54961C115.568 3.47862 115.213 3.47862 114.786 3.47862H108.808C108.666 3.47862 108.523 3.47862 108.452 3.54961C108.381 3.6206 108.239 3.6916 108.239 3.83358C108.167 3.90457 108.167 4.04656 108.167 4.18854V13.2756H108.239ZM96.7814 3.40763C96.639 3.40763 96.5679 3.40763 96.4255 3.47862C96.3544 3.54961 96.2121 3.6206 96.2121 3.6916C96.1409 3.76259 96.1409 3.90457 96.1409 4.04656V13.2046C96.1409 13.3465 96.1409 13.4175 96.2121 13.5595C96.2832 13.6305 96.3544 13.7725 96.4967 13.8435C96.5679 13.9145 96.7102 13.9145 96.8525 13.9145H98.2758C98.4181 13.9145 98.4893 13.9145 98.6316 13.8435C98.7028 13.7725 98.8451 13.7015 98.8451 13.5595C98.9162 13.4885 98.9162 13.3465 98.9162 13.2046V11.5717H102.474C103.399 11.5717 104.182 11.4298 104.894 11.1458C105.534 10.8618 106.033 10.4359 106.388 9.79693C106.744 9.158 106.886 8.44808 106.886 7.45419C106.886 6.53129 106.673 5.75037 106.388 5.11144C106.033 4.47251 105.534 4.04656 104.894 3.76259C104.253 3.47862 103.399 3.33664 102.474 3.33664H96.7814V3.40763ZM101.549 5.4664C101.905 5.4664 102.261 5.4664 102.546 5.5374C102.83 5.60839 103.115 5.67938 103.328 5.82136C103.542 5.96335 103.755 6.17633 103.826 6.4603C103.969 6.74426 104.04 7.09923 104.04 7.52518C104.04 7.95113 103.969 8.30609 103.826 8.59006C103.684 8.87403 103.542 9.08701 103.328 9.22899C103.115 9.37098 102.83 9.44197 102.546 9.51296C102.261 9.58395 101.905 9.58395 101.549 9.58395H98.9162V5.4664H101.549ZM94.0772 3.40763H85.5376C85.3953 3.40763 85.3241 3.40763 85.1818 3.47862C85.1107 3.54961 84.9683 3.6206 84.8972 3.6916C84.826 3.76259 84.826 3.90457 84.826 4.04656V13.2046C84.826 13.3465 84.826 13.4885 84.8972 13.5595C84.9683 13.7015 85.0395 13.7725 85.1107 13.8435C85.1818 13.9145 85.3241 13.9145 85.4665 13.9145H93.9348C94.0772 13.9145 94.2195 13.9145 94.2907 13.8435C94.3618 13.7725 94.5042 13.7015 94.5042 13.5595C94.5753 13.4885 94.5753 13.3465 94.5753 13.2046V12.4946C94.5753 12.3527 94.5753 12.2817 94.5042 12.1397C94.433 12.0687 94.3618 11.9267 94.2907 11.9267C94.2195 11.8557 94.0772 11.8557 93.9348 11.8557H87.5302V9.65495H93.0809C93.2232 9.65495 93.2944 9.65495 93.4367 9.58395C93.5079 9.51296 93.6502 9.44197 93.7214 9.29999C93.7925 9.22899 93.7925 9.08701 93.7925 8.94502V8.2351C93.7925 8.09312 93.7925 8.02213 93.7214 7.88014C93.6502 7.80915 93.579 7.66716 93.4367 7.59617C93.3655 7.52518 93.2232 7.52518 93.0809 7.52518H87.5302V5.39541H93.9348C94.0772 5.39541 94.1483 5.39541 94.2907 5.32442C94.3618 5.25343 94.5041 5.18243 94.5753 5.11144C94.6465 5.04045 94.6465 4.89847 94.6465 4.75648V4.04656C94.6465 3.90457 94.6465 3.76259 94.5753 3.6916C94.5041 3.6206 94.433 3.47862 94.2907 3.47862C94.2907 3.40763 94.2195 3.40763 94.0772 3.40763ZM82.0507 13.9145C82.193 13.9145 82.3353 13.9145 82.4065 13.8435C82.4776 13.7725 82.62 13.7015 82.6911 13.5595C82.7623 13.4885 82.7623 13.3465 82.7623 13.2046V4.04656C82.7623 3.90457 82.7623 3.76259 82.6911 3.6916C82.62 3.6206 82.5488 3.47862 82.4065 3.47862C82.3353 3.40763 82.193 3.40763 82.0507 3.40763H72.4437C72.3014 3.40763 72.2302 3.40763 72.0879 3.47862C72.0167 3.54961 71.8744 3.6206 71.8744 3.6916C71.8032 3.76259 71.8032 3.90457 71.8032 4.04656V13.2046C71.8032 13.3465 71.8032 13.4175 71.8744 13.5595C71.9455 13.6305 72.0167 13.7725 72.0879 13.8435C72.159 13.9145 72.3014 13.9145 72.4437 13.9145H73.8669C74.0093 13.9145 74.0804 13.9145 74.2228 13.8435C74.2939 13.7725 74.4362 13.7015 74.5074 13.5595C74.5786 13.4885 74.5786 13.3465 74.5786 13.2046V5.39541H79.9869V13.2046C79.9869 13.3465 79.9869 13.4175 80.0581 13.5595C80.1293 13.6305 80.2004 13.7725 80.3428 13.8435C80.4139 13.9145 80.5562 13.9145 80.6986 13.9145H82.0507Z" fill="#477A6A"/>
<path fill-rule="evenodd" clip-rule="evenodd" d="M30.3865 40.8206C23.6972 31.6626 12.8805 25.7702 0.711628 25.7702C0.213488 27.829 0 29.9587 0 32.0885C0 34.2183 0.213488 36.348 0.640465 38.4068H0.711628C11.8842 38.4068 21.3488 46.003 24.053 56.2969C24.9781 50.6885 27.1842 45.3641 30.3865 40.8206Z" fill="#BCE3D7"/>
<path fill-rule="evenodd" clip-rule="evenodd" d="M24.8359 62.6152C24.8359 50.4045 30.7424 39.6137 39.9224 32.9404C44.548 36.1351 49.8852 38.3358 55.5783 39.2587C45.1885 41.9564 37.5741 51.3984 37.5741 62.6152C35.5104 63.0411 33.4466 63.2541 31.2406 63.2541C29.0345 63.2541 26.8997 63.0411 24.8359 62.6152Z" fill="#8FD6C2"/>
<path fill-rule="evenodd" clip-rule="evenodd" d="M31.9521 23.4274C38.6414 32.5144 49.4582 38.4068 61.6982 38.4068C62.1252 36.348 62.3387 34.2183 62.3387 32.0885C62.3387 29.9587 62.1252 27.829 61.6982 25.7702H61.627C50.4545 25.7702 40.9898 18.174 38.2856 7.88013C37.3605 13.5595 35.2256 18.8129 31.9521 23.4274Z" fill="#69AF96"/>
<path fill-rule="evenodd" clip-rule="evenodd" d="M37.574 1.63283C37.574 13.8435 31.6675 24.6343 22.4875 31.3076C17.9331 28.1129 12.5959 25.9122 6.90283 24.9893C17.2214 22.2916 24.907 12.8496 24.907 1.63283C26.9707 1.20687 29.0345 0.993896 31.2405 0.993896C33.3754 0.993896 35.5103 1.20687 37.574 1.63283Z" fill="#477A6A"/>
</svg>
