<svg width="10" height="13" viewBox="0 0 10 13" fill="none" xmlns="http://www.w3.org/2000/svg">
<path d="M4.55135 0C2.04172 0 0 2.04172 0 4.55132C0 7.66582 4.07301 12.2381 4.24642 12.4312C4.40931 12.6126 4.69369 12.6123 4.85628 12.4312C5.02969 12.2381 9.1027 7.66582 9.1027 4.55132C9.10265 2.04172 7.06095 0 4.55135 0ZM4.55135 6.84122C3.28869 6.84122 2.26148 5.81398 2.26148 4.55132C2.26148 3.28867 3.28872 2.26145 4.55135 2.26145C5.81398 2.26145 6.8412 3.28869 6.8412 4.55135C6.8412 5.814 5.81398 6.84122 4.55135 6.84122Z" fill="#03A3A2"/>
</svg>
