<svg width="155" height="155" viewBox="0 0 155 155" fill="none" xmlns="http://www.w3.org/2000/svg">
<path d="M113.476 64.4684C113.476 62.4281 112.871 60.4337 111.737 58.7372C110.604 57.0407 108.992 55.7185 107.107 54.9377C105.222 54.1569 103.148 53.9526 101.147 54.3507C99.1461 54.7487 97.308 55.7312 95.8652 57.174C94.4225 58.6167 93.44 60.4548 93.042 62.4559C92.6439 64.457 92.8482 66.5312 93.629 68.4162C94.4098 70.3012 95.732 71.9123 97.4285 73.0459C99.1249 74.1794 101.119 74.7844 103.16 74.7844C105.896 74.7844 108.52 73.6976 110.454 71.7629C112.389 69.8283 113.476 67.2044 113.476 64.4684ZM103.16 69.6264C102.14 69.6264 101.142 69.3239 100.294 68.7572C99.4459 68.1904 98.7848 67.3848 98.3944 66.4423C98.004 65.4998 97.9018 64.4627 98.1009 63.4622C98.2999 62.4616 98.7911 61.5426 99.5125 60.8212C100.234 60.0998 101.153 59.6086 102.153 59.4096C103.154 59.2105 104.191 59.3127 105.134 59.7031C106.076 60.0935 106.882 60.7546 107.448 61.6028C108.015 62.451 108.318 63.4483 108.318 64.4684C108.318 65.8364 107.774 67.1484 106.807 68.1157C105.84 69.083 104.528 69.6264 103.16 69.6264Z" fill="#59A39C"/>
<path d="M153.579 49.4071L78.7883 0.406223C78.3628 0.140744 77.8714 0 77.3699 0C76.8683 0 76.3769 0.140744 75.9514 0.406223L1.1606 49.4071C0.804298 49.6453 0.512071 49.9675 0.309681 50.3453C0.107292 50.7231 0.000957358 51.1449 5.12517e-05 51.5735V67.0474C-0.00288414 67.5117 0.120323 67.9681 0.356518 68.3678C0.592712 68.7675 0.933027 69.0956 1.34113 69.3169C1.75356 69.5359 2.21663 69.6417 2.68322 69.6236C3.14981 69.6055 3.60328 69.4641 3.99749 69.2138L12.895 63.3595V152.154C12.895 152.838 13.1667 153.494 13.6504 153.978C14.134 154.462 14.79 154.733 15.474 154.733H139.266C139.95 154.733 140.606 154.462 141.089 153.978C141.573 153.494 141.845 152.838 141.845 152.154V63.3595L150.742 69.2138C151.165 69.4867 151.658 69.6301 152.161 69.6264C152.592 69.625 153.017 69.5188 153.399 69.3169C153.807 69.0956 154.147 68.7675 154.383 68.3678C154.619 67.9681 154.743 67.5117 154.74 67.0474V51.5735C154.739 51.1449 154.632 50.7231 154.43 50.3453C154.228 49.9675 153.935 49.6453 153.579 49.4071ZM136.687 149.575H18.053V59.981L77.3699 21.1413L136.687 59.981V149.575ZM149.582 62.2763L78.7883 15.8802C78.3643 15.6106 77.8723 15.4674 77.3699 15.4674C76.8674 15.4674 76.3754 15.6106 75.9514 15.8802L5.15804 62.2763V52.9661L77.3699 5.66737L149.582 52.9661V62.2763Z" fill="#59A39C"/>
<path d="M123.792 92.8373H121.213V87.6794C121.213 84.2594 119.854 80.9795 117.436 78.5612C115.018 76.143 111.738 74.7844 108.318 74.7844H98.002C94.582 74.7844 91.3021 76.143 88.8839 78.5612C86.4656 80.9795 85.107 84.2594 85.107 87.6794V92.8373H64.4751V90.2584H77.37C78.054 90.2584 78.71 89.9866 79.1937 89.503C79.6773 89.0193 79.949 88.3634 79.949 87.6794V61.8894C79.949 61.2054 79.6773 60.5494 79.1937 60.0658C78.71 59.5821 78.054 59.3104 77.37 59.3104H36.1061C35.4221 59.3104 34.7662 59.5821 34.2825 60.0658C33.7988 60.5494 33.5271 61.2054 33.5271 61.8894V87.6794C33.5271 88.3634 33.7988 89.0193 34.2825 89.503C34.7662 89.9866 35.4221 90.2584 36.1061 90.2584H49.0011V92.8373H30.9481C30.2641 92.8373 29.6082 93.1091 29.1245 93.5927C28.6409 94.0764 28.3691 94.7323 28.3691 95.4163V105.732C28.3691 106.416 28.6409 107.072 29.1245 107.556C29.6082 108.04 30.2641 108.311 30.9481 108.311H36.1061V141.838C36.1061 142.522 36.3778 143.178 36.8615 143.662C37.3451 144.146 38.0011 144.417 38.6851 144.417H46.4221C47.1061 144.417 47.7621 144.146 48.2457 143.662C48.7294 143.178 49.0011 142.522 49.0011 141.838V139.259H105.739V141.838C105.739 142.522 106.011 143.178 106.494 143.662C106.978 144.146 107.634 144.417 108.318 144.417H116.055C116.739 144.417 117.395 144.146 117.879 143.662C118.362 143.178 118.634 142.522 118.634 141.838V108.311H123.792C124.476 108.311 125.132 108.04 125.616 107.556C126.099 107.072 126.371 106.416 126.371 105.732V95.4163C126.371 94.7323 126.099 94.0764 125.616 93.5927C125.132 93.1091 124.476 92.8373 123.792 92.8373ZM90.265 87.6794C90.2711 85.6293 91.0882 83.6649 92.5379 82.2153C93.9875 80.7656 95.9519 79.9485 98.002 79.9424H108.318C110.368 79.9485 112.332 80.7656 113.782 82.2153C115.232 83.6649 116.049 85.6293 116.055 87.6794V92.8373H90.265V87.6794ZM38.6851 85.1004V64.4684H74.791V85.1004H64.4751V82.5214C64.4751 80.4694 63.6599 78.5015 62.209 77.0505C60.758 75.5995 58.7901 74.7844 56.7381 74.7844C54.6861 74.7844 52.7182 75.5995 51.2672 77.0505C49.8162 78.5015 49.0011 80.4694 49.0011 82.5214V85.1004H38.6851ZM59.3171 82.5214V92.8373H54.1591V82.5214C54.1591 81.8374 54.4308 81.1814 54.9144 80.6977C55.3981 80.2141 56.0541 79.9424 56.7381 79.9424C57.4221 79.9424 58.078 80.2141 58.5617 80.6977C59.0454 81.1814 59.3171 81.8374 59.3171 82.5214ZM43.8431 139.259H41.2641V108.311H43.8431V139.259ZM105.739 134.101H49.0011V108.311H105.739V134.101ZM113.476 139.259H110.897V108.311H113.476V139.259ZM121.213 103.153H33.5271V97.9953H121.213V103.153Z" fill="#59A39C"/>
</svg>
