<svg width="266" height="245" viewBox="0 0 266 245" fill="none" xmlns="http://www.w3.org/2000/svg">
<path d="M177.334 6.49463V88.6667H259.506L177.334 6.49463Z" fill="#03A3A2" fill-opacity="0.15"/>
<path d="M166.25 110.834C160.131 110.834 155.166 105.869 155.166 99.75V0H11.0836C4.9649 0 0 4.9649 0 11.0836V328.806C0 334.924 4.9649 339.889 11.0836 339.889H254.916C261.035 339.889 266 334.924 266 328.806V110.834H166.25ZM144.084 273.389H55.4165C49.2978 273.389 44.3329 268.424 44.3329 262.305C44.3329 256.186 49.2978 251.222 55.4165 251.222H144.083C150.202 251.222 155.166 256.186 155.166 262.305C155.166 268.424 150.202 273.389 144.084 273.389ZM210.584 229.055H55.4165C49.2978 229.055 44.3329 224.09 44.3329 217.972C44.3329 211.853 49.2978 206.888 55.4165 206.888H210.584C216.702 206.888 221.667 211.853 221.667 217.972C221.667 224.09 216.702 229.055 210.584 229.055ZM210.584 184.722H55.4165C49.2978 184.722 44.3329 179.757 44.3329 173.639C44.3329 167.52 49.2978 162.555 55.4165 162.555H210.584C216.702 162.555 221.667 167.52 221.667 173.639C221.666 179.757 216.702 184.722 210.584 184.722Z" fill="#03A3A2" fill-opacity="0.15"/>
</svg>
