<svg width="71" height="70" viewBox="0 0 71 70" fill="none" xmlns="http://www.w3.org/2000/svg">
<g clip-path="url(#clip0)">
<path d="M15.8192 31.6437C13.4112 31.6437 11.4522 33.5751 11.4522 35.9492V36.7617H5.27796C3.06615 36.7617 1.2666 38.5358 1.2666 40.7166V51.3312C1.2666 53.5118 3.06615 55.2859 5.27796 55.2859H11.4521V56.0986C11.4521 58.4725 13.4111 60.404 15.8191 60.404C18.2271 60.404 20.1862 58.4725 20.1862 56.0986V35.9492C20.1863 33.5751 18.2271 31.6437 15.8192 31.6437ZM5.27796 53.1818C4.24278 53.1818 3.40062 52.3516 3.40062 51.331V40.7165C3.40062 39.6959 4.24278 38.8656 5.27796 38.8656H11.4521V53.1818H5.27796ZM18.0521 56.0984C18.0521 57.3123 17.0504 58.3 15.8191 58.3C14.5878 58.3 13.5861 57.3125 13.5861 56.0984V35.9492C13.5861 34.7353 14.5878 33.7475 15.8191 33.7475C17.0504 33.7475 18.0521 34.7352 18.0521 35.9492V56.0984Z" fill="#FFC700"/>
<path d="M65.7222 36.7617H59.5481V35.9492C59.5481 33.5751 57.5891 31.6437 55.1812 31.6437C52.7731 31.6437 50.8141 33.5751 50.8141 35.9492V56.0984C50.8141 58.4724 52.7731 60.4038 55.1812 60.4038C57.5891 60.4038 59.5481 58.4724 59.5481 56.0984V55.2858H62.4681V58.8621C62.4681 62.7127 59.2906 65.8456 55.3847 65.8456H43.1343C43.1343 65.8456 43.1343 65.8456 43.1343 65.8458C42.6976 64.6451 41.5321 63.7837 40.1659 63.7837H37.8928C36.1545 63.7837 34.7402 65.178 34.7402 66.8918C34.7402 68.6056 36.1544 70 37.8927 70H40.1658C41.5277 70 42.6903 69.1441 43.1303 67.9495H55.3846C60.467 67.9495 64.6018 63.8729 64.6018 58.8621V55.2858H65.722C67.934 55.2858 69.7334 53.5117 69.7334 51.331V40.7165C69.7334 38.5358 67.934 36.7617 65.7222 36.7617ZM57.414 56.0984C57.414 57.3123 56.4124 58.3 55.181 58.3C53.9498 58.3 52.9478 57.3125 52.9478 56.0984V35.9492C52.9478 34.7353 53.9496 33.7475 55.181 33.7475C56.4123 33.7475 57.414 34.7352 57.414 35.9492V56.0984ZM40.1658 67.8962H37.8927C37.3309 67.8962 36.874 67.4457 36.874 66.8918C36.874 66.338 37.3309 65.8875 37.8927 65.8875H40.1658C40.7275 65.8875 41.1846 66.338 41.1846 66.8918C41.1846 67.4457 40.7275 67.8962 40.1658 67.8962ZM67.5995 51.331C67.5995 52.3516 66.7573 53.1818 65.7222 53.1818H59.5481V38.8656H65.7222C66.7573 38.8656 67.5995 39.6959 67.5995 40.7165V51.331Z" fill="#FFC700"/>
<path d="M35.4999 4.0144C20.4786 4.0144 8.25781 16.063 8.25781 30.8728V32.2032C8.25781 32.7843 8.73554 33.2551 9.32475 33.2551C9.91397 33.2551 10.3917 32.7843 10.3917 32.2032V30.8728C10.3917 17.2231 21.6552 6.11837 35.4999 6.11837C49.3446 6.11837 60.608 17.2231 60.608 30.8728V32.2032C60.6081 32.7843 61.0858 33.2551 61.6751 33.2551C62.2644 33.2551 62.742 32.7843 62.742 32.2032V30.8728C62.742 16.063 50.5213 4.0144 35.4999 4.0144Z" fill="#FFC700"/>
<path d="M57.6425 9.0423C51.728 3.21125 43.8644 0 35.5001 0C27.1358 0 19.2721 3.21125 13.3577 9.0423C7.4433 14.8735 4.18604 22.6264 4.18604 30.8729V32.2033C4.18604 32.7843 4.66376 33.2552 5.25298 33.2552C5.84219 33.2552 6.31992 32.7843 6.31992 32.2033V30.8729C6.31992 23.1885 9.35517 15.9638 14.8665 10.5301C20.3781 5.09633 27.7058 2.10383 35.5001 2.10383C43.2944 2.10383 50.6221 5.09633 56.1335 10.5301C61.645 15.9638 64.6803 23.1883 64.6803 30.8729V32.2033C64.6803 32.7843 65.1578 33.2552 65.7472 33.2552C66.3365 33.2552 66.8141 32.7843 66.8141 32.2033V30.8729C66.8141 22.6264 63.557 14.8735 57.6425 9.0423Z" fill="#FFC700"/>
</g>
<defs>
<clipPath id="clip0">
<rect width="71" height="70" fill="white"/>
</clipPath>
</defs>
</svg>
