<svg width="237" height="283" viewBox="0 0 237 283" fill="none" xmlns="http://www.w3.org/2000/svg">
<path d="M40.2758 102C38.2148 94.8564 36.2358 87.7008 34.7486 80.8449C24.9707 74.9239 18.3193 64.1485 18.3193 51.6952C18.3193 32.9612 33.2029 17.7391 51.4941 17.7391C69.7854 17.7391 84.669 32.9732 84.669 51.6952C84.669 54.2722 84.3294 56.7532 83.8024 59.1624C86.9759 66.318 89.5404 74.3725 91.7887 82.5589C98.1122 73.929 102 63.3215 102 51.6952C102 23.1328 79.3994 0 51.4941 0C23.5889 0 1 23.1328 1 51.6952C1 76.2903 17.8041 96.7742 40.2758 102Z" fill="#FFC700" fill-opacity="0.15"/>
<path d="M5.44833 230.788C18.6691 216.513 33.5066 222.104 53.3688 225.123C70.4326 227.744 87.2353 222.961 86.1159 213.754C84.3499 198.858 81.8624 192.198 76.2035 172.904C71.6888 157.56 63.1196 129.903 55.3215 103.464C44.8742 68.0925 41.852 51.6677 55.7568 47.5677C70.7436 43.2068 79.3377 64.4771 87.1233 93.9723C95.9911 127.543 100.655 142.365 103.267 141.582C107.869 140.265 101.575 125.903 113.615 122.362C128.664 117.988 131.574 129.742 135.79 128.561C140.006 127.294 138.576 115.392 150.578 111.888C162.642 108.409 168.699 123.244 173.674 121.765C178.599 120.312 178.487 114.957 185.924 112.832C193.374 110.621 221.408 123.157 237.452 177.911C257.587 246.753 234.902 259.55 241.78 282.858L151.896 317C144.62 299.519 122.084 298.227 102.147 287.082C82.0614 275.789 68.4178 253.785 16.0697 254.854C-3.61838 255.251 -2.68559 239.572 5.44833 230.788Z" fill="#FFC700" fill-opacity="0.15"/>
</svg>
