<svg width="1083" height="733" viewBox="0 0 1083 733" fill="none" xmlns="http://www.w3.org/2000/svg">
<mask id="mask0" mask-type="alpha" maskUnits="userSpaceOnUse" x="0" y="0" width="1079" height="725">
<rect width="1079" height="725" fill="#418785"/>
</mask>
<g mask="url(#mask0)">
<path d="M819.438 477.776C816.455 467.637 813.59 457.481 811.437 447.749C797.282 439.345 787.653 424.051 787.653 406.375C787.653 379.784 809.199 358.179 835.679 358.179C862.159 358.179 883.705 379.801 883.705 406.375C883.705 410.033 883.213 413.554 882.451 416.974C887.045 427.13 890.757 438.563 894.012 450.182C903.166 437.933 908.795 422.877 908.795 406.375C908.795 365.834 876.076 333 835.679 333C795.281 333 762.58 365.834 762.58 406.375C762.58 441.285 786.907 470.359 819.438 477.776Z" fill="#FFC700" fill-opacity="0.15"/>
<path d="M769.595 663.391C788.521 642.924 809.763 650.94 838.198 655.268C862.626 659.027 886.681 652.169 885.078 638.969C882.55 617.61 878.989 608.062 870.888 580.398C864.424 558.398 852.157 518.745 840.993 480.838C826.037 430.122 821.71 406.573 841.616 400.694C863.071 394.442 875.374 424.939 886.52 467.228C899.215 515.36 905.892 536.612 909.631 535.49C916.219 533.602 907.21 513.009 924.445 507.932C945.989 501.662 950.156 518.513 956.192 516.821C962.227 515.004 960.18 497.939 977.362 492.915C994.633 487.927 1003.3 509.197 1010.43 507.077C1017.48 504.993 1017.32 497.315 1027.96 494.269C1038.63 491.098 1078.76 509.072 1101.73 587.577C1130.56 686.282 1098.08 704.63 1107.93 738.048L979.249 787C968.833 761.936 936.57 760.084 908.029 744.105C879.274 727.912 859.742 696.364 784.8 697.896C756.615 698.466 757.95 675.986 769.595 663.391Z" fill="#FFC700" fill-opacity="0.15"/>
</g>
</svg>
