<svg width="147" height="166" viewBox="0 0 147 166" fill="none" xmlns="http://www.w3.org/2000/svg">
<path d="M146.285 156.604L138.983 113.856C138.196 109.25 134.929 105.55 130.455 104.201L110.761 98.2587C110.353 93.4444 108.379 88.9024 105.094 85.3073C102.467 82.4317 99.1616 80.3379 95.5185 79.1825C96.142 78.4907 96.72 77.8012 97.2503 77.1268C101.934 71.1702 104.441 64.608 105.079 60.1299H106.599C110.55 60.1299 113.766 56.9152 113.766 52.9632V49.2894C113.766 46.6521 112.282 44.2623 110.051 43.0221V34.1878C110.051 32.8528 108.969 31.7706 107.634 31.7706C106.299 31.7706 105.217 32.8525 105.217 34.1878V44.1053C104.275 44.2688 103.152 44.5512 102.003 45.035C101.886 45.0779 101.771 45.1276 101.663 45.1872C101.403 45.3055 101.144 45.4303 100.885 45.5708V26.0923C100.885 20.7109 96.5069 16.3331 91.1255 16.3331H84.454C82.1529 16.3331 79.905 17.1348 78.1235 18.5913L77.4688 19.1265C76.2663 20.1097 74.7486 20.6513 73.1951 20.6513C71.6415 20.6513 70.1235 20.1097 68.921 19.1265L68.2666 18.5913C66.4852 17.1352 64.2372 16.3331 61.9361 16.3331H55.264C49.8826 16.3331 45.5047 20.7109 45.5047 26.0923V45.5708C45.2459 45.4303 44.986 45.3055 44.7265 45.1872C44.6182 45.1276 44.5041 45.0779 44.3864 45.035C43.2375 44.5512 42.114 44.2688 41.173 44.1053V19.0281C41.173 11.2015 47.5405 4.834 55.3671 4.834H91.022C98.8489 4.834 105.216 11.2015 105.216 19.0281V22.8276C105.216 24.1626 106.298 25.2448 107.633 25.2448C108.968 25.2448 110.05 24.1629 110.05 22.8276V19.0281C110.05 8.53615 101.514 0 91.022 0H55.3671C44.8748 0 36.339 8.53615 36.339 19.0281V43.0225C34.1078 44.2626 32.6243 46.6521 32.6243 49.2897V52.9635C32.6243 56.9155 35.8393 60.1302 39.791 60.1302H41.3103C41.9483 64.6083 44.456 71.1706 49.1395 77.1271C49.6692 77.8008 50.2468 78.4897 50.8697 79.1809C42.4944 81.8411 36.3867 89.3712 35.6288 98.2587L15.9337 104.201C11.4601 105.55 8.19248 109.25 7.40589 113.856L4.44069 131.216C4.216 132.532 5.10059 133.78 6.4162 134.005C7.73149 134.23 8.98069 133.345 9.2057 132.029L12.1709 114.67C12.6467 111.883 14.6235 109.645 17.3299 108.829L35.5456 103.333V108.114C31.3702 108.883 27.8173 111.751 26.3541 115.725C25.9656 116.779 25.7242 117.884 25.6365 119.007L23.876 141.604C23.7432 143.306 24.3321 145.001 25.4911 146.253C26.65 147.506 28.2938 148.225 30.0008 148.225H33.0143C34.3493 148.225 35.4315 147.143 35.4315 145.808C35.4315 144.473 34.3493 143.391 33.0143 143.391H30.0008C29.6368 143.391 29.2867 143.238 29.0395 142.971C28.7925 142.704 28.6671 142.343 28.6955 141.98L30.456 119.383C30.5092 118.702 30.6552 118.033 30.8905 117.395C31.9086 114.63 34.6578 112.758 37.7323 112.737L38.1304 112.734C38.1491 112.734 38.1675 112.734 38.1859 112.734C41.1739 112.734 43.819 114.428 44.9348 117.062C45.2478 117.801 45.438 118.582 45.5005 119.383L47.2617 141.98C47.2897 142.343 47.1643 142.704 46.9174 142.971C46.6704 143.238 46.32 143.391 45.956 143.391H42.9425C41.6075 143.391 40.5253 144.473 40.5253 145.808C40.5253 147.143 41.6075 148.225 42.9425 148.225H45.956C47.663 148.225 49.3071 147.507 50.4657 146.253C51.625 145 52.214 143.306 52.0812 141.604L50.32 119.007C50.2169 117.685 49.9025 116.395 49.3858 115.176C47.7936 111.418 44.389 108.805 40.3793 108.098V101.874L48.6882 99.3673C49.4441 100.96 50.9422 104.4 53.9097 111.817C56.9003 119.301 60.6176 128.893 64.1828 138.218C64.2082 138.296 64.2376 138.373 64.2704 138.447C66.6496 144.673 68.9574 150.77 70.9313 156.03C71.2853 156.973 72.187 157.598 73.1944 157.598C74.2018 157.598 75.1035 156.973 75.4575 156.03C77.431 150.77 79.7389 144.673 82.1184 138.447C82.1516 138.373 82.1806 138.296 82.2061 138.218C85.7686 128.898 89.484 119.312 92.4734 111.831C95.4447 104.404 96.944 100.961 97.7003 99.3673L106.009 101.874V116.151C100.252 117.269 95.8915 122.347 95.8915 128.426C95.8915 135.322 101.502 140.932 108.398 140.932C115.294 140.932 120.905 135.322 120.905 128.426C120.905 122.367 116.572 117.301 110.843 116.161V103.333L129.059 108.829C131.766 109.646 133.742 111.884 134.218 114.67L141.52 157.418C141.641 158.127 141.453 158.82 140.989 159.37C140.525 159.919 139.874 160.222 139.154 160.222H7.23439C6.51517 160.222 5.86397 159.919 5.40008 159.37C4.9365 158.82 4.74759 158.127 4.8688 157.418L7.27855 143.31C7.50325 141.994 6.61865 140.746 5.30304 140.521C3.98776 140.295 2.73856 141.181 2.51354 142.497L0.103791 156.604C-0.255656 158.71 0.328164 160.854 1.70535 162.487C3.08317 164.119 5.09834 165.056 7.23439 165.056H139.154C141.29 165.056 143.306 164.119 144.683 162.487C146.061 160.854 146.644 158.71 146.285 156.604ZM105.245 49.0296C106.533 48.7085 107.567 48.7143 107.579 48.7146C107.995 48.7201 108.4 48.6227 108.76 48.4342C108.867 48.702 108.931 48.9899 108.931 49.2897V52.9635C108.931 54.2498 107.884 55.2962 106.598 55.2962H105.245V49.0296ZM41.1436 55.2962H39.7906C38.5044 55.2962 37.4579 54.2498 37.4579 52.9635V49.2897C37.4579 48.9899 37.5218 48.702 37.6291 48.4345C37.9886 48.6231 38.3935 48.7204 38.8103 48.7146C38.8287 48.7178 39.8596 48.712 41.1436 49.0309V55.2962ZM45.9776 58.0064V51.6563C46.7101 51.8758 47.5112 51.8458 48.2507 51.5373C49.5192 51.008 50.3387 49.7788 50.3387 48.4051V26.0923C50.3387 23.3766 52.5483 21.1671 55.264 21.1671H61.9355C63.1244 21.1671 64.2859 21.5813 65.2063 22.3338L65.8607 22.8689C67.9242 24.5562 70.5287 25.485 73.1944 25.485C75.8601 25.485 78.4646 24.5559 80.5281 22.8689L81.1825 22.3338C82.1026 21.5813 83.2644 21.1671 84.4533 21.1671H91.1249C93.8405 21.1671 96.0501 23.3766 96.0501 26.0923V48.4055C96.0501 49.7788 96.8696 51.0083 98.1381 51.5377C98.5617 51.7143 99.0053 51.8001 99.445 51.8001C99.7729 51.8001 100.098 51.752 100.411 51.6585V58.0064C100.411 61.5354 97.9714 68.3885 93.4498 74.139C91.9521 76.0439 90.0268 78.0903 87.6564 79.8789C87.5813 79.9292 87.5094 79.9836 87.4408 80.0417C83.7686 82.7567 79.0468 84.8366 73.1944 84.8366C67.342 84.8366 62.6202 82.7567 58.9477 80.0413C58.8791 79.9836 58.8075 79.9291 58.7327 79.8792C56.3623 78.0903 54.4371 76.0439 52.939 74.139C48.4177 68.3888 45.9776 61.5354 45.9776 58.0064ZM89.0294 97.0572L73.1944 108.893L57.3594 97.0572C58.9297 95.0614 59.8094 92.4995 59.8094 90.2132V86.317C63.5332 88.3196 67.9765 89.671 73.1944 89.671C78.4124 89.671 82.856 88.3196 86.5794 86.317V90.2132C86.5794 92.4995 87.4591 95.0614 89.0294 97.0572ZM53.3255 94.3593C52.0347 93.8676 50.6037 93.7871 49.2501 94.1542C49.1908 94.1681 49.1327 94.1839 49.0763 94.2007L40.7258 96.7203C42.1382 89.7757 47.7771 84.2483 54.9754 83.1777V90.2132C54.9754 91.7297 54.2984 93.2974 53.3255 94.3593ZM59.8855 113.762C59.881 113.751 59.8765 113.74 59.8723 113.729C59.7498 113.419 59.6289 113.113 59.509 112.811C59.4874 112.757 59.4658 112.702 59.4442 112.648C59.3268 112.352 59.2105 112.059 59.0957 111.77C59.0876 111.75 59.0796 111.73 59.0715 111.709C58.7134 110.809 58.3681 109.945 58.0361 109.118C58.0119 109.058 57.9877 108.997 57.9635 108.937C57.8681 108.7 57.7743 108.466 57.6811 108.236C57.6469 108.151 57.6131 108.067 57.5792 107.983C57.489 107.759 57.3994 107.537 57.311 107.319C57.2846 107.254 57.2588 107.191 57.2327 107.126C57.0725 106.731 56.9158 106.346 56.763 105.97C56.7217 105.869 56.6795 105.765 56.6386 105.665C56.5786 105.519 56.5202 105.376 56.4616 105.233C56.3984 105.078 56.3352 104.924 56.2733 104.774C56.2501 104.717 56.2259 104.658 56.2027 104.601C56.184 104.556 56.1669 104.515 56.1485 104.47C55.8694 103.792 55.6041 103.152 55.3523 102.551C55.3504 102.546 55.3481 102.541 55.3462 102.537C55.2121 102.216 55.0808 101.904 54.9548 101.606C54.8894 101.451 54.8249 101.3 54.7617 101.151L68.3804 111.329L62.6898 113.747C62.6799 113.751 62.6695 113.755 62.6595 113.76L60.2836 114.769C60.1489 114.428 60.017 114.094 59.8855 113.762ZM65.6528 128.562C65.1754 127.323 64.6944 126.077 64.2124 124.832C63.4587 122.886 62.7388 121.034 62.0499 119.271L62.9519 118.888L66.6373 123.172L65.6528 128.562ZM73.2411 148.207C73.1718 148.063 73.0893 147.927 72.9939 147.801C71.9017 144.914 70.5155 141.261 68.9813 137.242L71.2379 124.887H75.1509L77.4075 137.242C75.7998 141.453 74.3559 145.26 73.2411 148.207ZM76.0574 120.053H70.3314L67.6218 116.904L73.1944 114.537L78.767 116.904L76.0574 120.053ZM82.1764 124.832C81.6945 126.077 81.2135 127.323 80.736 128.562L79.7515 123.171L83.4369 118.887L84.3389 119.271C83.65 121.034 82.9301 122.886 82.1764 124.832ZM91.4343 101.606C91.3147 101.888 91.1903 102.185 91.0636 102.487C91.0472 102.526 91.0304 102.566 91.014 102.606C90.8886 102.905 90.7609 103.212 90.6287 103.53C90.62 103.551 90.611 103.574 90.6023 103.595C90.4882 103.87 90.3711 104.154 90.2522 104.443C90.2299 104.497 90.209 104.547 90.1867 104.601C90.1603 104.666 90.132 104.735 90.1052 104.8C90.0523 104.929 89.9985 105.061 89.9443 105.192C89.8779 105.354 89.8118 105.516 89.7438 105.682C89.7222 105.735 89.7 105.79 89.678 105.843C89.5098 106.256 89.337 106.68 89.1603 107.117C89.1326 107.185 89.1052 107.252 89.0775 107.322C88.9901 107.537 88.9011 107.757 88.8118 107.979C88.777 108.066 88.7419 108.152 88.7067 108.24C88.6145 108.468 88.5214 108.7 88.4272 108.934C88.4008 109 88.374 109.067 88.3476 109.133C88.0198 109.949 87.6796 110.8 87.3267 111.688C87.315 111.717 87.3034 111.746 87.2918 111.775C87.1777 112.062 87.0623 112.353 86.9456 112.647C86.924 112.702 86.9021 112.757 86.8802 112.812C86.7596 113.115 86.6381 113.422 86.5149 113.734C86.5126 113.74 86.5104 113.746 86.5081 113.751C86.3753 114.087 86.2419 114.425 86.1058 114.77L83.7277 113.759C83.7193 113.756 83.7109 113.752 83.7028 113.749L78.0091 111.33L91.6278 101.151C91.5639 101.3 91.4995 101.451 91.4343 101.606ZM97.3125 94.201C97.3122 94.201 97.3115 94.2007 97.3112 94.2007C97.3093 94.2 97.307 94.1997 97.3051 94.1987C95.9028 93.778 94.407 93.8477 93.0636 94.3593C92.0904 93.2974 91.4137 91.7297 91.4137 90.2132V83.1742C98.6571 84.2419 104.279 89.7174 105.673 96.7232L97.3125 94.201ZM116.071 128.426C116.071 132.657 112.629 136.098 108.398 136.098C104.167 136.098 100.725 132.657 100.725 128.426C100.725 124.195 104.167 120.753 108.398 120.753C112.629 120.753 116.071 124.195 116.071 128.426Z" fill="#59A39C"/>
</svg>
