<svg width="165" height="165" viewBox="0 0 165 165" fill="none" xmlns="http://www.w3.org/2000/svg">
<g clip-path="url(#clip0)">
<path d="M50.809 33.069C49.3823 33.069 48.2254 34.2256 48.2254 35.6526C48.2254 38.7866 45.6756 41.3364 42.5416 41.3364C39.4076 41.3364 36.8578 38.7866 36.8578 35.6526C36.8578 32.5185 39.4076 29.9688 42.5416 29.9688C43.9683 29.9688 45.1252 28.8122 45.1252 27.3852C45.1252 25.9582 43.9686 24.8016 42.5416 24.8016C36.5584 24.8016 31.6909 29.6694 31.6909 35.6523C31.6909 41.6351 36.5587 46.5029 42.5416 46.5029C48.5245 46.5029 53.3923 41.6351 53.3923 35.6523C53.3926 34.2256 52.2357 33.069 50.809 33.069Z" fill="#59A39C"/>
<path d="M50.809 63.3819C49.3823 63.3819 48.2254 64.5385 48.2254 65.9655C48.2254 69.0995 45.6756 71.6493 42.5416 71.6493C39.4076 71.6493 36.8578 69.0995 36.8578 65.9655C36.8578 62.8315 39.4076 60.2817 42.5416 60.2817C43.9683 60.2817 45.1252 59.1251 45.1252 57.6981C45.1252 56.2711 43.9686 55.1145 42.5416 55.1145C36.5584 55.1145 31.6909 59.9823 31.6909 65.9652C31.6909 71.948 36.5587 76.8159 42.5416 76.8159C48.5245 76.8159 53.3923 71.948 53.3923 65.9652C53.3926 64.5388 52.2357 63.3819 50.809 63.3819Z" fill="#59A39C"/>
<path d="M81.1218 68.8936H61.8316C60.405 68.8936 59.248 70.0502 59.248 71.4772C59.248 72.9042 60.4047 74.0608 61.8316 74.0608H81.1218C82.5485 74.0608 83.7054 72.9042 83.7054 71.4772C83.7054 70.0502 82.5488 68.8936 81.1218 68.8936Z" fill="#59A39C"/>
<path d="M81.1218 57.8705H61.8316C60.405 57.8705 59.248 59.0272 59.248 60.4541C59.248 61.8811 60.4047 63.0378 61.8316 63.0378H81.1218C82.5485 63.0378 83.7054 61.8811 83.7054 60.4541C83.7054 59.0272 82.5488 57.8705 81.1218 57.8705Z" fill="#59A39C"/>
<path d="M75.6104 99.2065H61.8316C60.405 99.2065 59.248 100.363 59.248 101.79C59.248 103.217 60.4047 104.374 61.8316 104.374H75.6104C77.0371 104.374 78.194 103.217 78.194 101.79C78.194 100.363 77.0371 99.2065 75.6104 99.2065Z" fill="#59A39C"/>
<path d="M81.1218 88.1838H61.8316C60.405 88.1838 59.248 89.3404 59.248 90.7674C59.248 92.1944 60.4047 93.351 61.8316 93.351H81.1218C82.5485 93.351 83.7054 92.1944 83.7054 90.7674C83.7054 89.3404 82.5488 88.1838 81.1218 88.1838Z" fill="#59A39C"/>
<path d="M105.924 38.5803H61.8316C60.405 38.5803 59.248 39.7369 59.248 41.1639C59.248 42.5909 60.4047 43.7475 61.8316 43.7475H105.923C107.35 43.7475 108.507 42.5909 108.507 41.1639C108.507 39.7369 107.35 38.5803 105.924 38.5803Z" fill="#59A39C"/>
<path d="M94.9006 27.5573H61.8316C60.405 27.5573 59.248 28.7139 59.248 30.1409C59.248 31.5678 60.4047 32.7245 61.8316 32.7245H94.9006C96.3273 32.7245 97.4842 31.5678 97.4842 30.1409C97.4842 28.7139 96.3276 27.5573 94.9006 27.5573Z" fill="#59A39C"/>
<path d="M50.809 93.6952C49.3823 93.6952 48.2254 94.8518 48.2254 96.2788C48.2254 99.4128 45.6756 101.963 42.5416 101.963C39.4076 101.963 36.8578 99.4128 36.8578 96.2788C36.8578 93.1448 39.4076 90.595 42.5416 90.595C43.9683 90.595 45.1252 89.4384 45.1252 88.0114C45.1252 86.5844 43.9686 85.4278 42.5416 85.4278C36.5584 85.4278 31.6909 90.2956 31.6909 96.2785C31.6909 102.261 36.5587 107.129 42.5416 107.129C48.5245 107.129 53.3923 102.261 53.3923 96.2785C53.3926 94.8518 52.2357 93.6952 50.809 93.6952Z" fill="#59A39C"/>
<path d="M116.947 0H23.2517C18.7884 0 15.1567 3.63129 15.1567 8.09499V123.836C15.1567 128.3 18.788 131.931 23.2517 131.931H70.0995C71.5262 131.931 72.6831 130.774 72.6831 129.347C72.6831 127.921 71.5265 126.764 70.0995 126.764H23.2517C21.6372 126.764 20.3236 125.45 20.3236 123.836V8.09499C20.3236 6.48044 21.6372 5.16688 23.2517 5.16688H116.947C118.561 5.16688 119.875 6.48044 119.875 8.09499V93.5234C119.875 94.9501 121.032 96.107 122.459 96.107C123.885 96.107 125.042 94.9504 125.042 93.5234V8.09499C125.042 3.63129 121.411 0 116.947 0Z" fill="#59A39C"/>
<path d="M141.339 104.767C138.937 104.527 136.537 105.208 134.638 106.65C133.125 104.111 130.545 102.31 127.56 102.011C125.158 101.772 122.758 102.452 120.859 103.894C119.346 101.355 116.766 99.5543 113.781 99.2552C111.947 99.0722 110.116 99.4254 108.507 100.244V67.3435C108.507 64.6722 107.371 62.1115 105.389 60.3181C103.408 58.5263 100.74 57.6517 98.0664 57.9192C93.2972 58.3968 89.5615 62.709 89.5615 67.7367V100.721L81.967 108.315C77.9312 112.351 76.3022 118.077 77.6096 123.633L83.3753 148.137C85.7114 158.066 94.467 165.001 104.667 165.001H127.969C140.031 165.001 149.843 155.188 149.843 143.127V114.585C149.844 109.556 146.108 105.244 141.339 104.767ZM144.676 143.126C144.676 152.338 137.182 159.833 127.97 159.833H104.668C96.8769 159.833 90.1892 154.536 88.4049 146.952L82.6392 122.448C81.7446 118.647 82.8593 114.729 85.6205 111.968L89.5615 108.027V116.947C89.5615 118.373 90.7181 119.53 92.1451 119.53C93.5721 119.53 94.7287 118.374 94.7287 116.947V67.7364C94.7287 65.3306 96.4209 63.2765 98.5817 63.0606C99.8227 62.9359 101.01 63.3232 101.922 64.1495C102.824 64.9652 103.341 66.1295 103.341 67.3438V112.814C103.341 114.24 104.497 115.397 105.924 115.397C107.351 115.397 108.508 114.241 108.508 112.814V108.68C108.508 107.466 109.024 106.301 109.926 105.486C110.839 104.659 112.026 104.272 113.267 104.397C115.427 104.613 117.12 106.667 117.12 109.073V115.569C117.12 116.995 118.276 118.152 119.703 118.152C121.13 118.152 122.287 116.996 122.287 115.569V111.435C122.287 110.221 122.803 109.056 123.705 108.241C124.618 107.414 125.805 107.027 127.046 107.152C129.206 107.368 130.899 109.422 130.899 111.828V118.324C130.899 119.751 132.055 120.908 133.482 120.908C134.909 120.908 136.066 119.751 136.066 118.324V114.19C136.066 112.976 136.583 111.812 137.484 110.996C138.398 110.17 139.583 109.782 140.825 109.907C142.985 110.123 144.678 112.177 144.678 114.583V143.126H144.676Z" fill="#59A39C"/>
</g>
<defs>
<clipPath id="clip0">
<rect width="165" height="165" fill="white"/>
</clipPath>
</defs>
</svg>
