<svg width="165" height="142" viewBox="0 0 165 142" fill="none" xmlns="http://www.w3.org/2000/svg">
<path d="M111.242 47.8676C109.08 47.8676 107.322 49.6261 107.322 51.7876C107.322 53.9491 109.08 55.7074 111.242 55.7074C113.403 55.7074 115.162 53.9488 115.162 51.7876C115.162 49.6261 113.403 47.8676 111.242 47.8676Z" fill="#59A39C"/>
<path d="M133.721 47.8676C131.559 47.8676 129.801 49.6261 129.801 51.7876C129.801 53.9491 131.559 55.7074 133.721 55.7074C135.882 55.7074 137.641 53.9488 137.641 51.7876C137.641 49.6261 135.882 47.8676 133.721 47.8676Z" fill="#59A39C"/>
<path d="M31.1994 47.8676C29.0378 47.8676 27.2793 49.6261 27.2793 51.7876C27.2793 53.9491 29.0378 55.7074 31.1994 55.7074C33.3609 55.7074 35.1191 53.9488 35.1191 51.7876C35.1191 49.6261 33.3609 47.8676 31.1994 47.8676Z" fill="#59A39C"/>
<path d="M53.6784 47.8676C51.5169 47.8676 49.7583 49.6261 49.7583 51.7876C49.7583 53.9491 51.5169 55.7074 53.6784 55.7074C55.8399 55.7074 57.5984 53.9488 57.5984 51.7876C57.5981 49.6261 55.8399 47.8676 53.6784 47.8676Z" fill="#59A39C"/>
<path d="M163.574 103.505C163.24 102.212 161.923 101.434 160.628 101.768C159.335 102.102 158.558 103.421 158.892 104.714C159.491 107.033 159.866 109.416 160.013 111.824H114.236C113.607 111.556 112.941 111.361 112.248 111.246C112.248 111.19 112.25 111.136 112.25 111.08C112.25 100.323 106.661 90.8478 98.2341 85.4038C101.933 82.273 106.144 79.9181 110.667 78.4269C112.439 83.2916 117.113 86.6997 122.481 86.6997C127.842 86.6997 132.512 83.301 134.289 78.4465C143.237 81.4052 150.901 87.6709 155.548 96.2238C156.218 97.4591 157.85 97.8579 159.019 97.0775C160.044 96.3934 160.384 94.9969 159.797 93.9157C157.905 90.4339 155.569 87.2896 152.884 84.5327C155.118 82.8645 157.046 80.3227 158.64 76.9321C164.964 63.478 164.949 37.7734 160.5 26.1678C157.536 18.4362 152.368 11.8694 145.554 7.1774C138.736 2.48219 130.758 0.000322185 122.482 0.000322185C112.604 0.000322185 103.072 3.59111 95.641 10.1112C94.6375 10.9919 94.5376 12.5193 95.4183 13.5231C96.2986 14.5269 97.8263 14.6265 98.8301 13.7458C105.379 8.00006 113.779 4.83576 122.482 4.83576C129.774 4.83576 136.804 7.02266 142.812 11.1599C148.817 15.2954 153.373 21.0835 155.985 27.8985C160.016 38.4153 160.014 62.6418 154.263 74.8751C152.804 77.9791 151.105 80.089 149.2 81.1747C145.06 77.8205 140.319 75.2642 135.219 73.6604C145.192 68.8895 152.098 58.6996 152.098 46.926V42.0347C152.098 40.8575 151.25 39.8514 150.09 39.6518C138.122 37.5942 129.839 25.4486 129.758 25.3286C128.701 23.7475 126.226 23.9995 125.509 25.7596C125.452 25.8983 119.581 39.617 95.2816 39.617C93.946 39.617 92.8639 40.6995 92.8639 42.0347V46.926C92.8639 58.6919 99.7608 68.8762 109.724 73.6511C104.662 75.239 99.9346 77.7757 95.759 81.1728C93.8555 80.0864 92.1572 77.9772 90.6989 74.8748C84.9486 62.6414 84.9463 38.4149 88.9775 27.8985C89.9716 25.3051 91.2643 22.8307 92.8191 20.5441C93.5698 19.4401 93.2833 17.9362 92.1792 17.1855C91.0754 16.435 89.5713 16.7209 88.8205 17.8253C87.0562 20.4197 85.5904 23.2265 84.4625 26.1674C80.0139 37.7728 79.9984 63.4773 86.3231 76.9314C87.1287 78.6451 88.0213 80.137 88.9939 81.4142C86.8773 80.8939 84.6752 80.5935 82.4129 80.5419C82.1718 78.6493 82.007 75.9711 82.4664 73.8845C82.7536 72.5805 81.929 71.2907 80.6251 71.0035C79.3217 70.7166 78.0313 71.5409 77.7441 72.8448C77.2944 74.8873 77.2822 77.1539 77.4127 79.0668C73.6159 76.6349 72.8893 72.959 72.8481 72.7327C72.626 71.4242 71.3891 70.538 70.0758 70.7517C68.7579 70.9664 67.8634 72.2088 68.0781 73.5266C68.1206 73.789 68.9094 78.267 72.9909 81.8007C72.2398 82.0248 71.5009 82.2765 70.775 82.5554C66.22 78.4633 60.9145 75.4515 55.1894 73.654C60.2524 71.2292 64.5231 67.4066 67.5007 62.6898C68.7354 63.3265 70.1144 63.6698 71.5283 63.6698C76.3892 63.6698 80.344 59.715 80.344 54.8541C80.344 52.9712 79.7486 51.2256 78.7389 49.7918C85.0488 31.47 82.2652 20.7376 78.7521 14.9302C75.2477 9.13768 69.4249 5.41407 62.3565 4.4457C57.3299 3.75681 53.2181 5.09848 50.9129 6.15099C47.551 2.14822 43.7243 0 35.7877 0C26.679 0 13.7645 4.72422 6.93369 15.0969C-0.64537 26.6055 2.10084 40.138 6.053 49.9136C5.09494 51.3239 4.53435 53.0247 4.53435 54.8545C4.53435 59.7154 8.48909 63.6701 13.3503 63.6701C14.7639 63.6701 16.1433 63.3265 17.3776 62.6901C20.3514 67.4011 24.6153 71.2201 29.6699 73.6456C22.9586 75.749 16.8467 79.5229 11.8175 84.7626C10.978 85.6371 10.9249 87.0455 11.6995 87.9791C12.6089 89.0745 14.3197 89.1383 15.3061 88.111C19.6367 83.5989 24.8741 80.3156 30.6234 78.4233C32.3942 83.29 37.0691 86.7 42.4387 86.7C47.8044 86.7 52.477 83.2949 54.2504 78.4336C58.5094 79.8388 62.4961 82.0074 66.0353 84.8677C57.1297 90.2108 51.156 99.9607 51.156 111.081C51.156 111.136 51.1579 111.191 51.1582 111.246C50.4655 111.362 49.7992 111.557 49.1709 111.824H4.907C5.26418 106.038 6.95078 100.4 9.8385 95.3912C10.5055 94.2346 10.1086 92.7559 8.952 92.0889C7.79569 91.4223 6.31669 91.8188 5.64972 92.9757C1.95352 99.3856 0 106.706 0 114.146V114.242C0 115.577 1.08249 116.659 2.41772 116.659H44.4338C44.0257 117.674 43.7984 118.78 43.7984 119.939C43.7984 124.8 47.7531 128.755 52.614 128.755C53.8874 128.755 55.1259 128.482 56.259 127.964C61.7375 136.193 71.097 141.627 81.7027 141.627C92.3088 141.627 101.668 136.193 107.147 127.964C108.28 128.482 109.518 128.755 110.792 128.755C115.653 128.755 119.608 124.8 119.608 119.939C119.608 118.78 119.381 117.674 118.972 116.659H162.502C163.837 116.659 164.919 115.577 164.919 114.242V114.146C164.92 110.543 164.467 106.963 163.574 103.505ZM71.5277 58.835C70.892 58.835 70.2866 58.6835 69.7399 58.4053C70.7382 56.0395 71.4364 53.5176 71.7898 50.8878C73.8622 51.0238 75.5079 52.7485 75.5079 54.8548C75.5082 57.0494 73.7223 58.835 71.5277 58.835ZM10.9716 17.7567C16.818 8.87915 27.9333 4.83576 35.787 4.83576C43.4567 4.83576 45.6359 7.04039 48.3131 10.6718C49.0771 11.7085 50.5306 11.9561 51.6044 11.2459C51.6466 11.2176 55.9192 8.44396 61.6995 9.23697C67.2938 10.0032 71.8803 12.9145 74.6143 17.4337C78.6851 24.163 78.7025 34.2175 74.6978 46.631C73.8696 46.3106 72.9818 46.1113 72.0554 46.0562V42.0347C72.0554 40.8575 71.2076 39.8514 70.0474 39.6518C58.079 37.5942 49.7963 25.4486 49.7157 25.3286C48.6616 23.751 46.1913 23.9805 45.4727 25.7445C45.4582 25.779 43.9567 29.2434 39.5487 32.6537C33.6611 37.209 25.2551 39.6167 15.2394 39.6167C13.9041 39.6167 12.8216 40.6992 12.8216 42.0344V46.0559C11.8233 46.1152 10.8694 46.3412 9.98711 46.7067C5.60652 35.1385 5.93243 25.4086 10.9716 17.7567ZM13.3497 58.835C11.1547 58.835 9.36914 57.0494 9.36914 54.8548C9.36914 52.7485 11.0148 51.0238 13.0873 50.8878C13.4403 53.516 14.1378 56.0362 15.1352 58.4008C14.5853 58.6799 13.9757 58.835 13.3497 58.835ZM17.718 48.5729C17.717 48.5613 17.7164 48.5497 17.7154 48.5384C17.6809 48.0049 17.6574 47.4685 17.6574 46.9263V44.4099C35.9972 43.7533 44.516 35.6865 47.9559 30.9577C51.2833 34.9112 58.0916 41.6843 67.2203 43.9915V46.9263C67.2203 47.4685 67.1964 48.0049 67.1622 48.5384C67.1613 48.55 67.1606 48.5616 67.1597 48.5732C66.3083 61.4719 55.5495 71.7076 42.439 71.7076C29.3282 71.7072 18.5694 61.4719 17.718 48.5729ZM42.4387 81.8645C39.2963 81.8645 36.5414 79.9671 35.3419 77.2071C37.6545 76.7693 40.0271 76.543 42.4387 76.543C44.8438 76.543 47.2167 76.7699 49.5332 77.2112C48.3327 79.9691 45.5794 81.8645 42.4387 81.8645ZM122.481 81.8645C119.34 81.8645 116.586 79.9684 115.385 77.2096C117.7 76.7699 120.073 76.5427 122.481 76.5427C124.888 76.5427 127.259 76.777 129.571 77.2203C128.369 79.9732 125.618 81.8645 122.481 81.8645ZM97.6993 46.926V44.4096C116.039 43.7529 124.558 35.6861 127.998 30.9574C131.325 34.9109 138.134 41.684 147.262 43.9912V46.926C147.262 60.5906 136.146 71.7072 122.481 71.7072C108.816 71.7072 97.6993 60.5906 97.6993 46.926ZM52.614 123.919C50.4194 123.919 48.6338 122.134 48.6338 119.939C48.6338 118.105 49.8817 116.562 51.5712 116.102C52.0138 118.767 52.8013 121.317 53.8883 123.703C53.4815 123.843 53.0531 123.919 52.614 123.919ZM81.703 136.792C67.5256 136.792 55.9914 125.258 55.9914 111.08C55.9914 96.9027 67.5256 85.3686 81.703 85.3686C95.8805 85.3686 107.415 96.9027 107.415 111.08C107.415 125.258 95.8805 136.792 81.703 136.792ZM110.792 123.919C110.353 123.919 109.925 123.843 109.518 123.703C110.605 121.317 111.393 118.767 111.835 116.102C113.525 116.562 114.773 118.106 114.773 119.939C114.773 122.134 112.987 123.919 110.792 123.919Z" fill="#59A39C"/>
<path d="M70.464 110.051C68.3025 110.051 66.5439 111.809 66.5439 113.971C66.5439 116.132 68.3025 117.891 70.464 117.891C72.6255 117.891 74.3841 116.132 74.3841 113.971C74.3841 111.809 72.6259 110.051 70.464 110.051Z" fill="#59A39C"/>
<path d="M92.9427 110.051C90.7812 110.051 89.0229 111.809 89.0229 113.971C89.0229 116.132 90.7812 117.891 92.9427 117.891C95.1042 117.891 96.8628 116.132 96.8628 113.971C96.8628 111.809 95.1042 110.051 92.9427 110.051Z" fill="#59A39C"/>
</svg>
