<svg width="71" height="71" viewBox="0 0 71 71" fill="none" xmlns="http://www.w3.org/2000/svg">
<g clip-path="url(#clip0)">
<path d="M64.2446 3.05078H17.5046C16.9223 3.05078 16.45 3.52313 16.45 4.10545C16.45 4.68776 16.9223 5.15957 17.5046 5.15957H64.2446C66.8068 5.15957 68.8912 7.24398 68.8912 9.80562V47.3288C68.8912 49.891 66.8068 51.9749 64.2446 51.9749H6.75484C4.1932 51.9749 2.10879 49.891 2.10879 47.3288V9.80562C2.10879 7.24398 4.1932 5.15957 6.75484 5.15957H13.2865C13.8688 5.15957 14.3412 4.68776 14.3412 4.10545C14.3412 3.52313 13.8688 3.05078 13.2865 3.05078H6.75484C3.0302 3.05078 0 6.08098 0 9.80562V47.3288C0 51.0535 3.0302 54.0837 6.75484 54.0837H23.7107L21.6453 60.8325H17.7733C15.7961 60.8325 14.1884 62.4408 14.1884 64.4174C14.1884 66.3946 15.7961 68.0023 17.7733 68.0023H53.2267C55.2033 68.0023 56.8116 66.3946 56.8116 64.4174C56.8116 62.4408 55.2033 60.8325 53.2267 60.8325H49.3547L47.2893 54.0837H64.2446C67.9698 54.0837 71 51.0535 71 47.3288V9.80562C71 6.08098 67.9698 3.05078 64.2446 3.05078ZM54.7028 64.418C54.7028 65.2316 54.0403 65.8941 53.2267 65.8941H17.7733C16.9591 65.8941 16.2972 65.2316 16.2972 64.418C16.2972 63.6038 16.9591 62.9419 17.7733 62.9419H53.2267C54.0403 62.9419 54.7028 63.6038 54.7028 64.418ZM47.149 60.8325H23.851L25.9159 54.0842H45.0841L47.149 60.8325Z" fill="#FFC700"/>
<path d="M64.3223 37.3764C64.9051 37.3764 65.3769 36.9041 65.3769 36.3218V9.8062C65.3769 9.18163 64.8694 8.67407 64.2448 8.67407H6.75447C6.13153 8.67407 5.62451 9.18163 5.62451 9.8062V44.173C5.62451 44.7553 6.09632 45.2271 6.67863 45.2271H64.3223C64.9051 45.2271 65.3769 44.7553 65.3769 44.173V40.5399C65.3769 39.9576 64.9051 39.4858 64.3223 39.4858C63.7399 39.4858 63.2681 39.9576 63.2681 40.5399V43.1183H7.7333V10.7829H63.2681V36.3218C63.2681 36.9046 63.7399 37.3764 64.3223 37.3764Z" fill="#FFC700"/>
<path d="M36.3764 47.8272C36.1457 47.4762 35.7047 47.2963 35.2936 47.3786C34.844 47.4686 34.4946 47.8532 34.4513 48.3103C34.3603 49.2637 35.539 49.8374 36.2307 49.1733C36.5958 48.8222 36.6543 48.2486 36.3764 47.8272Z" fill="#FFC700"/>
</g>
<defs>
<clipPath id="clip0">
<rect width="71" height="71" fill="white"/>
</clipPath>
</defs>
</svg>
