<svg width="67" height="66" viewBox="0 0 67 66" fill="none" xmlns="http://www.w3.org/2000/svg">
<path d="M22.3334 53.8999C19.87 53.8999 17.8667 55.8733 17.8667 58.2999C17.8667 60.7265 19.87 62.6999 22.3334 62.6999C24.7967 62.6999 26.8 60.7265 26.8 58.2999C26.8 55.8733 24.7967 53.8999 22.3334 53.8999ZM22.3334 60.4999C21.1017 60.4999 20.1 59.5132 20.1 58.2999C20.1 57.0866 21.1017 56.0999 22.3334 56.0999C23.5651 56.0999 24.5667 57.0866 24.5667 58.2999C24.5667 59.5132 23.5651 60.4999 22.3334 60.4999Z" fill="#FFC700"/>
<path d="M18.9834 5.50005H23.45C24.0664 5.50005 24.5667 5.00835 24.5667 4.40005C24.5667 3.79175 24.0664 3.30005 23.45 3.30005H18.9834C18.367 3.30005 17.8667 3.79175 17.8667 4.40005C17.8667 5.00835 18.367 5.50005 18.9834 5.50005Z" fill="#FFC700"/>
<path d="M26.8003 5.50005H27.9169C28.5333 5.50005 29.0336 5.00835 29.0336 4.40005C29.0336 3.79175 28.5333 3.30005 27.9169 3.30005H26.8003C26.1839 3.30005 25.6836 3.79175 25.6836 4.40005C25.6836 5.00835 26.1839 5.50005 26.8003 5.50005Z" fill="#FFC700"/>
<path d="M62.5335 13.2H42.4335V4.8455C42.4335 2.1747 40.2269 0 37.5145 0H9.38571C6.67333 0 4.4668 2.1747 4.4668 4.8455V61.1534C4.4668 63.8253 6.67333 66 9.38571 66H37.5134C40.2269 66 42.4335 63.8253 42.4335 61.1545V36.3H62.5335V13.2ZM9.38571 2.2H37.5134C38.9952 2.2 40.2001 3.3869 40.2001 4.8455V6.6H6.70013V4.8455C6.70013 3.3869 7.90501 2.2 9.38571 2.2ZM37.5145 63.8H9.38571C7.90501 63.8 6.70013 62.6131 6.70013 61.1545V52.8H40.2001V61.1545C40.2001 62.6131 38.9952 63.8 37.5145 63.8ZM40.2001 50.6H6.70013V8.8H40.2001V13.2H20.1001V36.3H24.5668V44L34.9886 36.3H40.2001V50.6ZM60.3001 34.1H42.4335H34.2449L26.8001 39.6V34.1H22.3335V15.4H42.4335H60.3001V34.1Z" fill="#FFC700"/>
<path d="M27.917 23.0999H39.0836C39.7 23.0999 40.2003 22.6082 40.2003 21.9999C40.2003 21.3916 39.7 20.8999 39.0836 20.8999H27.917C27.3006 20.8999 26.8003 21.3916 26.8003 21.9999C26.8003 22.6082 27.3006 23.0999 27.917 23.0999Z" fill="#FFC700"/>
<path d="M26.8003 27.4999C26.8003 28.1082 27.3006 28.5999 27.917 28.5999H54.717C55.3334 28.5999 55.8336 28.1082 55.8336 27.4999C55.8336 26.8916 55.3334 26.3999 54.717 26.3999H27.917C27.3006 26.3999 26.8003 26.8916 26.8003 27.4999Z" fill="#FFC700"/>
</svg>
