<svg width="322" height="247" viewBox="0 0 322 247" fill="none" xmlns="http://www.w3.org/2000/svg">
<path d="M310.247 172.05C317.609 163.617 321.292 153.644 321.292 142.13C321.292 131.688 317.471 122.653 309.856 115.019C302.226 107.385 293.191 103.57 282.749 103.57H227.128C227.663 101.696 228.199 100.09 228.733 98.7514C229.263 97.413 230.007 95.9388 230.94 94.3324C231.874 92.7253 232.546 91.5198 232.946 90.718C235.355 86.1688 237.199 82.418 238.472 79.4752C239.743 76.5269 241.008 72.5122 242.284 67.425C243.558 62.3407 244.191 57.2514 244.191 52.1642C244.191 48.9527 244.152 46.3399 244.089 44.3333C244.026 42.3252 243.685 39.3122 243.088 35.2955C242.482 31.2808 241.677 27.9337 240.676 25.2575C239.67 22.5806 238.062 19.5661 235.857 16.2218C233.647 12.8711 230.971 10.164 227.822 8.08778C224.674 6.01295 220.66 4.27291 215.774 2.86835C210.883 1.46239 205.364 0.759766 199.202 0.759766C195.722 0.759766 192.712 2.03209 190.166 4.57604C187.489 7.25292 185.21 10.5994 183.337 14.614C181.462 18.6307 180.156 22.1115 179.419 25.0578C178.683 28.0026 177.845 32.0869 176.912 37.3063C175.703 42.9315 174.803 46.9785 174.197 49.4549C173.596 51.9314 172.421 55.1772 170.682 59.1926C168.94 63.2107 166.867 66.4214 164.457 68.8324C160.04 73.2493 153.28 81.2821 144.175 92.9278C137.614 101.494 130.854 109.593 123.893 117.224C116.931 124.857 111.844 128.805 108.632 129.073C105.288 129.341 102.409 130.713 99.9989 133.191C97.5886 135.667 96.3838 138.58 96.3838 141.925V270.642C96.3838 274.123 97.6547 277.1 100.199 279.577C102.741 282.056 105.754 283.361 109.234 283.495C113.919 283.629 124.495 286.571 140.962 292.333C151.269 295.808 159.333 298.456 165.157 300.261C170.979 302.066 179.117 304.008 189.551 306.086C199.995 308.16 209.632 309.2 218.465 309.2H221.88H237.142H244.37C262.179 308.933 275.359 303.71 283.93 293.538C291.692 284.3 294.97 272.185 293.77 257.191C298.99 252.238 302.607 245.949 304.612 238.316C306.885 230.155 306.885 222.323 304.612 214.827C310.769 206.661 313.648 197.491 313.243 187.316C313.26 183.028 312.259 177.942 310.247 172.05Z" fill="#FFC700" fill-opacity="0.2"/>
<path d="M70.6848 129.278H12.8541C9.37119 129.278 6.35882 130.551 3.81557 133.095C1.27233 135.637 0 138.65 0 142.13V270.651C0 274.127 1.27233 277.141 3.81628 279.687C6.36163 282.227 9.374 283.5 12.8548 283.5H70.6848C74.1649 283.5 77.1759 282.227 79.7205 279.687C82.2638 277.141 83.5354 274.128 83.5354 270.651V142.13C83.5354 138.65 82.2631 135.638 79.7205 133.095C77.1766 130.55 74.1656 129.278 70.6848 129.278ZM47.5909 254.08C45.0477 256.557 42.036 257.795 38.5552 257.795C34.9401 257.795 31.894 256.557 29.419 254.08C26.9425 251.604 25.7047 248.559 25.7047 244.944C25.7047 241.464 26.9418 238.451 29.419 235.908C31.8947 233.364 34.9401 232.091 38.5552 232.091C42.036 232.091 45.0477 233.364 47.5909 235.908C50.1349 238.45 51.4072 241.463 51.4072 244.944C51.4072 248.559 50.1377 251.603 47.5909 254.08Z" fill="#FFC700" fill-opacity="0.2"/>
</svg>
