<svg width="129" height="39" viewBox="0 0 129 39" fill="none" xmlns="http://www.w3.org/2000/svg">
<path d="M79.4151 30.9272C79.198 30.5374 78.894 30.2775 78.5032 30.1043C78.1125 29.931 77.5914 29.8444 77.027 29.8444H73.5968C73.51 29.8444 73.4666 29.8444 73.3797 29.8877C73.3363 29.931 73.2495 29.9743 73.2495 30.0176C73.2061 30.0609 73.2061 30.1476 73.2061 30.2342V35.8219C73.2061 35.9085 73.2061 35.9519 73.2495 36.0385C73.2929 36.0818 73.3363 36.1684 73.4232 36.2117C73.4666 36.2551 73.5534 36.2551 73.6403 36.2551H74.5086C74.5955 36.2551 74.6389 36.2551 74.7257 36.2117C74.7692 36.1684 74.856 36.1251 74.856 36.0385C74.8994 35.9952 74.8994 35.9085 74.8994 35.8219V34.8257H77.0704C77.6349 34.8257 78.1125 34.739 78.5467 34.5658C78.9374 34.3925 79.2414 34.1326 79.4585 33.7428C79.6756 33.3529 79.7624 32.9198 79.7624 32.3133C79.7624 31.7502 79.6322 31.2738 79.4151 30.9272ZM77.9388 32.9631C77.852 33.1363 77.7651 33.2663 77.6349 33.3529C77.5046 33.4396 77.3309 33.4829 77.1572 33.5262C76.9836 33.5695 76.7665 33.5695 76.5494 33.5695H74.8994V31.1005H76.5494C76.7665 31.1005 76.9836 31.1005 77.1572 31.1438C77.3309 31.1871 77.5046 31.2305 77.6349 31.3171C77.7651 31.4037 77.8954 31.5337 77.9388 31.7069C78.0256 31.8802 78.0691 32.0968 78.0691 32.3567C78.0256 32.5732 78.0256 32.7898 77.9388 32.9631Z" fill="#8FD6C2"/>
<path d="M66.3019 29.8444C66.2151 29.8444 66.1282 29.8444 66.0848 29.8877C66.0414 29.931 65.9545 29.9743 65.9545 30.0176C65.9111 30.0609 65.9111 30.1476 65.9111 30.2342V30.6674C65.9111 30.754 65.9111 30.8406 65.9545 30.8839C65.998 30.9273 66.0414 31.0139 66.0848 31.0139C66.1282 31.0572 66.2151 31.0572 66.3019 31.0572H68.2992V35.8219C68.2992 35.9085 68.2992 35.9519 68.3426 36.0385C68.386 36.0818 68.4295 36.1684 68.5163 36.1684C68.5597 36.2117 68.6466 36.2117 68.7334 36.2117H69.6018C69.6886 36.2117 69.7321 36.2117 69.8189 36.1684C69.8623 36.1251 69.9492 36.0818 69.9926 36.0385C70.036 35.9952 70.036 35.9085 70.036 35.8219V31.0572H72.0333C72.1201 31.0572 72.207 31.0572 72.2504 31.0139C72.2938 30.9706 72.3807 30.9273 72.3807 30.8839C72.4241 30.8406 72.4241 30.754 72.4241 30.6674V30.2342C72.4241 30.1476 72.4241 30.0609 72.3807 30.0176C72.3372 29.9743 72.2938 29.8877 72.2504 29.8877C72.207 29.8444 72.1201 29.8444 72.0333 29.8444H66.3019Z" fill="#8FD6C2"/>
<path d="M63.4363 35.8652C63.4363 35.9518 63.4363 35.9952 63.4797 36.0818C63.5232 36.1251 63.5666 36.2117 63.6534 36.2117C63.6968 36.255 63.7837 36.255 63.8705 36.255H64.6955C64.7823 36.255 64.8692 36.255 64.9126 36.2117C64.956 36.1684 65.0428 36.1251 65.0863 36.0385C65.1297 35.9952 65.1297 35.9085 65.1297 35.8219V30.2342C65.1297 30.1475 65.1297 30.0609 65.0863 30.0176C65.0428 29.9743 64.9994 29.8877 64.9126 29.8443C64.8257 29.801 64.7823 29.801 64.6955 29.801H63.8705C63.7837 29.801 63.7403 29.801 63.6534 29.8443C63.61 29.8877 63.5232 29.931 63.4797 30.0176C63.4363 30.0609 63.4363 30.1475 63.4363 30.2342V32.27H60.3535V30.2342C60.3535 30.1475 60.3535 30.0609 60.3101 30.0176C60.2667 29.9743 60.2233 29.8877 60.1364 29.8443C60.093 29.801 60.0062 29.801 59.9193 29.801H59.0944C59.0075 29.801 58.9207 29.801 58.8773 29.8443C58.7904 29.8877 58.747 29.931 58.7036 30.0176C58.6602 30.0609 58.6602 30.1475 58.6602 30.2342V35.8219C58.6602 35.9085 58.6602 35.9518 58.7036 36.0385C58.747 36.0818 58.7904 36.1684 58.8773 36.2117C58.9207 36.255 59.0075 36.255 59.0944 36.255H59.9193C60.0062 36.255 60.0496 36.255 60.1364 36.2117C60.1798 36.1684 60.2667 36.1251 60.3101 36.0818C60.3535 36.0385 60.3535 35.9518 60.3535 35.8652V33.5695H63.4363V35.8652Z" fill="#8FD6C2"/>
<path d="M57.4014 29.8444H52.191C52.1042 29.8444 52.0608 29.8444 51.9739 29.8877C51.9305 29.931 51.8437 29.9743 51.8003 30.0176C51.7568 30.0609 51.7568 30.1476 51.7568 30.2342V35.8219C51.7568 35.9085 51.7568 35.9952 51.8003 36.0385C51.8437 36.1251 51.8871 36.1684 51.9305 36.2117C51.9739 36.2551 52.0608 36.2551 52.1476 36.2551H57.3145C57.4014 36.2551 57.4882 36.2551 57.5316 36.2117C57.5751 36.1684 57.6619 36.1251 57.6619 36.0385C57.7053 35.9952 57.7053 35.9085 57.7053 35.8219V35.3888C57.7053 35.3021 57.7053 35.2588 57.6619 35.1722C57.6185 35.1289 57.5751 35.0422 57.5316 35.0422C57.4882 34.9989 57.4014 34.9989 57.3145 34.9989H53.4068V33.6561H56.7935C56.8804 33.6561 56.9238 33.6561 57.0106 33.6128C57.054 33.5695 57.1409 33.5262 57.1843 33.4396C57.2277 33.3962 57.2277 33.3096 57.2277 33.223V32.7898C57.2277 32.7032 57.2277 32.6599 57.1843 32.5732C57.1409 32.5299 57.0975 32.4433 57.0106 32.4C56.9672 32.3567 56.8804 32.3567 56.7935 32.3567H53.4068V31.0572H57.3145C57.4014 31.0572 57.4448 31.0572 57.5316 31.0139C57.5751 30.9706 57.6619 30.9273 57.7053 30.8839C57.7487 30.8406 57.7487 30.754 57.7487 30.6674V30.2342C57.7487 30.1476 57.7487 30.0609 57.7053 30.0176C57.6619 29.9743 57.6185 29.8877 57.5316 29.8877C57.5316 29.8444 57.4882 29.8444 57.4014 29.8444Z" fill="#8FD6C2"/>
<path d="M50.7142 36.2551C50.801 36.2551 50.8445 36.2551 50.9313 36.2117C50.9747 36.1684 51.0615 36.1251 51.105 36.0385C51.1484 35.9952 51.1484 35.9085 51.1484 35.8219V35.3888C51.1484 35.3021 51.1484 35.2155 51.105 35.1722C51.0615 35.1289 51.0181 35.0422 50.9313 35.0422C50.8879 34.9989 50.801 34.9989 50.7142 34.9989H50.2366V30.2342C50.2366 30.1476 50.2366 30.0609 50.1932 30.0176C50.1497 29.9743 50.1063 29.8877 50.0195 29.8877C49.9761 29.8444 49.8892 29.8444 49.8024 29.8444H48.934C48.8471 29.8444 48.8037 29.8444 48.7169 29.8877C48.6735 29.931 48.5866 29.9743 48.5432 30.0176C48.4998 30.0609 48.4998 30.1476 48.4998 30.2342V34.9989H45.4604V30.2342C45.4604 30.1476 45.4604 30.0609 45.417 30.0176C45.3736 29.9743 45.3302 29.8877 45.2433 29.8877C45.1999 29.8444 45.1131 29.8444 45.0262 29.8444H44.1578C44.071 29.8444 44.0276 29.8444 43.9407 29.8877C43.8973 29.931 43.8105 29.9743 43.7671 30.0176C43.7236 30.0609 43.7236 30.1476 43.7236 30.2342V35.8219C43.7236 35.9085 43.7236 35.9519 43.7671 36.0385C43.8105 36.0818 43.8539 36.1684 43.9407 36.2117C43.9842 36.2551 44.071 36.2551 44.1578 36.2551H50.7142Z" fill="#8FD6C2"/>
<path d="M128.566 27.2889C128.652 27.2889 128.696 27.2889 128.783 27.2455C128.826 27.2022 128.913 27.1589 128.956 27.0723C129 27.029 129 26.9423 129 26.8557V21.268C129 21.1814 129 21.138 128.956 21.0514C128.913 21.0081 128.869 20.9215 128.826 20.8782C128.783 20.8348 128.696 20.8348 128.609 20.8348H127.22C127.133 20.8348 127.089 20.8348 127.002 20.8782C126.916 20.9215 126.829 20.9648 126.785 21.0514C126.698 21.0947 126.655 21.1814 126.612 21.268L124.05 25.7728V21.268C124.05 21.1814 124.05 21.138 124.006 21.0514C123.963 21.0081 123.92 20.9215 123.833 20.9215C123.789 20.8782 123.703 20.8782 123.616 20.8782H122.834C122.747 20.8782 122.66 20.8782 122.617 20.9215C122.574 20.9648 122.487 21.0081 122.487 21.0514C122.443 21.0947 122.443 21.1814 122.443 21.268V26.8557C122.443 26.9423 122.443 26.9857 122.487 27.0723C122.53 27.1156 122.574 27.2022 122.617 27.2455C122.66 27.2889 122.747 27.2889 122.834 27.2889H124.31C124.397 27.2889 124.484 27.2889 124.571 27.2455C124.658 27.2022 124.745 27.1589 124.788 27.0723C124.875 27.029 124.918 26.9423 124.962 26.8557L127.306 22.6974V26.8557C127.306 26.9423 127.306 26.9857 127.35 27.0723C127.393 27.1156 127.437 27.2022 127.523 27.2455C127.567 27.2889 127.654 27.2889 127.741 27.2889H128.566Z" fill="#8FD6C2"/>
<path d="M125.699 19.3621C125.526 19.3621 125.439 19.3188 125.309 19.2754C125.222 19.2321 125.135 19.1455 125.092 19.0589C125.048 18.9722 125.005 18.9289 124.961 18.8856C124.918 18.8423 124.831 18.8423 124.788 18.8423H124.44C124.353 18.8423 124.31 18.8423 124.267 18.8856C124.223 18.9289 124.18 18.9722 124.18 19.0589C124.18 19.3188 124.267 19.5786 124.353 19.7519C124.484 19.9685 124.657 20.0984 124.874 20.2284C125.092 20.315 125.352 20.4016 125.656 20.4016C125.96 20.4016 126.22 20.3583 126.438 20.2284C126.655 20.1418 126.828 19.9685 126.959 19.7519C127.089 19.5353 127.132 19.3188 127.132 19.0589C127.132 18.9722 127.132 18.9289 127.045 18.8856C127.002 18.8423 126.959 18.8423 126.872 18.8423H126.524C126.438 18.8423 126.394 18.8423 126.351 18.8856C126.307 18.9289 126.264 18.9722 126.22 19.0589C126.177 19.1455 126.09 19.2321 126.003 19.2754C125.96 19.3188 125.83 19.3621 125.699 19.3621Z" fill="#8FD6C2"/>
<path d="M120.707 27.2889C120.794 27.2889 120.837 27.2889 120.924 27.2455C120.967 27.2022 121.054 27.1589 121.097 27.0723C121.141 27.029 121.141 26.9423 121.141 26.8557V21.268C121.141 21.1814 121.141 21.138 121.097 21.0514C121.054 21.0081 121.011 20.9215 120.967 20.8782C120.924 20.8348 120.837 20.8348 120.75 20.8348H119.404C119.317 20.8348 119.274 20.8348 119.187 20.8782C119.1 20.9215 119.013 20.9648 118.97 21.0514C118.883 21.0947 118.84 21.1814 118.796 21.268L116.234 25.7728V21.268C116.234 21.1814 116.234 21.138 116.191 21.0514C116.148 21.0081 116.104 20.9215 116.017 20.9215C115.974 20.8782 115.887 20.8782 115.8 20.8782H115.019C114.932 20.8782 114.845 20.8782 114.802 20.9215C114.758 20.9648 114.671 21.0081 114.671 21.0514C114.628 21.0947 114.628 21.1814 114.628 21.268V26.8557C114.628 26.9423 114.628 26.9857 114.671 27.0723C114.715 27.1156 114.758 27.2022 114.802 27.2455C114.845 27.2889 114.932 27.2889 115.019 27.2889H116.495C116.582 27.2889 116.669 27.2889 116.755 27.2455C116.842 27.2022 116.929 27.1589 116.973 27.0723C117.059 27.029 117.103 26.9423 117.146 26.8557L119.491 22.6974V26.8557C119.491 26.9423 119.491 26.9857 119.534 27.0723C119.578 27.1156 119.621 27.2022 119.708 27.2455C119.751 27.2889 119.838 27.2889 119.925 27.2889H120.707Z" fill="#8FD6C2"/>
<path d="M108.506 27.2889C108.593 27.2889 108.636 27.2889 108.723 27.2455C108.766 27.2022 108.853 27.1589 108.896 27.1156C108.94 27.0723 108.94 26.9857 108.94 26.899V24.7332H109.895C110.069 24.7332 110.243 24.7766 110.416 24.8632C110.546 24.9498 110.677 25.0364 110.807 25.1664C110.937 25.2963 111.024 25.4696 111.154 25.6429L111.936 26.899C111.979 26.9857 112.066 27.0723 112.11 27.1156C112.196 27.1589 112.283 27.2455 112.37 27.2455C112.457 27.2889 112.544 27.2889 112.631 27.2889H113.673C113.759 27.2889 113.803 27.2889 113.846 27.2455C113.89 27.2022 113.89 27.1589 113.89 27.1156C113.89 27.0723 113.846 26.9857 113.803 26.899L112.674 25.1231C112.631 25.0364 112.544 24.9065 112.457 24.8199C112.37 24.6899 112.283 24.6033 112.153 24.5167C112.066 24.43 111.936 24.3434 111.849 24.2568C111.719 24.1701 111.632 24.1268 111.502 24.1268C111.719 24.0835 111.892 23.9969 112.023 23.9102C112.153 23.8236 112.283 23.6937 112.37 23.5637C112.457 23.4338 112.544 23.3038 112.631 23.1739L113.629 21.3979C113.716 21.268 113.716 21.1814 113.716 21.0947C113.673 21.0081 113.629 20.9648 113.499 20.9648H112.457C112.327 20.9648 112.24 21.0081 112.11 21.0514C111.979 21.138 111.892 21.2247 111.806 21.3979L111.154 22.5241C111.024 22.7407 110.894 22.914 110.764 23.0439C110.633 23.1739 110.503 23.2605 110.373 23.3471C110.243 23.3905 110.069 23.4338 109.895 23.4338H108.94V21.268C108.94 21.1814 108.94 21.0947 108.896 21.0514C108.853 21.0081 108.81 20.9215 108.723 20.8782C108.679 20.8348 108.593 20.8348 108.506 20.8348H107.637C107.55 20.8348 107.507 20.8348 107.42 20.8782C107.377 20.9215 107.29 20.9648 107.247 21.0514C107.203 21.138 107.203 21.1814 107.203 21.268V26.8557C107.203 26.9423 107.203 27.029 107.247 27.0723C107.29 27.1589 107.333 27.2022 107.42 27.2455C107.464 27.2889 107.55 27.2889 107.637 27.2889H108.506Z" fill="#8FD6C2"/>
<path d="M99.3438 24.0835C99.3438 24.8199 99.474 25.4263 99.7345 25.9027C99.995 26.3792 100.342 26.7257 100.863 26.9856C101.341 27.2022 101.992 27.3322 102.687 27.3322H103.773C104.033 27.3322 104.294 27.2888 104.511 27.2455C104.771 27.2022 104.988 27.1156 105.205 26.9856C105.422 26.899 105.64 26.7691 105.813 26.5958C105.987 26.4225 106.117 26.2493 106.204 26.0327C106.291 25.8161 106.334 25.5995 106.334 25.3396C106.334 25.253 106.334 25.1664 106.291 25.0797C106.247 25.0364 106.204 24.9498 106.161 24.9498C106.117 24.9065 106.074 24.9065 105.987 24.8632C105.944 24.8632 105.9 24.8632 105.857 24.8632H105.336C105.249 24.8632 105.162 24.8632 105.075 24.9065C104.988 24.9498 104.945 24.9931 104.858 25.0797C104.771 25.1664 104.728 25.253 104.684 25.383C104.598 25.5995 104.424 25.7728 104.25 25.9027C104.076 26.0327 103.859 26.076 103.555 26.076H102.644C102.296 26.076 102.036 26.0327 101.819 25.9894C101.602 25.9027 101.428 25.8161 101.298 25.6428C101.167 25.4696 101.081 25.2963 101.037 25.0364C100.994 24.7765 100.95 24.4733 100.95 24.0835C100.95 23.6936 100.994 23.3904 101.037 23.1305C101.081 22.8707 101.167 22.6541 101.298 22.5241C101.428 22.3509 101.602 22.2642 101.819 22.1776C102.036 22.091 102.296 22.091 102.644 22.091H103.425C103.686 22.091 103.946 22.1776 104.12 22.2642C104.294 22.3942 104.424 22.5674 104.554 22.784C104.598 22.914 104.684 23.0006 104.728 23.0872C104.815 23.1739 104.858 23.2172 104.945 23.2605C105.032 23.3038 105.119 23.3038 105.205 23.3038H105.726C105.77 23.3038 105.813 23.3038 105.857 23.3038C105.9 23.3038 105.944 23.2605 106.03 23.2172C106.074 23.1739 106.117 23.1305 106.161 23.0439C106.204 23.0006 106.204 22.914 106.204 22.784C106.204 22.5241 106.161 22.3075 106.074 22.091C105.987 21.8744 105.857 21.7011 105.683 21.5279C105.509 21.3546 105.336 21.2247 105.075 21.138C104.858 21.0514 104.641 20.9648 104.38 20.8781C104.12 20.8348 103.903 20.7915 103.642 20.7915H102.644C101.906 20.7915 101.298 20.9215 100.82 21.138C100.342 21.3546 99.9516 21.7444 99.6911 22.2209C99.474 22.7407 99.3438 23.3471 99.3438 24.0835Z" fill="#8FD6C2"/>
<path d="M96.6951 26.899C96.6951 26.9857 96.6951 27.029 96.7385 27.1156C96.7819 27.1589 96.8254 27.2455 96.9122 27.2455C96.9556 27.2889 97.0425 27.2889 97.1293 27.2889H97.9543C98.0411 27.2889 98.128 27.2889 98.1714 27.2455C98.2148 27.2022 98.3016 27.1589 98.3451 27.0723C98.3885 27.029 98.3885 26.9423 98.3885 26.8557V21.268C98.3885 21.1814 98.3885 21.0947 98.3451 21.0514C98.3016 21.0081 98.2582 20.9215 98.1714 20.8782C98.0845 20.8348 98.0411 20.8348 97.9543 20.8348H97.1293C97.0425 20.8348 96.999 20.8348 96.9122 20.8782C96.8688 20.9215 96.7819 20.9648 96.7385 21.0514C96.6951 21.0947 96.6951 21.1814 96.6951 21.268V23.3038H93.6123V21.268C93.6123 21.1814 93.6123 21.0947 93.5689 21.0514C93.5255 21.0081 93.4821 20.9215 93.3952 20.8782C93.3518 20.8348 93.265 20.8348 93.1781 20.8348H92.3531C92.2663 20.8348 92.1795 20.8348 92.136 20.8782C92.0492 20.9215 92.0058 20.9648 91.9624 21.0514C91.9189 21.0947 91.9189 21.1814 91.9189 21.268V26.8557C91.9189 26.9423 91.9189 26.9857 91.9624 27.0723C92.0058 27.1156 92.0492 27.2022 92.136 27.2455C92.1795 27.2889 92.2663 27.2889 92.3531 27.2889H93.1781C93.265 27.2889 93.3084 27.2889 93.3952 27.2455C93.4386 27.2022 93.5255 27.1589 93.5689 27.1156C93.6123 27.0723 93.6123 26.9857 93.6123 26.899V24.6033H96.6951V26.899Z" fill="#8FD6C2"/>
<path d="M90.2262 27.2889C90.313 27.2889 90.3565 27.2889 90.4433 27.2455C90.4867 27.2022 90.5736 27.1589 90.617 27.0723C90.6604 27.029 90.6604 26.9423 90.6604 26.8557V21.268C90.6604 21.1814 90.6604 21.138 90.617 21.0514C90.5736 21.0081 90.5301 20.9215 90.4867 20.8782C90.4433 20.8348 90.3565 20.8348 90.2696 20.8348H88.9236C88.8368 20.8348 88.7934 20.8348 88.7065 20.8782C88.6197 20.9215 88.5328 20.9648 88.4894 21.0514C88.4026 21.0947 88.3592 21.1814 88.3157 21.268L85.754 25.7728V21.268C85.754 21.1814 85.754 21.138 85.7106 21.0514C85.6671 21.0081 85.6237 20.9215 85.5369 20.9215C85.4935 20.8782 85.4066 20.8782 85.3198 20.8782H84.5382C84.4514 20.8782 84.3646 20.8782 84.3211 20.9215C84.2777 20.9648 84.1909 21.0081 84.1909 21.0514C84.1475 21.0947 84.1475 21.1814 84.1475 21.268V26.8557C84.1475 26.9423 84.1475 26.9857 84.1909 27.0723C84.2343 27.1156 84.2777 27.2022 84.3211 27.2455C84.3646 27.2889 84.4514 27.2889 84.5382 27.2889H86.0145C86.1013 27.2889 86.1882 27.2889 86.275 27.2455C86.3619 27.2022 86.4487 27.1589 86.4921 27.0723C86.579 27.029 86.6224 26.9423 86.6658 26.8557L89.0105 22.6974V26.8557C89.0105 26.9423 89.0105 26.9857 89.0539 27.0723C89.0973 27.1156 89.1407 27.2022 89.2276 27.2455C89.271 27.2889 89.3578 27.2889 89.4447 27.2889H90.2262Z" fill="#8FD6C2"/>
<path d="M83.0184 27.2889C83.1052 27.2889 83.1486 27.2889 83.2355 27.2456C83.2789 27.2022 83.3657 27.1589 83.4091 27.0723C83.4526 27.029 83.4525 26.9424 83.4525 26.8557V26.4226C83.4525 26.3359 83.4526 26.2493 83.4091 26.206C83.3657 26.1627 83.3223 26.076 83.2355 26.076C83.192 26.0327 83.1052 26.0327 83.0184 26.0327H82.4973V21.268C82.4973 21.1814 82.4973 21.0948 82.4539 21.0514C82.4105 21.0081 82.3671 20.9215 82.2802 20.9215C82.2368 20.8782 82.15 20.8782 82.0631 20.8782H81.1947C81.1079 20.8782 81.0645 20.8782 80.9776 20.9215C80.9342 20.9648 80.8474 21.0081 80.804 21.0514C80.7605 21.0948 80.7605 21.1814 80.7605 21.268V26.0327H77.7212V21.268C77.7212 21.1814 77.7212 21.0948 77.6777 21.0514C77.6343 21.0081 77.5909 20.9215 77.5041 20.9215C77.4606 20.8782 77.3738 20.8782 77.287 20.8782H76.4186C76.3317 20.8782 76.2883 20.8782 76.2015 20.9215C76.1581 20.9648 76.0712 21.0081 76.0278 21.0514C75.9844 21.0948 75.9844 21.1814 75.9844 21.268V26.8557C75.9844 26.9424 75.9844 26.9857 76.0278 27.0723C76.0712 27.1156 76.1146 27.2022 76.2015 27.2456C76.2449 27.2889 76.3317 27.2889 76.4186 27.2889H83.0184Z" fill="#8FD6C2"/>
<path d="M74.3776 27.2889C74.4644 27.2889 74.5078 27.2889 74.5947 27.2455C74.6381 27.2022 74.7249 27.1589 74.7683 27.0723C74.8118 27.029 74.8118 26.9423 74.8118 26.8557V21.268C74.8118 21.1814 74.8118 21.138 74.7683 21.0514C74.7249 21.0081 74.6815 20.9215 74.6381 20.8782C74.5947 20.8348 74.5078 20.8348 74.421 20.8348H73.075C72.9881 20.8348 72.9447 20.8348 72.8579 20.8782C72.771 20.9215 72.6842 20.9648 72.6408 21.0514C72.554 21.0947 72.5105 21.1814 72.4671 21.268L69.9054 25.7728V21.268C69.9054 21.1814 69.9054 21.138 69.8619 21.0514C69.8185 21.0081 69.7751 20.9215 69.6883 20.9215C69.6448 20.8782 69.558 20.8782 69.4712 20.8782H68.6896C68.6028 20.8782 68.5159 20.8782 68.4725 20.9215C68.4291 20.9648 68.3422 21.0081 68.3422 21.0514C68.2988 21.0947 68.2988 21.1814 68.2988 21.268V26.8557C68.2988 26.9423 68.2988 26.9857 68.3422 27.0723C68.3857 27.1156 68.4291 27.2022 68.4725 27.2455C68.5159 27.2889 68.6028 27.2889 68.6896 27.2889H70.1659C70.2527 27.2889 70.3395 27.2889 70.4264 27.2455C70.5132 27.2022 70.6001 27.1589 70.6435 27.0723C70.7303 27.029 70.7737 26.9423 70.8172 26.8557L73.1618 22.6974V26.8557C73.1618 26.9423 73.1618 26.9857 73.2052 27.0723C73.2487 27.1156 73.2921 27.2022 73.3789 27.2455C73.4223 27.2889 73.5092 27.2889 73.596 27.2889H74.3776Z" fill="#8FD6C2"/>
<path d="M66.9097 21.0514C66.8662 21.0081 66.8228 20.9215 66.736 20.9215C66.6926 20.8782 66.6057 20.8782 66.5189 20.8782H64.0874C63.74 20.8782 63.4361 20.9215 63.1321 20.9648C62.8282 21.0081 62.5243 21.0948 62.2638 21.2247C62.0032 21.3546 61.7861 21.5279 61.569 21.7445C61.3954 21.9611 61.2217 22.2643 61.1348 22.6108L60.3099 26.0327H59.9625C59.8757 26.0327 59.8323 26.0327 59.7454 26.076C59.702 26.1194 59.6152 26.1627 59.5717 26.206C59.5283 26.2493 59.5283 26.3359 59.5283 26.4226V26.8557C59.5283 26.9424 59.5283 26.9857 59.5717 27.0723C59.6152 27.1156 59.6586 27.2022 59.7454 27.2456C59.7888 27.2889 59.8757 27.2889 59.9625 27.2889H66.5189C66.6057 27.2889 66.6491 27.2889 66.736 27.2456C66.7794 27.2022 66.8662 27.1589 66.9097 27.1156C66.9531 27.0723 66.9531 26.9857 66.9531 26.899V21.268C66.9531 21.1814 66.9097 21.1381 66.9097 21.0514ZM65.2597 26.0327H62.0901L62.8282 23.0006C62.8716 22.8274 62.9585 22.6541 63.0453 22.5242C63.1321 22.3942 63.2624 22.3076 63.3927 22.221C63.5229 22.1343 63.6966 22.091 63.9137 22.091H65.2597V26.0327Z" fill="#8FD6C2"/>
<path d="M58.9639 20.8348H53.7535C53.6667 20.8348 53.6233 20.8348 53.5364 20.8782C53.493 20.9215 53.4062 20.9648 53.3628 21.0081C53.3193 21.0514 53.3193 21.138 53.3193 21.2247V26.8557C53.3193 26.9423 53.3193 27.029 53.3628 27.0723C53.4062 27.1589 53.4496 27.2022 53.493 27.2455C53.5364 27.2889 53.6233 27.2889 53.7101 27.2889H58.877C58.9639 27.2889 59.0507 27.2889 59.0941 27.2455C59.1376 27.2022 59.2244 27.1589 59.2244 27.0723C59.2678 27.029 59.2678 26.9423 59.2678 26.8557V26.4225C59.2678 26.3359 59.2678 26.2926 59.2244 26.206C59.181 26.1627 59.1376 26.076 59.0941 26.076C59.0507 26.0327 58.9639 26.0327 58.877 26.0327H54.9693V24.6899H58.356C58.4428 24.6899 58.4863 24.6899 58.5731 24.6466C58.6165 24.6033 58.7034 24.56 58.7468 24.4733C58.7902 24.43 58.7902 24.3434 58.7902 24.2568V23.8236C58.7902 23.737 58.7902 23.6937 58.7468 23.607C58.7034 23.5637 58.6599 23.4771 58.5731 23.4338C58.5297 23.3905 58.4428 23.3905 58.356 23.3905H54.9693V22.091H58.877C58.9639 22.091 59.0073 22.091 59.0941 22.0477C59.1376 22.0044 59.2244 21.961 59.2678 21.9177C59.3112 21.8744 59.3112 21.7878 59.3112 21.7012V21.268C59.3112 21.1814 59.3112 21.0947 59.2678 21.0514C59.2244 21.0081 59.181 20.9215 59.0941 20.9215C59.0941 20.8782 59.0073 20.8348 58.9639 20.8348Z" fill="#8FD6C2"/>
<path d="M48.2389 27.2889C48.3257 27.2889 48.4126 27.2889 48.456 27.2455C48.5428 27.2022 48.5863 27.1589 48.6731 27.1156C48.7165 27.0723 48.7599 26.9857 48.8034 26.899L50.4099 22.4808V26.8557C50.4099 26.9423 50.4099 27.029 50.4533 27.0723C50.4967 27.1589 50.5401 27.2022 50.5836 27.2455C50.627 27.2889 50.7138 27.2889 50.8007 27.2889H51.6256C51.7125 27.2889 51.7993 27.2889 51.8427 27.2455C51.8861 27.2022 51.973 27.1589 51.973 27.0723C52.0164 27.029 52.0164 26.9423 52.0164 26.8557V21.268C52.0164 21.1814 52.0164 21.0947 51.973 21.0514C51.9296 20.9648 51.8861 20.9215 51.8427 20.8782C51.7993 20.8348 51.7125 20.8348 51.6256 20.8348H49.802C49.7152 20.8348 49.6283 20.8348 49.5849 20.8782C49.4981 20.9215 49.4546 20.9648 49.4112 21.0514C49.3678 21.0947 49.3244 21.1814 49.281 21.268L47.935 25.1231L46.589 21.268C46.5455 21.1814 46.5021 21.138 46.4587 21.0514C46.4153 21.0081 46.3284 20.9215 46.285 20.8782C46.1982 20.8348 46.1548 20.8348 46.0679 20.8348H44.2443C44.1575 20.8348 44.114 20.8348 44.0272 20.8782C43.9838 20.9215 43.8969 20.9648 43.8969 21.0514C43.8535 21.0947 43.8535 21.1814 43.8535 21.268V26.8557C43.8535 26.9423 43.8535 27.029 43.8969 27.0723C43.9404 27.1589 43.9838 27.2022 44.0272 27.2455C44.0706 27.2889 44.1575 27.2889 44.2443 27.2889H45.0693C45.1561 27.2889 45.2429 27.2889 45.2864 27.2455C45.3298 27.2022 45.4166 27.1589 45.4166 27.0723C45.46 27.029 45.46 26.9423 45.46 26.8557V22.4808L47.0666 26.899C47.11 26.9857 47.1534 27.029 47.1968 27.1156C47.2402 27.1589 47.3271 27.2455 47.4139 27.2455C47.5008 27.2889 47.5442 27.2889 47.631 27.2889H48.2389Z" fill="#8FD6C2"/>
<path d="M128.305 17.4995C128.391 17.4995 128.435 17.4995 128.522 17.4562C128.565 17.4129 128.652 17.3696 128.695 17.2829C128.739 17.2396 128.739 17.153 128.739 17.0664V11.4787C128.739 11.392 128.739 11.3487 128.695 11.2621C128.652 11.2188 128.609 11.1321 128.565 11.0888C128.522 11.0455 128.435 11.0455 128.348 11.0455H127.002C126.915 11.0455 126.872 11.0455 126.785 11.0888C126.698 11.1321 126.655 11.1754 126.568 11.2621C126.481 11.3054 126.438 11.392 126.394 11.4787L123.832 15.9402V11.4787C123.832 11.392 123.832 11.3487 123.789 11.2621C123.746 11.2188 123.702 11.1321 123.615 11.1321C123.572 11.0888 123.485 11.0888 123.398 11.0888H122.617C122.53 11.0888 122.486 11.0888 122.4 11.1321C122.356 11.1754 122.269 11.2188 122.269 11.2621C122.226 11.3054 122.226 11.392 122.226 11.4787V17.0664C122.226 17.153 122.226 17.1963 122.269 17.2829C122.313 17.3263 122.356 17.4129 122.4 17.4562C122.443 17.4995 122.53 17.4995 122.617 17.4995H124.093C124.18 17.4995 124.267 17.4995 124.353 17.4562C124.44 17.4129 124.527 17.3696 124.571 17.2829C124.657 17.2396 124.701 17.153 124.744 17.0664L127.089 12.9081V17.0664C127.089 17.153 127.089 17.1963 127.132 17.2829C127.176 17.3263 127.219 17.4129 127.306 17.4562C127.349 17.4995 127.436 17.4995 127.523 17.4995H128.305ZM125.482 9.57277C125.309 9.57277 125.222 9.52945 125.092 9.48613C125.005 9.44282 124.918 9.35619 124.874 9.26956C124.831 9.18293 124.788 9.13961 124.744 9.09629C124.701 9.05298 124.614 9.05298 124.571 9.05298H124.223C124.136 9.05298 124.093 9.05298 124.049 9.09629C124.006 9.13961 123.963 9.18293 123.963 9.26956C123.963 9.52945 124.049 9.78934 124.136 9.96261C124.267 10.1792 124.44 10.3091 124.657 10.4391C124.874 10.5257 125.135 10.6123 125.439 10.6123C125.743 10.6123 126.003 10.569 126.22 10.4391C126.438 10.3524 126.611 10.1792 126.741 9.96261C126.872 9.74603 126.915 9.52945 126.915 9.26956C126.915 9.18293 126.915 9.13961 126.828 9.09629C126.785 9.05298 126.742 9.05298 126.655 9.05298H126.351C126.264 9.05298 126.22 9.05298 126.177 9.09629C126.134 9.13961 126.09 9.18293 126.047 9.26956C126.003 9.35619 125.917 9.44282 125.83 9.48613C125.743 9.52945 125.613 9.57277 125.482 9.57277ZM120.142 17.4995C120.229 17.4995 120.272 17.4995 120.359 17.4562C120.402 17.4129 120.489 17.3696 120.532 17.2829C120.576 17.2396 120.576 17.153 120.576 17.0664V11.4787C120.576 11.392 120.576 11.3487 120.532 11.2621C120.489 11.2188 120.446 11.1321 120.402 11.0888C120.359 11.0455 120.272 11.0455 120.185 11.0455H118.839C118.752 11.0455 118.709 11.0455 118.622 11.0888C118.535 11.1321 118.492 11.1754 118.405 11.2621C118.318 11.3054 118.275 11.392 118.231 11.4787L115.669 15.9835V11.4787C115.669 11.392 115.669 11.3487 115.626 11.2621C115.583 11.2188 115.539 11.1321 115.452 11.1321C115.409 11.0888 115.322 11.0888 115.235 11.0888H114.454C114.367 11.0888 114.323 11.0888 114.237 11.1321C114.193 11.1754 114.106 11.2188 114.106 11.2621C114.063 11.3054 114.063 11.392 114.063 11.4787V17.0664C114.063 17.153 114.063 17.1963 114.106 17.2829C114.15 17.3263 114.193 17.4129 114.237 17.4562C114.28 17.4995 114.367 17.4995 114.454 17.4995H115.93C116.017 17.4995 116.104 17.4995 116.191 17.4562C116.277 17.4129 116.364 17.3696 116.408 17.2829C116.494 17.2396 116.538 17.153 116.581 17.0664L118.926 12.9081V17.0664C118.926 17.153 118.926 17.1963 118.969 17.2829C119.013 17.3263 119.056 17.4129 119.143 17.4562C119.186 17.4995 119.273 17.4995 119.36 17.4995H120.142ZM107.637 17.4995C107.724 17.4995 107.767 17.4995 107.854 17.4562C107.897 17.4129 107.984 17.3696 108.028 17.3263C108.071 17.2829 108.071 17.1963 108.071 17.1097V14.9439H109.026C109.2 14.9439 109.374 14.9872 109.547 15.0738C109.678 15.1605 109.808 15.2471 109.938 15.3771C110.068 15.507 110.155 15.6803 110.285 15.8535L111.067 17.1097C111.11 17.1963 111.197 17.2396 111.241 17.3263C111.328 17.3696 111.414 17.4562 111.501 17.4562C111.588 17.4995 111.675 17.4995 111.762 17.4995H112.804C112.891 17.4995 112.934 17.4995 112.977 17.4562C113.021 17.4129 113.021 17.3696 113.021 17.3263C113.021 17.2829 112.977 17.1963 112.934 17.1097L111.805 15.3337C111.762 15.2471 111.675 15.1172 111.588 15.0305C111.501 14.9006 111.414 14.814 111.284 14.7273C111.197 14.6407 111.067 14.5541 110.98 14.4674C110.85 14.3808 110.763 14.3375 110.633 14.3375C110.85 14.2942 111.024 14.2075 111.154 14.1209C111.284 14.0343 111.414 13.9043 111.501 13.7744C111.588 13.6444 111.675 13.5145 111.762 13.3845L112.717 11.6086C112.804 11.4787 112.804 11.392 112.804 11.3054C112.76 11.2188 112.717 11.1754 112.587 11.1754H111.545C111.414 11.1754 111.328 11.2188 111.197 11.2621C111.067 11.3487 110.98 11.4353 110.893 11.6086L110.199 12.8647C110.068 13.0813 109.938 13.2546 109.808 13.3845C109.678 13.5145 109.547 13.6011 109.417 13.6877C109.287 13.7311 109.113 13.7744 108.939 13.7744H107.984V11.6086C107.984 11.522 107.984 11.4353 107.941 11.392C107.897 11.3487 107.854 11.2621 107.767 11.2188C107.724 11.1754 107.637 11.1754 107.55 11.1754H106.725C106.638 11.1754 106.595 11.1754 106.508 11.2188C106.465 11.2621 106.378 11.3054 106.334 11.392C106.291 11.4787 106.291 11.522 106.291 11.6086V17.1963C106.291 17.2829 106.291 17.3696 106.334 17.4129C106.378 17.4995 106.421 17.5428 106.508 17.5861C106.551 17.6295 106.638 17.6295 106.725 17.6295H107.637V17.4995ZM98.128 14.2942C98.128 15.0305 98.2582 15.6369 98.5187 16.1134C98.7793 16.5899 99.1266 16.9364 99.6477 17.1963C100.125 17.4129 100.777 17.5428 101.471 17.5428H102.557C102.817 17.5428 103.078 17.4995 103.295 17.4562C103.555 17.4129 103.773 17.3263 103.99 17.1963C104.207 17.1097 104.424 16.9797 104.554 16.8065C104.728 16.6332 104.858 16.4599 104.945 16.2434C105.032 16.0268 105.075 15.8102 105.075 15.5503C105.075 15.4637 105.075 15.3771 105.032 15.2904C104.988 15.2471 104.945 15.1605 104.901 15.1605C104.858 15.1172 104.815 15.1172 104.771 15.0738C104.728 15.0738 104.684 15.0738 104.641 15.0738H104.12C104.033 15.0738 103.946 15.0738 103.859 15.1172C103.773 15.1605 103.729 15.2038 103.642 15.2904C103.555 15.3771 103.512 15.4637 103.469 15.5936C103.382 15.8102 103.208 15.9835 103.034 16.1134C102.861 16.2434 102.644 16.2867 102.34 16.2867H101.428C101.081 16.2867 100.82 16.2434 100.603 16.2C100.386 16.1134 100.212 16.0268 100.082 15.8535C99.9516 15.6803 99.8647 15.507 99.8213 15.2471C99.7779 14.9872 99.7345 14.684 99.7345 14.2942C99.7345 13.9043 99.7779 13.6011 99.8213 13.3412C99.8647 13.0813 99.9516 12.8647 100.082 12.7348C100.212 12.5615 100.386 12.4749 100.603 12.3883C100.82 12.3016 101.081 12.3016 101.428 12.3016H102.209C102.47 12.3016 102.73 12.3883 102.904 12.4749C103.078 12.6049 103.208 12.7781 103.338 12.9947C103.382 13.1246 103.469 13.2113 103.512 13.2979C103.599 13.3845 103.642 13.4279 103.729 13.4712C103.816 13.5145 103.903 13.5145 103.99 13.5145H104.511C104.554 13.5145 104.597 13.5145 104.641 13.5145C104.684 13.5145 104.728 13.4712 104.771 13.4279C104.815 13.3845 104.858 13.3412 104.901 13.2979C104.945 13.2546 104.945 13.168 104.945 13.038C104.945 12.7781 104.901 12.5615 104.815 12.345C104.728 12.1284 104.597 11.9551 104.424 11.7819C104.25 11.6086 104.076 11.4787 103.859 11.392C103.642 11.3054 103.425 11.2188 103.165 11.1321C102.904 11.0888 102.687 11.0455 102.427 11.0455H101.428C100.69 11.0455 100.082 11.1754 99.6042 11.392C99.1266 11.6086 98.7358 11.9984 98.4753 12.4749C98.2582 12.9514 98.128 13.5578 98.128 14.2942ZM96.9122 11.0455H91.7453C91.6584 11.0455 91.615 11.0455 91.5282 11.0888C91.4848 11.1321 91.3979 11.1754 91.3545 11.2188C91.3111 11.2621 91.3111 11.3487 91.3111 11.4353V17.023C91.3111 17.1097 91.3111 17.1963 91.3545 17.2396C91.3979 17.3263 91.4413 17.3696 91.4848 17.4129C91.5282 17.4562 91.615 17.4562 91.7019 17.4562H96.8688C96.9556 17.4562 96.9991 17.4562 97.0859 17.4129C97.1293 17.3696 97.2162 17.3263 97.2162 17.2396C97.2596 17.1963 97.2596 17.1097 97.2596 17.023V16.5899C97.2596 16.5033 97.2596 16.4599 97.2162 16.3733C97.1727 16.33 97.1293 16.2434 97.0859 16.2434C97.0425 16.2 96.9556 16.2 96.8688 16.2H92.961V14.8573H96.3478C96.4346 14.8573 96.478 14.8573 96.5649 14.814C96.6083 14.7706 96.6951 14.7273 96.7385 14.6407C96.782 14.5974 96.782 14.5107 96.782 14.4241V13.991C96.782 13.9043 96.782 13.861 96.7385 13.7744C96.6951 13.7311 96.6517 13.6444 96.5649 13.6011C96.5214 13.5578 96.4346 13.5578 96.3478 13.5578H92.961V12.2583H96.8688C96.9556 12.2583 96.9991 12.2583 97.0859 12.215C97.1293 12.1717 97.2162 12.1284 97.2596 12.0851C97.303 12.0418 97.303 11.9551 97.303 11.8685V11.4353C97.303 11.3487 97.303 11.2621 97.2596 11.2188C97.2162 11.1754 97.1727 11.0888 97.0859 11.0888C97.0859 11.0888 96.9991 11.0455 96.9122 11.0455ZM83.4956 12.9947C83.4956 13.3845 83.5824 13.7744 83.7127 14.0776C83.8429 14.3808 84.06 14.6407 84.2771 14.814C84.5376 14.9872 84.7981 15.1605 85.1455 15.2471C85.4929 15.3337 85.8402 15.3771 86.2744 15.3771H88.0112V17.1097C88.0112 17.1963 88.0112 17.2396 88.0546 17.3263C88.098 17.3696 88.1415 17.4562 88.2283 17.4562C88.2717 17.4995 88.3585 17.4995 88.4454 17.4995H89.2704C89.3572 17.4995 89.444 17.4995 89.4875 17.4562C89.5309 17.4129 89.6177 17.3696 89.6611 17.2829C89.7046 17.2396 89.7046 17.153 89.7046 17.0664V11.4787C89.7046 11.392 89.7046 11.3054 89.6611 11.2621C89.6177 11.2188 89.5743 11.1321 89.4875 11.1321C89.4006 11.0888 89.3572 11.0888 89.2704 11.0888H88.4454C88.3585 11.0888 88.3151 11.0888 88.2283 11.1321C88.1849 11.1754 88.098 11.2188 88.0546 11.2621C88.0112 11.3054 88.0112 11.392 88.0112 11.4787V14.0776H86.2744C85.9271 14.0776 85.6665 13.991 85.4494 13.8177C85.2758 13.6444 85.1889 13.3845 85.1889 12.9947V11.4787C85.1889 11.392 85.1889 11.3054 85.1455 11.2621C85.1021 11.2188 85.0587 11.1321 84.9718 11.1321C84.9284 11.0888 84.8416 11.0888 84.7547 11.0888H83.9297C83.8429 11.0888 83.7561 11.0888 83.7127 11.1321C83.6258 11.1754 83.5824 11.2188 83.539 11.3054C83.4956 11.3487 83.4956 11.4353 83.4956 11.522V12.9947ZM81.7153 17.4995C81.8022 17.4995 81.8456 17.4995 81.9324 17.4562C81.9759 17.4129 82.0627 17.3696 82.1061 17.2829C82.1495 17.2396 82.1495 17.153 82.1495 17.0664V11.4787C82.1495 11.392 82.1495 11.3487 82.1061 11.2621C82.0627 11.2188 82.0193 11.1321 81.9759 11.0888C81.9324 11.0455 81.8456 11.0455 81.7588 11.0455H80.4128C80.3259 11.0455 80.2825 11.0455 80.1957 11.0888C80.1088 11.1321 80.0654 11.1754 79.9786 11.2621C79.8917 11.3054 79.8483 11.392 79.8049 11.4787L77.2431 15.9835V11.4787C77.2431 11.392 77.2431 11.3487 77.1997 11.2621C77.1563 11.2188 77.1129 11.1321 77.026 11.1321C76.9826 11.0888 76.8958 11.0888 76.8089 11.0888H75.984C75.8971 11.0888 75.8537 11.0888 75.7669 11.1321C75.7234 11.1754 75.6366 11.2188 75.6366 11.2621C75.5932 11.3054 75.5932 11.392 75.5932 11.4787V17.0664C75.5932 17.153 75.5932 17.1963 75.6366 17.2829C75.68 17.3263 75.7234 17.4129 75.7669 17.4562C75.8103 17.4995 75.8971 17.4995 75.984 17.4995H77.4602C77.5471 17.4995 77.6339 17.4995 77.7207 17.4562C77.8076 17.4129 77.8944 17.3696 77.9378 17.2829C78.0247 17.2396 78.0681 17.153 78.1115 17.0664L80.4562 12.9081V17.0664C80.4562 17.153 80.4562 17.1963 80.4996 17.2829C80.543 17.3263 80.5864 17.4129 80.6733 17.4562C80.7167 17.4995 80.8035 17.4995 80.8904 17.4995H81.7153ZM72.2499 17.1097C72.2499 17.1963 72.2499 17.2396 72.2933 17.3263C72.3367 17.3696 72.3801 17.4562 72.467 17.4562C72.5104 17.4995 72.5972 17.4995 72.6841 17.4995H73.509C73.5959 17.4995 73.6827 17.4995 73.7261 17.4562C73.7696 17.4129 73.8564 17.3696 73.8998 17.2829C73.9432 17.2396 73.9432 17.153 73.9432 17.0664V11.4787C73.9432 11.392 73.9432 11.3054 73.8998 11.2621C73.8564 11.2188 73.813 11.1321 73.7261 11.1321C73.6393 11.0888 73.5959 11.0888 73.509 11.0888H72.6841C72.5972 11.0888 72.5538 11.0888 72.467 11.1321C72.4235 11.1754 72.3367 11.2188 72.2933 11.2621C72.2499 11.3054 72.2499 11.392 72.2499 11.4787V13.5145H69.1671V11.4787C69.1671 11.392 69.1671 11.3054 69.1237 11.2621C69.0802 11.2188 69.0368 11.1321 68.95 11.1321C68.9066 11.0888 68.8197 11.0888 68.7329 11.0888H67.9079C67.8211 11.0888 67.7342 11.0888 67.6908 11.1321C67.604 11.1754 67.5606 11.2188 67.5171 11.2621C67.4737 11.3054 67.4737 11.392 67.4737 11.4787V17.0664C67.4737 17.153 67.4737 17.1963 67.5171 17.2829C67.5606 17.3263 67.604 17.4129 67.6908 17.4562C67.7342 17.4995 67.8211 17.4995 67.9079 17.4995H68.7329C68.8197 17.4995 68.8631 17.4995 68.95 17.4562C68.9934 17.4129 69.0802 17.3696 69.1237 17.3263C69.1671 17.2829 69.1671 17.1963 69.1671 17.1097V14.814H72.2499V17.1097ZM65.433 17.4995C65.5198 17.4995 65.5632 17.4995 65.6501 17.4562C65.6935 17.4129 65.7803 17.3696 65.8238 17.2829C65.8672 17.2396 65.8672 17.153 65.8672 17.0664V11.4787C65.8672 11.392 65.8672 11.3487 65.8238 11.2621C65.7803 11.2188 65.7369 11.1321 65.6935 11.0888C65.6501 11.0455 65.5633 11.0455 65.4764 11.0455H64.1304C64.0436 11.0455 64.0001 11.0455 63.9133 11.0888C63.8265 11.1321 63.783 11.1754 63.6962 11.2621C63.6094 11.3054 63.5659 11.392 63.5225 11.4787L60.9608 15.9835V11.4787C60.9608 11.392 60.9608 11.3487 60.9174 11.2621C60.8739 11.2188 60.8305 11.1321 60.7437 11.1321C60.7002 11.0888 60.6134 11.0888 60.5266 11.0888H59.745C59.6582 11.0888 59.6148 11.0888 59.5279 11.1321C59.4845 11.1754 59.3977 11.2188 59.3977 11.2621C59.3542 11.3054 59.3542 11.392 59.3542 11.4787V17.0664C59.3542 17.153 59.3542 17.1963 59.3977 17.2829C59.4411 17.3263 59.4845 17.4129 59.5279 17.4562C59.5713 17.4995 59.6582 17.4995 59.745 17.4995H61.2213C61.3081 17.4995 61.395 17.4995 61.4818 17.4562C61.5686 17.4129 61.6555 17.3696 61.6989 17.2829C61.7857 17.2396 61.8292 17.153 61.8726 17.0664L64.2172 12.9081V17.0664C64.2172 17.153 64.2172 17.1963 64.2607 17.2829C64.3041 17.3263 64.3475 17.4129 64.4343 17.4562C64.4778 17.4995 64.5646 17.4995 64.6514 17.4995H65.433ZM57.6609 17.0664V11.4787C57.6609 11.392 57.6609 11.3487 57.6175 11.2621C57.574 11.2188 57.5306 11.1321 57.4872 11.0888C57.4438 11.0455 57.3569 11.0455 57.3135 11.0455H55.0557C54.7083 11.0455 54.4044 11.0455 54.1005 11.1321C53.7965 11.1754 53.4926 11.2621 53.2321 11.392C52.9716 11.522 52.711 11.6952 52.5374 11.9118C52.3203 12.1284 52.19 12.4316 52.1032 12.7781L50.9743 17.1097C50.9743 17.1963 50.9743 17.2396 50.9743 17.2829C50.9743 17.3263 51.0177 17.3696 51.1045 17.4129C51.1479 17.4562 51.2348 17.4562 51.2782 17.4562H52.19C52.2768 17.4562 52.3637 17.4562 52.4071 17.4129C52.4939 17.3696 52.5374 17.3263 52.5808 17.2829C52.6242 17.2396 52.6676 17.153 52.711 17.0664L53.7531 13.2113C53.7965 13.038 53.8834 12.8647 54.0136 12.7348C54.1439 12.6049 54.2741 12.4749 54.4044 12.4316C54.5781 12.345 54.7518 12.3016 54.9254 12.3016H56.0109V17.0664C56.0109 17.153 56.0109 17.2396 56.0544 17.2829C56.0978 17.3263 56.1412 17.4129 56.228 17.4129C56.2715 17.4562 56.3583 17.4562 56.4451 17.4562H57.3135C57.4004 17.4562 57.4438 17.4562 57.5306 17.4129C57.574 17.3696 57.6609 17.3263 57.6609 17.2829C57.6609 17.2396 57.6609 17.153 57.6609 17.0664ZM45.0692 17.4995C45.156 17.4995 45.1994 17.4995 45.2863 17.4562C45.3297 17.4129 45.4165 17.3696 45.46 17.3263C45.5034 17.2829 45.5034 17.1963 45.5034 17.1097V14.9439H46.4586C46.6323 14.9439 46.806 14.9872 46.9797 15.0738C47.1099 15.1605 47.2402 15.2471 47.3704 15.3771C47.5007 15.507 47.5875 15.6803 47.7178 15.8535L48.4993 17.1097C48.5428 17.1963 48.6296 17.2396 48.673 17.3263C48.7599 17.3696 48.8467 17.4562 48.9335 17.4562C49.0204 17.4995 49.1072 17.4995 49.1941 17.4995H50.2361C50.323 17.4995 50.3664 17.4995 50.4098 17.4562C50.4532 17.4129 50.4532 17.3696 50.4532 17.3263C50.4532 17.2829 50.4098 17.1963 50.3664 17.1097L49.2375 15.3337C49.1941 15.2471 49.1072 15.1172 49.0204 15.0305C48.9335 14.9006 48.8467 14.814 48.7164 14.7273C48.6296 14.6407 48.4993 14.5541 48.4125 14.4674C48.2822 14.3808 48.1954 14.3375 48.0651 14.3375C48.2822 14.2942 48.4559 14.2075 48.5862 14.1209C48.7164 14.0343 48.8467 13.9043 48.9335 13.7744C49.0204 13.6444 49.1072 13.5145 49.1941 13.3845L50.1493 11.6086C50.2361 11.4787 50.2361 11.392 50.2361 11.3054C50.1927 11.2188 50.1493 11.1754 50.019 11.1754H49.0638C48.9335 11.1754 48.8467 11.2188 48.7164 11.2621C48.5862 11.3487 48.4993 11.4353 48.4125 11.6086L47.7178 12.8647C47.5875 13.0813 47.4573 13.2546 47.327 13.3845C47.1968 13.5145 47.0665 13.6011 46.9362 13.6877C46.806 13.7311 46.6323 13.7744 46.4586 13.7744H45.5034V11.6086C45.5034 11.522 45.5034 11.4353 45.46 11.392C45.4165 11.3487 45.3731 11.2621 45.2863 11.2188C45.2429 11.1754 45.156 11.1754 45.0692 11.1754H44.2008C44.114 11.1754 44.0705 11.1754 43.9837 11.2188C43.9403 11.2621 43.8534 11.3054 43.81 11.392C43.7666 11.4787 43.7666 11.522 43.7666 11.6086V17.1963C43.7666 17.2829 43.7666 17.3696 43.81 17.4129C43.8534 17.4995 43.8969 17.5428 43.9837 17.5861C44.0271 17.6295 44.114 17.6295 44.2008 17.6295H45.0692V17.4995Z" fill="#477A6A"/>
<path d="M89.7051 8.48985C89.7919 8.48985 89.8354 8.48985 89.9222 8.44654C89.9656 8.40322 90.0524 8.35991 90.0959 8.27328C90.1393 8.22996 90.1393 8.14333 90.1393 8.0567V2.5123C90.1393 2.42567 90.1393 2.38236 90.0959 2.29573C90.0524 2.25241 90.009 2.16578 89.9656 2.12246C89.9222 2.07915 89.8353 2.07915 89.7485 2.07915H88.4025C88.3157 2.07915 88.2722 2.07915 88.1854 2.12246C88.0986 2.16578 88.0117 2.20909 87.9683 2.29573C87.8815 2.33904 87.838 2.42567 87.7946 2.5123L85.2329 7.01712V2.46899C85.2329 2.38236 85.2329 2.33904 85.1894 2.25241C85.146 2.20909 85.1026 2.12246 85.0158 2.12246C84.9724 2.07915 84.8855 2.07915 84.7987 2.07915H84.0171C83.9303 2.07915 83.8434 2.07915 83.8 2.12246C83.7566 2.16578 83.6698 2.20909 83.6698 2.25241C83.6263 2.29573 83.6263 2.38236 83.6263 2.46899V8.0567C83.6263 8.14333 83.6263 8.18664 83.6698 8.27328C83.7132 8.31659 83.7566 8.40322 83.8 8.44654C83.8434 8.48985 83.9303 8.48985 84.0171 8.48985H85.4934C85.5802 8.48985 85.6671 8.48985 85.7539 8.44654C85.8407 8.40322 85.9276 8.35991 85.971 8.27328C86.0578 8.22996 86.1013 8.14333 86.1447 8.0567L88.4893 3.8984V8.0567C88.4893 8.14333 88.4893 8.18664 88.5328 8.27328C88.5762 8.31659 88.6196 8.40322 88.7064 8.44654C88.7499 8.48985 88.8367 8.48985 88.9235 8.48985H89.7051ZM86.8394 0.563102C86.6657 0.563102 86.5789 0.519787 86.4486 0.476471C86.3618 0.433156 86.2749 0.346525 86.2315 0.259893C86.1881 0.173262 86.1447 0.129947 86.1013 0.0866311C86.1013 0 86.0144 0 85.9276 0H85.5802C85.4934 0 85.45 0 85.4065 0.0433156C85.3631 0.0866311 85.3197 0.129947 85.3197 0.216578C85.3197 0.476471 85.4065 0.736365 85.4934 0.909627C85.6236 1.1262 85.7973 1.25615 86.0144 1.3861C86.2315 1.47273 86.492 1.55936 86.796 1.55936C87.0999 1.55936 87.3604 1.51605 87.5775 1.3861C87.7946 1.29947 87.9683 1.1262 88.0986 0.909627C88.2288 0.693049 88.2722 0.476471 88.2722 0.216578C88.2722 0.129947 88.2722 0.0866311 88.1854 0.0433156C88.2288 0 88.1854 0 88.0986 0H87.7512C87.6644 0 87.6209 0 87.5775 0.0433156C87.5341 0.0866311 87.4907 0.129947 87.4473 0.216578C87.4038 0.303209 87.317 0.38984 87.2302 0.433156C87.1433 0.519787 87.0131 0.563102 86.8394 0.563102ZM80.5435 8.10001C80.5435 8.18664 80.5435 8.22996 80.587 8.31659C80.6304 8.35991 80.6738 8.44654 80.7606 8.44654C80.8041 8.48985 80.8909 8.48985 80.9777 8.48985H81.8461C81.933 8.48985 82.0198 8.48985 82.0632 8.44654C82.1067 8.40322 82.1935 8.35991 82.2369 8.27328C82.2803 8.22996 82.2803 8.14333 82.2803 8.0567V2.46899C82.2803 2.38236 82.2803 2.29573 82.2369 2.25241C82.1935 2.20909 82.1501 2.12246 82.0632 2.07915C81.9764 2.03583 81.933 2.03583 81.8461 2.03583H80.9777C80.8909 2.03583 80.8475 2.03583 80.7606 2.07915C80.7172 2.12246 80.6304 2.16578 80.587 2.25241C80.5435 2.29573 80.5435 2.38236 80.5435 2.46899V8.10001ZM75.3332 4.24493V2.46899C75.3332 2.38236 75.3332 2.29573 75.2898 2.25241C75.2464 2.20909 75.2029 2.12246 75.1161 2.07915C75.0727 2.03583 74.9858 2.03583 74.899 2.03583H74.0306C73.9438 2.03583 73.8569 2.03583 73.8135 2.07915C73.7701 2.12246 73.6832 2.16578 73.6832 2.25241C73.6398 2.29573 73.6398 2.38236 73.6398 2.46899V8.0567C73.6398 8.14333 73.6398 8.18664 73.6832 8.27328C73.7267 8.31659 73.7701 8.40322 73.8135 8.44654C73.8569 8.48985 73.9438 8.48985 74.0306 8.48985H77.1568C77.5042 8.48985 77.8081 8.44654 78.112 8.35991C78.416 8.27327 78.6765 8.14333 78.8936 7.97007C79.1107 7.7968 79.2844 7.58023 79.4146 7.32033C79.5449 7.06044 79.5883 6.75723 79.5883 6.41071C79.5883 6.06418 79.5015 5.76097 79.4146 5.50108C79.2844 5.24118 79.1107 5.02461 78.8936 4.85134C78.6765 4.67808 78.416 4.54814 78.112 4.4615C77.8081 4.37487 77.5042 4.33156 77.1568 4.33156H75.3332V4.24493ZM77.2002 5.54439C77.4608 5.54439 77.6344 5.63102 77.7647 5.76097C77.895 5.89092 77.9384 6.1075 77.9384 6.41071C77.9384 6.6706 77.895 6.88718 77.7647 7.06044C77.6344 7.19038 77.4608 7.27702 77.2002 7.27702H75.3332V5.58771H77.2002V5.54439ZM70.2965 5.76097C70.4702 5.76097 70.6005 5.80429 70.6873 5.8476C70.7741 5.89092 70.861 6.02086 70.9478 6.1075C70.9912 6.23744 71.0347 6.36739 71.0347 6.49734C71.0347 6.62728 70.9912 6.80055 70.9478 6.88718C70.9044 7.01712 70.8176 7.10375 70.6873 7.14707C70.6005 7.19039 70.4268 7.2337 70.2965 7.2337H67.7348V5.67434H70.2965V5.76097ZM70.1663 3.29198C70.3399 3.29198 70.5136 3.3353 70.6005 3.46525C70.7307 3.59519 70.7741 3.72514 70.7741 3.94172C70.7741 4.1583 70.7307 4.33156 70.6005 4.41819C70.4702 4.54814 70.3399 4.59145 70.1663 4.59145H67.7348V3.29198H70.1663ZM66.0414 8.10001C66.0414 8.18664 66.0414 8.22996 66.0848 8.31659C66.1282 8.35991 66.1717 8.44654 66.2151 8.48985C66.2585 8.53317 66.3453 8.53317 66.4322 8.53317H70.2965C70.557 8.53317 70.7741 8.48985 71.0347 8.44654C71.2518 8.40322 71.4688 8.31659 71.6859 8.22996C71.903 8.14333 72.0767 8.01338 72.207 7.84012C72.3372 7.66686 72.4675 7.49359 72.5543 7.32033C72.6412 7.10375 72.6846 6.88718 72.6846 6.62728C72.6846 6.41071 72.6412 6.23744 72.5978 6.06418C72.5543 5.89092 72.4241 5.71766 72.2938 5.54439C72.1636 5.37113 71.9899 5.24118 71.8162 5.15455C71.9465 5.02461 72.0767 4.89466 72.1636 4.76471C72.2504 4.63477 72.3372 4.50482 72.3372 4.37487C72.3807 4.24493 72.3807 4.11498 72.3807 3.94172C72.3807 3.68182 72.3372 3.42193 72.2504 3.24867C72.1636 3.03209 72.0333 2.85883 71.903 2.72888C71.7294 2.59893 71.5557 2.46899 71.382 2.38236C71.1649 2.29573 70.9912 2.20909 70.7307 2.16578C70.5136 2.12246 70.2965 2.12246 70.036 2.12246H66.3887C66.3019 2.12246 66.2151 2.12246 66.1716 2.16578C66.1282 2.20909 66.0414 2.25241 66.0414 2.33904C65.998 2.38236 65.998 2.46899 65.998 2.55562V8.10001H66.0414ZM59.0508 2.07915C58.964 2.07915 58.9206 2.07915 58.8337 2.12246C58.7903 2.16578 58.7035 2.20909 58.7035 2.25241C58.6601 2.29573 58.6601 2.38236 58.6601 2.46899V8.0567C58.6601 8.14333 58.6601 8.18664 58.7035 8.27328C58.7469 8.31659 58.7903 8.40322 58.8772 8.44654C58.9206 8.48985 59.0074 8.48985 59.0943 8.48985H59.9626C60.0495 8.48985 60.0929 8.48985 60.1797 8.44654C60.2232 8.40322 60.31 8.35991 60.31 8.27328C60.3534 8.22996 60.3534 8.14333 60.3534 8.0567V7.06044H62.5244C63.0889 7.06044 63.5665 6.97381 64.0007 6.80055C64.3914 6.62728 64.6954 6.36739 64.9125 5.97755C65.1296 5.58771 65.2164 5.15455 65.2164 4.54814C65.2164 3.98503 65.0862 3.50856 64.9125 3.11872C64.6954 2.72888 64.3914 2.46899 64.0007 2.29573C63.6099 2.12246 63.0889 2.03583 62.5244 2.03583H59.0508V2.07915ZM61.9599 3.3353C62.177 3.3353 62.3941 3.3353 62.5678 3.37861C62.7415 3.42193 62.9152 3.46525 63.0454 3.55188C63.1757 3.63851 63.306 3.76846 63.3494 3.94172C63.4362 4.11498 63.4796 4.33156 63.4796 4.59145C63.4796 4.85134 63.4362 5.06792 63.3494 5.24118C63.2625 5.41445 63.1757 5.54439 63.0454 5.63102C62.9152 5.71766 62.7415 5.76097 62.5678 5.80429C62.3941 5.8476 62.177 5.8476 61.9599 5.8476H60.3534V3.3353H61.9599ZM57.4009 2.07915H52.1905C52.1037 2.07915 52.0603 2.07915 51.9734 2.12246C51.93 2.16578 51.8432 2.20909 51.7998 2.25241C51.7563 2.29573 51.7563 2.38236 51.7563 2.46899V8.0567C51.7563 8.14333 51.7563 8.22996 51.7998 8.27328C51.8432 8.35991 51.8866 8.40322 51.93 8.44654C51.9734 8.48985 52.0603 8.48985 52.1471 8.48985H57.314C57.4009 8.48985 57.4877 8.48985 57.5311 8.44654C57.5746 8.40322 57.6614 8.35991 57.6614 8.27328C57.7048 8.22996 57.7048 8.14333 57.7048 8.0567V7.62354C57.7048 7.53691 57.7048 7.49359 57.6614 7.40696C57.618 7.36365 57.5746 7.27702 57.5311 7.27702C57.4877 7.2337 57.4009 7.2337 57.314 7.2337H53.4063V5.89092H56.793C56.8799 5.89092 56.9233 5.89092 57.0101 5.8476C57.0535 5.80429 57.1404 5.76097 57.1838 5.67434C57.2272 5.63102 57.2272 5.54439 57.2272 5.45776V5.02461C57.2272 4.93798 57.2272 4.89466 57.1838 4.80803C57.1404 4.76471 57.097 4.67808 57.0101 4.63477C56.9667 4.59145 56.8799 4.59145 56.793 4.59145H53.4063V3.29198H57.314C57.4009 3.29198 57.4443 3.29198 57.5311 3.24867C57.5746 3.20535 57.6614 3.16204 57.7048 3.11872C57.7482 3.07541 57.7482 2.98877 57.7482 2.90214V2.46899C57.7482 2.38236 57.7482 2.29573 57.7048 2.25241C57.6614 2.20909 57.618 2.12246 57.5311 2.12246C57.5311 2.07915 57.4877 2.07915 57.4009 2.07915ZM50.063 8.48985C50.1498 8.48985 50.2367 8.48985 50.2801 8.44654C50.3235 8.40322 50.4103 8.35991 50.4537 8.27328C50.4972 8.22996 50.4972 8.14333 50.4972 8.0567V2.46899C50.4972 2.38236 50.4972 2.29573 50.4537 2.25241C50.4103 2.20909 50.3669 2.12246 50.2801 2.12246C50.2367 2.07915 50.1498 2.07915 50.063 2.07915H44.2013C44.1145 2.07915 44.0711 2.07915 43.9842 2.12246C43.9408 2.16578 43.854 2.20909 43.854 2.25241C43.8105 2.29573 43.8105 2.38236 43.8105 2.46899V8.0567C43.8105 8.14333 43.8105 8.18664 43.854 8.27328C43.8974 8.31659 43.9408 8.40322 43.9842 8.44654C44.0276 8.48985 44.1145 8.48985 44.2013 8.48985H45.0697C45.1566 8.48985 45.2 8.48985 45.2868 8.44654C45.3302 8.40322 45.4171 8.35991 45.4605 8.27328C45.5039 8.22996 45.5039 8.14333 45.5039 8.0567V3.29198H48.8038V8.0567C48.8038 8.14333 48.8038 8.18664 48.8472 8.27328C48.8906 8.31659 48.9341 8.40322 49.0209 8.44654C49.0643 8.48985 49.1512 8.48985 49.238 8.48985H50.063Z" fill="#477A6A"/>
<path fill-rule="evenodd" clip-rule="evenodd" d="M18.5402 24.9064C14.4587 19.3187 7.85895 15.7235 0.434196 15.7235C0.130259 16.9797 0 18.2791 0 19.5786C0 20.8781 0.130259 22.1775 0.390777 23.4337H0.434196C7.25108 23.4337 13.0259 28.0685 14.6758 34.3492C15.2403 30.9273 16.5863 27.6786 18.5402 24.9064Z" fill="#BCE3D7"/>
<path fill-rule="evenodd" clip-rule="evenodd" d="M15.1533 38.2044C15.1533 30.7541 18.7571 24.1702 24.3583 20.0985C27.1806 22.0477 30.437 23.3905 33.9106 23.9536C27.5713 25.5996 22.9254 31.3606 22.9254 38.2044C21.6663 38.4643 20.4071 38.5943 19.0611 38.5943C17.7151 38.5943 16.4125 38.4643 15.1533 38.2044Z" fill="#8FD6C2"/>
<path fill-rule="evenodd" clip-rule="evenodd" d="M19.4951 14.2941C23.5766 19.8385 30.1763 23.4337 37.6445 23.4337C37.905 22.1775 38.0353 20.8781 38.0353 19.5786C38.0353 18.2791 37.905 16.9797 37.6445 15.7235H37.6011C30.7842 15.7235 25.0094 11.0887 23.3595 4.80798C22.795 8.27323 21.4924 11.4786 19.4951 14.2941Z" fill="#69AF96"/>
<path fill-rule="evenodd" clip-rule="evenodd" d="M22.9258 0.996285C22.9258 8.44657 19.3219 15.0305 13.7208 19.1022C10.942 17.153 7.68548 15.8102 4.21191 15.2471C10.5078 13.6011 15.1971 7.84015 15.1971 0.996285C16.4562 0.736392 17.7154 0.606445 19.0614 0.606445C20.364 0.606445 21.6666 0.736392 22.9258 0.996285Z" fill="#477A6A"/>
</svg>
